<svg width="45" height="42" viewBox="0 0 45 42" fill="none" xmlns="http://www.w3.org/2000/svg">
<path d="M36.5625 5.25H32.3438V3.9375C32.3438 3.5894 32.1956 3.25556 31.9319 3.00942C31.6681 2.76328 31.3105 2.625 30.9375 2.625C30.5645 2.625 30.2069 2.76328 29.9431 3.00942C29.6794 3.25556 29.5312 3.5894 29.5312 3.9375V5.25H15.4688V3.9375C15.4688 3.5894 15.3206 3.25556 15.0569 3.00942C14.7931 2.76328 14.4355 2.625 14.0625 2.625C13.6895 2.625 13.3319 2.76328 13.0681 3.00942C12.8044 3.25556 12.6562 3.5894 12.6562 3.9375V5.25H8.4375C7.69158 5.25 6.97621 5.52656 6.44876 6.01884C5.92132 6.51113 5.625 7.17881 5.625 7.875V34.125C5.625 34.8212 5.92132 35.4889 6.44876 35.9812C6.97621 36.4734 7.69158 36.75 8.4375 36.75H36.5625C37.3084 36.75 38.0238 36.4734 38.5512 35.9812C39.0787 35.4889 39.375 34.8212 39.375 34.125V7.875C39.375 7.17881 39.0787 6.51113 38.5512 6.01884C38.0238 5.52656 37.3084 5.25 36.5625 5.25ZM12.6562 7.875V9.1875C12.6562 9.5356 12.8044 9.86944 13.0681 10.1156C13.3319 10.3617 13.6895 10.5 14.0625 10.5C14.4355 10.5 14.7931 10.3617 15.0569 10.1156C15.3206 9.86944 15.4688 9.5356 15.4688 9.1875V7.875H29.5312V9.1875C29.5312 9.5356 29.6794 9.86944 29.9431 10.1156C30.2069 10.3617 30.5645 10.5 30.9375 10.5C31.3105 10.5 31.6681 10.3617 31.9319 10.1156C32.1956 9.86944 32.3438 9.5356 32.3438 9.1875V7.875H36.5625V13.125H8.4375V7.875H12.6562ZM36.5625 34.125H8.4375V15.75H36.5625V34.125ZM24.6094 21.6562C24.6094 22.0456 24.4857 22.4263 24.2539 22.75C24.0221 23.0738 23.6927 23.3261 23.3072 23.4751C22.9218 23.6241 22.4977 23.6631 22.0885 23.5872C21.6793 23.5112 21.3034 23.3237 21.0084 23.0484C20.7134 22.773 20.5125 22.4222 20.4312 22.0403C20.3498 21.6584 20.3915 21.2626 20.5512 20.9028C20.7108 20.5431 20.9812 20.2356 21.3281 20.0193C21.675 19.803 22.0828 19.6875 22.5 19.6875C23.0594 19.6875 23.596 19.8949 23.9916 20.2641C24.3871 20.6333 24.6094 21.1341 24.6094 21.6562ZM32.3438 21.6562C32.3438 22.0456 32.22 22.4263 31.9883 22.75C31.7565 23.0738 31.427 23.3261 31.0416 23.4751C30.6562 23.6241 30.232 23.6631 29.8229 23.5872C29.4137 23.5112 29.0378 23.3237 28.7428 23.0484C28.4478 22.773 28.2469 22.4222 28.1655 22.0403C28.0841 21.6584 28.1259 21.2626 28.2856 20.9028C28.4452 20.5431 28.7156 20.2356 29.0625 20.0193C29.4094 19.803 29.8172 19.6875 30.2344 19.6875C30.7938 19.6875 31.3303 19.8949 31.7259 20.2641C32.1215 20.6333 32.3438 21.1341 32.3438 21.6562ZM16.875 28.2188C16.875 28.6081 16.7513 28.9888 16.5195 29.3125C16.2877 29.6363 15.9583 29.8886 15.5728 30.0376C15.1874 30.1866 14.7633 30.2256 14.3541 30.1497C13.9449 30.0737 13.5691 29.8862 13.2741 29.6109C12.9791 29.3355 12.7782 28.9847 12.6968 28.6028C12.6154 28.2209 12.6572 27.8251 12.8168 27.4653C12.9765 27.1056 13.2468 26.7981 13.5937 26.5818C13.9406 26.3655 14.3484 26.25 14.7656 26.25C15.3251 26.25 15.8616 26.4574 16.2572 26.8266C16.6528 27.1958 16.875 27.6966 16.875 28.2188ZM24.6094 28.2188C24.6094 28.6081 24.4857 28.9888 24.2539 29.3125C24.0221 29.6363 23.6927 29.8886 23.3072 30.0376C22.9218 30.1866 22.4977 30.2256 22.0885 30.1497C21.6793 30.0737 21.3034 29.8862 21.0084 29.6109C20.7134 29.3355 20.5125 28.9847 20.4312 28.6028C20.3498 28.2209 20.3915 27.8251 20.5512 27.4653C20.7108 27.1056 20.9812 26.7981 21.3281 26.5818C21.675 26.3655 22.0828 26.25 22.5 26.25C23.0594 26.25 23.596 26.4574 23.9916 26.8266C24.3871 27.1958 24.6094 27.6966 24.6094 28.2188ZM32.3438 28.2188C32.3438 28.6081 32.22 28.9888 31.9883 29.3125C31.7565 29.6363 31.427 29.8886 31.0416 30.0376C30.6562 30.1866 30.232 30.2256 29.8229 30.1497C29.4137 30.0737 29.0378 29.8862 28.7428 29.6109C28.4478 29.3355 28.2469 28.9847 28.1655 28.6028C28.0841 28.2209 28.1259 27.8251 28.2856 27.4653C28.4452 27.1056 28.7156 26.7981 29.0625 26.5818C29.4094 26.3655 29.8172 26.25 30.2344 26.25C30.7938 26.25 31.3303 26.4574 31.7259 26.8266C32.1215 27.1958 32.3438 27.6966 32.3438 28.2188Z" fill="#6B6B6B"/>
</svg>
