<svg width="51" height="40" viewBox="0 0 51 40" fill="none" xmlns="http://www.w3.org/2000/svg">
<path opacity="0.2" d="M41.4375 10H35.0625L31.875 6.25H19.125L15.9375 10H9.5625C8.71712 10 7.90637 10.2634 7.3086 10.7322C6.71082 11.2011 6.375 11.837 6.375 12.5V30C6.375 30.663 6.71082 31.2989 7.3086 31.7678C7.90637 32.2366 8.71712 32.5 9.5625 32.5H41.4375C42.2829 32.5 43.0936 32.2366 43.6914 31.7678C44.2892 31.2989 44.625 30.663 44.625 30V12.5C44.625 11.837 44.2892 11.2011 43.6914 10.7322C43.0936 10.2634 42.2829 10 41.4375 10ZM25.5 26.25C24.0815 26.25 22.6949 25.9201 21.5155 25.302C20.3361 24.6839 19.4169 23.8054 18.8741 22.7776C18.3312 21.7498 18.1892 20.6188 18.4659 19.5276C18.7427 18.4365 19.4257 17.4342 20.4287 16.6475C21.4317 15.8609 22.7096 15.3251 24.1008 15.1081C25.492 14.891 26.9341 15.0024 28.2446 15.4282C29.555 15.8539 30.6751 16.5749 31.4632 17.4999C32.2513 18.4249 32.6719 19.5125 32.6719 20.625C32.6719 22.1168 31.9163 23.5476 30.5713 24.6025C29.2263 25.6574 27.4021 26.25 25.5 26.25Z" fill="black"/>
</svg>
