<svg width="69" height="59" viewBox="0 0 69 59" fill="none" xmlns="http://www.w3.org/2000/svg">
<path d="M64.2647 0.925781H4.73529C3.47942 0.925781 2.27498 1.42018 1.38694 2.30022C0.498896 3.18026 0 4.37384 0 5.61841V53.8854C0 55.13 0.498896 56.3236 1.38694 57.2036C2.27498 58.0836 3.47942 58.578 4.73529 58.578H64.2647C65.5206 58.578 66.725 58.0836 67.6131 57.2036C68.5011 56.3236 69 55.13 69 53.8854V5.61841C69 4.37384 68.5011 3.18026 67.6131 2.30022C66.725 1.42018 65.5206 0.925781 64.2647 0.925781ZM4.73529 4.94803H64.2647C64.4441 4.94803 64.6162 5.01866 64.743 5.14438C64.8699 5.2701 64.9412 5.44061 64.9412 5.61841V17.0148H4.05882V5.61841C4.05882 5.44061 4.13009 5.2701 4.25696 5.14438C4.38382 5.01866 4.55588 4.94803 4.73529 4.94803ZM64.2647 54.5558H4.73529C4.55588 54.5558 4.38382 54.4852 4.25696 54.3594C4.13009 54.2337 4.05882 54.0632 4.05882 53.8854V21.037H64.9412V53.8854C64.9412 54.0632 64.8699 54.2337 64.743 54.3594C64.6162 54.4852 64.4441 54.5558 64.2647 54.5558Z" fill="black"/>
</svg>
