<svg width="45" height="40" viewBox="0 0 45 40" fill="none" xmlns="http://www.w3.org/2000/svg">
<path d="M39.375 7.5H5.625C5.25204 7.5 4.89435 7.6317 4.63063 7.86612C4.36691 8.10054 4.21875 8.41848 4.21875 8.75V30C4.21875 30.663 4.51507 31.2989 5.04251 31.7678C5.56996 32.2366 6.28533 32.5 7.03125 32.5H37.9688C38.7147 32.5 39.43 32.2366 39.9575 31.7678C40.4849 31.2989 40.7812 30.663 40.7812 30V8.75C40.7812 8.41848 40.6331 8.10054 40.3694 7.86612C40.1056 7.6317 39.748 7.5 39.375 7.5ZM22.5 20.8047L9.24082 10H35.7592L22.5 20.8047ZM17.3514 20L7.03125 28.4078V11.5922L17.3514 20ZM19.4326 21.6953L21.542 23.4219C21.8014 23.6336 22.1408 23.751 22.493 23.751C22.8451 23.751 23.1845 23.6336 23.4439 23.4219L25.5533 21.6953L35.7486 30H9.24082L19.4326 21.6953ZM27.6486 20L37.9688 11.5906V28.4094L27.6486 20Z" fill="#6B6B6B"/>
</svg>
