<svg width="52" height="52" viewBox="0 0 52 52" fill="none" xmlns="http://www.w3.org/2000/svg">
<path fill-rule="evenodd" clip-rule="evenodd" d="M43.334 6.875H41.1673V4.75C41.1673 3.58125 40.1923 2.625 39.0007 2.625C37.809 2.625 36.834 3.58125 36.834 4.75V6.875H15.1673V4.75C15.1673 3.58125 14.1923 2.625 13.0007 2.625C11.809 2.625 10.834 3.58125 10.834 4.75V6.875H8.66732C6.28398 6.875 4.33398 8.7875 4.33398 11.125V45.125C4.33398 47.4625 6.28398 49.375 8.66732 49.375H43.334C45.7173 49.375 47.6673 47.4625 47.6673 45.125V11.125C47.6673 8.7875 45.7173 6.875 43.334 6.875ZM41.1673 45.125H10.834C9.64232 45.125 8.66732 44.1688 8.66732 43V17.5H43.334V43C43.334 44.1688 42.359 45.125 41.1673 45.125Z" fill="#969696"/>
</svg>
