<svg width="34" height="36" viewBox="0 0 34 36" fill="none" xmlns="http://www.w3.org/2000/svg">
<path d="M31.1667 12H2.83333C2.08189 12 1.36122 12.3161 0.829864 12.8787C0.298511 13.4413 0 14.2044 0 15V33C0 33.7956 0.298511 34.5587 0.829864 35.1213C1.36122 35.6839 2.08189 36 2.83333 36H31.1667C31.9181 36 32.6388 35.6839 33.1701 35.1213C33.7015 34.5587 34 33.7956 34 33V15C34 14.2044 33.7015 13.4413 33.1701 12.8787C32.6388 12.3161 31.9181 12 31.1667 12ZM31.1667 33H2.83333V15H31.1667V33ZM2.83333 7.5C2.83333 7.10218 2.98259 6.72064 3.24827 6.43934C3.51394 6.15804 3.87428 6 4.25 6H29.75C30.1257 6 30.4861 6.15804 30.7517 6.43934C31.0174 6.72064 31.1667 7.10218 31.1667 7.5C31.1667 7.89782 31.0174 8.27936 30.7517 8.56066C30.4861 8.84196 30.1257 9 29.75 9H4.25C3.87428 9 3.51394 8.84196 3.24827 8.56066C2.98259 8.27936 2.83333 7.89782 2.83333 7.5ZM5.66667 1.5C5.66667 1.10218 5.81592 0.720644 6.0816 0.43934C6.34728 0.158035 6.70761 0 7.08333 0H26.9167C27.2924 0 27.6527 0.158035 27.9184 0.43934C28.1841 0.720644 28.3333 1.10218 28.3333 1.5C28.3333 1.89782 28.1841 2.27936 27.9184 2.56066C27.6527 2.84196 27.2924 3 26.9167 3H7.08333C6.70761 3 6.34728 2.84196 6.0816 2.56066C5.81592 2.27936 5.66667 1.89782 5.66667 1.5Z" fill="#969696"/>
</svg>
