<svg width="49" height="58" viewBox="0 0 49 58" fill="none" xmlns="http://www.w3.org/2000/svg">
<path d="M38.2812 30.8125C38.2812 31.2932 38.1199 31.7542 37.8328 32.0941C37.5456 32.434 37.1561 32.625 36.75 32.625H12.25C11.8439 32.625 11.4544 32.434 11.1672 32.0941C10.8801 31.7542 10.7188 31.2932 10.7188 30.8125C10.7188 30.3318 10.8801 29.8708 11.1672 29.5309C11.4544 29.191 11.8439 29 12.25 29H36.75C37.1561 29 37.5456 29.191 37.8328 29.5309C38.1199 29.8708 38.2812 30.3318 38.2812 30.8125ZM44.4062 18.125H4.59375C4.18764 18.125 3.79816 18.316 3.51099 18.6559C3.22383 18.9958 3.0625 19.4568 3.0625 19.9375C3.0625 20.4182 3.22383 20.8792 3.51099 21.2191C3.79816 21.559 4.18764 21.75 4.59375 21.75H44.4062C44.8124 21.75 45.2018 21.559 45.489 21.2191C45.7762 20.8792 45.9375 20.4182 45.9375 19.9375C45.9375 19.4568 45.7762 18.9958 45.489 18.6559C45.2018 18.316 44.8124 18.125 44.4062 18.125ZM29.0938 39.875H19.9062C19.5001 39.875 19.1107 40.066 18.8235 40.4059C18.5363 40.7458 18.375 41.2068 18.375 41.6875C18.375 42.1682 18.5363 42.6292 18.8235 42.9691C19.1107 43.309 19.5001 43.5 19.9062 43.5H29.0938C29.4999 43.5 29.8893 43.309 30.1765 42.9691C30.4637 42.6292 30.625 42.1682 30.625 41.6875C30.625 41.2068 30.4637 40.7458 30.1765 40.4059C29.8893 40.066 29.4999 39.875 29.0938 39.875Z" fill="#969696"/>
</svg>
