<svg width="42" height="41" viewBox="0 0 42 41" fill="none" xmlns="http://www.w3.org/2000/svg">
<path d="M32.8125 35.875H24.698C26.0611 34.6868 27.3466 33.4164 28.5469 32.0713C33.0504 27.0152 35.4375 21.6852 35.4375 16.6562C35.4375 12.9184 33.9164 9.33355 31.2089 6.69046C28.5013 4.04737 24.8291 2.5625 21 2.5625C17.1709 2.5625 13.4987 4.04737 10.7911 6.69046C8.08359 9.33355 6.5625 12.9184 6.5625 16.6562C6.5625 21.6852 8.94305 27.0152 13.4531 32.0713C14.6534 33.4164 15.9389 34.6868 17.302 35.875H9.1875C8.8394 35.875 8.50556 36.01 8.25942 36.2503C8.01328 36.4906 7.875 36.8164 7.875 37.1562C7.875 37.4961 8.01328 37.8219 8.25942 38.0622C8.50556 38.3025 8.8394 38.4375 9.1875 38.4375H32.8125C33.1606 38.4375 33.4944 38.3025 33.7406 38.0622C33.9867 37.8219 34.125 37.4961 34.125 37.1562C34.125 36.8164 33.9867 36.4906 33.7406 36.2503C33.4944 36.01 33.1606 35.875 32.8125 35.875ZM9.1875 16.6562C9.1875 13.598 10.432 10.665 12.6473 8.50242C14.8626 6.3399 17.8671 5.125 21 5.125C24.1329 5.125 27.1374 6.3399 29.3527 8.50242C31.568 10.665 32.8125 13.598 32.8125 16.6562C32.8125 25.822 23.712 33.4727 21 35.5547C18.288 33.4727 9.1875 25.822 9.1875 16.6562ZM27.5625 16.6562C27.5625 15.3892 27.1776 14.1506 26.4565 13.0971C25.7354 12.0436 24.7105 11.2225 23.5114 10.7376C22.3122 10.2528 20.9927 10.1259 19.7197 10.3731C18.4467 10.6203 17.2774 11.2304 16.3596 12.1263C15.4418 13.0223 14.8168 14.1638 14.5636 15.4065C14.3104 16.6491 14.4403 17.9372 14.937 19.1078C15.4337 20.2784 16.2749 21.2789 17.3541 21.9829C18.4333 22.6868 19.7021 23.0625 21 23.0625C22.7405 23.0625 24.4097 22.3876 25.6404 21.1862C26.8711 19.9847 27.5625 18.3553 27.5625 16.6562ZM17.0625 16.6562C17.0625 15.896 17.2934 15.1529 17.7261 14.5208C18.1587 13.8887 18.7737 13.396 19.4932 13.1051C20.2127 12.8142 21.0044 12.738 21.7682 12.8864C22.532 13.0347 23.2336 13.4008 23.7842 13.9383C24.3349 14.4759 24.7099 15.1608 24.8618 15.9064C25.0138 16.652 24.9358 17.4248 24.6378 18.1272C24.3398 18.8295 23.8351 19.4299 23.1876 19.8522C22.54 20.2746 21.7788 20.5 21 20.5C19.9557 20.5 18.9542 20.095 18.2158 19.3742C17.4773 18.6533 17.0625 17.6757 17.0625 16.6562Z" fill="#6B6B6B"/>
</svg>
