<svg width="66" height="69" viewBox="0 0 66 69" fill="none" xmlns="http://www.w3.org/2000/svg">
<path d="M61.0851 23.4643H49.1489V15.1533C49.1489 11.2535 47.4475 7.5135 44.419 4.75595C41.3905 1.99839 37.283 0.449219 33 0.449219C28.717 0.449219 24.6095 1.99839 21.581 4.75595C18.5525 7.5135 16.8511 11.2535 16.8511 15.1533V23.4643H4.91489C3.61138 23.4643 2.36126 23.9358 1.43954 24.7751C0.517818 25.6143 0 26.7526 0 27.9395V63.7407C0 64.9276 0.517818 66.0659 1.43954 66.9052C2.36126 67.7444 3.61138 68.2159 4.91489 68.2159H61.0851C62.3886 68.2159 63.6387 67.7444 64.5605 66.9052C65.4822 66.0659 66 64.9276 66 63.7407V27.9395C66 26.7526 65.4822 25.6143 64.5605 24.7751C63.6387 23.9358 62.3886 23.4643 61.0851 23.4643ZM21.0638 15.1533C21.0638 12.2709 22.3214 9.50649 24.5599 7.4683C26.7983 5.43011 29.8343 4.28507 33 4.28507C36.1657 4.28507 39.2017 5.43011 41.4401 7.4683C43.6786 9.50649 44.9362 12.2709 44.9362 15.1533V23.4643H21.0638V15.1533ZM61.7872 63.7407C61.7872 63.9103 61.7133 64.0729 61.5816 64.1928C61.4499 64.3127 61.2713 64.38 61.0851 64.38H4.91489C4.72868 64.38 4.55009 64.3127 4.41841 64.1928C4.28674 64.0729 4.21277 63.9103 4.21277 63.7407V27.9395C4.21277 27.7699 4.28674 27.6073 4.41841 27.4874C4.55009 27.3675 4.72868 27.3002 4.91489 27.3002H61.0851C61.2713 27.3002 61.4499 27.3675 61.5816 27.4874C61.7133 27.6073 61.7872 27.7699 61.7872 27.9395V63.7407ZM33 33.6932C30.7649 33.6959 28.6086 34.4453 26.9399 35.7991C25.2711 37.153 24.2059 39.0173 23.9463 41.0386C23.6866 43.0599 24.2504 45.0977 25.5309 46.7657C26.8114 48.4337 28.7196 49.616 30.8936 50.0883V56.069C30.8936 56.5777 31.1155 57.0655 31.5106 57.4252C31.9056 57.7849 32.4414 57.987 33 57.987C33.5586 57.987 34.0944 57.7849 34.4894 57.4252C34.8845 57.0655 35.1064 56.5777 35.1064 56.069V50.0883C37.2804 49.616 39.1886 48.4337 40.4691 46.7657C41.7496 45.0977 42.3134 43.0599 42.0537 41.0386C41.794 39.0173 40.7289 37.153 39.0601 35.7991C37.3914 34.4453 35.2351 33.6959 33 33.6932ZM33 46.4794C32.0279 46.4794 31.0777 46.217 30.2694 45.7252C29.4612 45.2335 28.8312 44.5346 28.4592 43.7168C28.0872 42.8991 27.9899 41.9993 28.1795 41.1312C28.3692 40.2631 28.8373 39.4657 29.5246 38.8398C30.212 38.214 31.0878 37.7878 32.0412 37.6151C32.9945 37.4424 33.9828 37.531 34.8808 37.8698C35.7789 38.2085 36.5465 38.7821 37.0866 39.518C37.6266 40.2539 37.9149 41.1192 37.9149 42.0043C37.9149 43.1911 37.3971 44.3294 36.4754 45.1687C35.5536 46.0079 34.3035 46.4794 33 46.4794Z" fill="black"/>
</svg>
