<svg width="47" height="46" viewBox="0 0 47 46" fill="none" xmlns="http://www.w3.org/2000/svg">
<g clip-path="url(#clip0_491_11314)">
<path d="M19.5833 23.0013C23.9113 23.0013 27.4167 19.5705 27.4167 15.3346C27.4167 11.0988 23.9113 7.66797 19.5833 7.66797C15.2554 7.66797 11.75 11.0988 11.75 15.3346C11.75 19.5705 15.2554 23.0013 19.5833 23.0013ZM19.5833 11.5013C21.7375 11.5013 23.5 13.2263 23.5 15.3346C23.5 17.443 21.7375 19.168 19.5833 19.168C17.4292 19.168 15.6667 17.443 15.6667 15.3346C15.6667 13.2263 17.4292 11.5013 19.5833 11.5013Z" fill="#6B6B6B"/>
<path d="M7.83317 34.5011C8.264 33.1211 14.3153 30.6678 19.5832 30.6678C19.5832 29.3261 19.8378 28.0419 20.2686 26.8536C14.9223 26.6619 3.9165 29.2686 3.9165 34.5011V38.3344H22.599C21.5807 37.2228 20.7778 35.9386 20.2686 34.5011H7.83317Z" fill="#6B6B6B"/>
<path d="M38.0504 34.5383C38.7554 33.4075 39.1667 32.085 39.1667 30.6667C39.1667 26.4308 35.6613 23 31.3333 23C27.0054 23 23.5 26.4308 23.5 30.6667C23.5 34.9025 27.0054 38.3333 31.3333 38.3333C32.7825 38.3333 34.1338 37.9117 35.2892 37.2408C37.1104 39.0233 38.4617 40.3458 40.3221 42.1667L43.0833 39.4642C40.1458 36.5892 41.5363 37.9308 38.0504 34.5383ZM31.3333 34.5C29.1792 34.5 27.4167 32.775 27.4167 30.6667C27.4167 28.5583 29.1792 26.8333 31.3333 26.8333C33.4875 26.8333 35.25 28.5583 35.25 30.6667C35.25 32.775 33.4875 34.5 31.3333 34.5Z" fill="#6B6B6B"/>
</g>
<defs>
<clipPath id="clip0_491_11314">
<rect width="47" height="46" fill="white"/>
</clipPath>
</defs>
</svg>
