<svg width="66" height="64" viewBox="0 0 66 64" fill="none" xmlns="http://www.w3.org/2000/svg">
<path d="M65.6974 60.3807C60.5887 51.6504 52.5687 45.5246 43.2496 42.9266C47.7804 40.6489 51.4034 36.9286 53.5345 32.3655C55.6657 27.8024 56.1807 22.6625 54.9966 17.7745C53.8124 12.8865 50.9981 8.5354 47.0075 5.42271C43.0169 2.31001 38.0825 0.617187 33 0.617188C27.9175 0.617188 22.9831 2.31001 18.9925 5.42271C15.0019 8.5354 12.1876 12.8865 11.0035 17.7745C9.81932 22.6625 10.3343 27.8024 12.4655 32.3655C14.5966 36.9286 18.2196 40.6489 22.7504 42.9266C13.4313 45.5214 5.41128 51.6473 0.302611 60.3807C0.162334 60.5989 0.0681428 60.843 0.0257049 61.0981C-0.0167331 61.3533 -0.00654051 61.6143 0.0556685 61.8655C0.117877 62.1166 0.230817 62.3528 0.387694 62.5596C0.544571 62.7665 0.742143 62.9399 0.968524 63.0693C1.19491 63.1987 1.44542 63.2815 1.70499 63.3127C1.96456 63.3438 2.22783 63.3228 2.47895 63.2507C2.73008 63.1787 2.96387 63.0571 3.16627 62.8934C3.36867 62.7297 3.53548 62.5272 3.65669 62.298C9.86399 51.692 20.831 45.3616 33 45.3616C45.169 45.3616 56.136 51.692 62.3433 62.298C62.4645 62.5272 62.6313 62.7297 62.8337 62.8934C63.0361 63.0571 63.2699 63.1787 63.521 63.2507C63.7722 63.3228 64.0354 63.3438 64.295 63.3127C64.5546 63.2815 64.8051 63.1987 65.0315 63.0693C65.2579 62.9399 65.4554 62.7665 65.6123 62.5596C65.7692 62.3528 65.8821 62.1166 65.9443 61.8655C66.0065 61.6143 66.0167 61.3533 65.9743 61.0981C65.9319 60.843 65.8377 60.5989 65.6974 60.3807ZM14.2585 22.9927C14.2585 19.327 15.3577 15.7436 17.417 12.6956C19.4764 9.64768 22.4034 7.2721 25.828 5.86929C29.2525 4.46648 33.0208 4.09944 36.6563 4.81459C40.2918 5.52973 43.6312 7.29495 46.2522 9.88701C48.8733 12.4791 50.6582 15.7815 51.3814 19.3768C52.1045 22.9721 51.7334 26.6987 50.3149 30.0854C48.8964 33.4721 46.4942 36.3668 43.4122 38.4033C40.3302 40.4399 36.7067 41.5269 33 41.5269C28.0313 41.521 23.2678 39.5664 19.7544 36.0918C16.241 32.6173 14.2645 27.9065 14.2585 22.9927Z" fill="black"/>
</svg>
