<svg width="65" height="61" viewBox="0 0 65 61" fill="none" xmlns="http://www.w3.org/2000/svg">
<path d="M55.6842 17.1563L46.7188 8.74256C46.3429 8.38699 45.8954 8.10509 45.4025 7.91324C44.9095 7.72139 44.3808 7.62342 43.8471 7.62502H12.1875C11.1101 7.62502 10.0767 8.02669 9.31488 8.74167C8.55301 9.45666 8.125 10.4264 8.125 11.4375V49.5625C8.125 50.5737 8.55301 51.5434 9.31488 52.2584C10.0767 52.9733 11.1101 53.375 12.1875 53.375H52.8125C53.8899 53.375 54.9233 52.9733 55.6851 52.2584C56.447 51.5434 56.875 50.5737 56.875 49.5625V19.8512C56.8767 19.3504 56.7723 18.8542 56.5679 18.3916C56.3634 17.9289 56.0631 17.509 55.6842 17.1563ZM42.6562 49.5625H22.3438V36.2188H42.6562V49.5625ZM52.8125 49.5625H46.7188V36.2188C46.7188 35.2076 46.2907 34.2379 45.5289 33.5229C44.767 32.8079 43.7337 32.4063 42.6562 32.4063H22.3438C21.2663 32.4063 20.233 32.8079 19.4711 33.5229C18.7093 34.2379 18.2812 35.2076 18.2812 36.2188V49.5625H12.1875V11.4375H43.8471L52.8125 19.8512V49.5625ZM40.625 17.1563C40.625 17.6618 40.411 18.1467 40.0301 18.5042C39.6491 18.8617 39.1325 19.0625 38.5938 19.0625H24.375C23.8363 19.0625 23.3196 18.8617 22.9387 18.5042C22.5578 18.1467 22.3438 17.6618 22.3438 17.1563C22.3438 16.6507 22.5578 16.1658 22.9387 15.8083C23.3196 15.4509 23.8363 15.25 24.375 15.25H38.5938C39.1325 15.25 39.6491 15.4509 40.0301 15.8083C40.411 16.1658 40.625 16.6507 40.625 17.1563Z" fill="white"/>
</svg>
