<svg width="85" height="82" viewBox="0 0 85 82" fill="none" xmlns="http://www.w3.org/2000/svg">
<path d="M39.1797 69.1875C39.1797 69.6972 38.9698 70.1861 38.5962 70.5465C38.2226 70.9069 37.7159 71.1094 37.1875 71.1094H15.9375C15.4091 71.1094 14.9024 70.9069 14.5288 70.5465C14.1552 70.1861 13.9453 69.6972 13.9453 69.1875V12.8125C13.9453 12.3028 14.1552 11.814 14.5288 11.4535C14.9024 11.0931 15.4091 10.8906 15.9375 10.8906H37.1875C37.7159 10.8906 38.2226 11.0931 38.5962 11.4535C38.9698 11.814 39.1797 12.3028 39.1797 12.8125C39.1797 13.3222 38.9698 13.811 38.5962 14.1715C38.2226 14.5319 37.7159 14.7344 37.1875 14.7344H17.9297V67.2656H37.1875C37.7159 67.2656 38.2226 67.4681 38.5962 67.8285C38.9698 68.1889 39.1797 68.6778 39.1797 69.1875ZM75.7828 39.6419L62.5016 26.8294C62.1239 26.4899 61.6244 26.3051 61.1083 26.3139C60.5922 26.3226 60.0998 26.5243 59.7348 26.8765C59.3698 27.2286 59.1607 27.7036 59.1516 28.2015C59.1425 28.6994 59.334 29.1813 59.6859 29.5456L69.5639 39.0781H37.1875C36.6591 39.0781 36.1524 39.2806 35.7788 39.641C35.4052 40.0015 35.1953 40.4903 35.1953 41C35.1953 41.5097 35.4052 41.9986 35.7788 42.359C36.1524 42.7194 36.6591 42.9219 37.1875 42.9219H69.5639L59.6859 52.4544C59.4902 52.6303 59.3332 52.8425 59.2243 53.0782C59.1154 53.314 59.0569 53.5685 59.0522 53.8265C59.0475 54.0846 59.0967 54.3409 59.1969 54.5802C59.2971 54.8195 59.4462 55.0369 59.6354 55.2194C59.8245 55.4019 60.0499 55.5458 60.2979 55.6424C60.546 55.7391 60.8117 55.7866 61.0792 55.782C61.3467 55.7775 61.6105 55.721 61.8549 55.6159C62.0992 55.5109 62.3192 55.3594 62.5016 55.1706L75.7828 42.3581C76.1559 41.9978 76.3654 41.5093 76.3654 41C76.3654 40.4907 76.1559 40.0022 75.7828 39.6419Z" fill="black"/>
</svg>
