<svg width="32" height="31" viewBox="0 0 32 31" fill="none" xmlns="http://www.w3.org/2000/svg">
<path d="M32 11.5426C32 11.8049 31.8924 12.0566 31.7009 12.2421C31.5093 12.4277 31.2496 12.5319 30.9787 12.5319C30.7079 12.5319 30.4481 12.4277 30.2566 12.2421C30.065 12.0566 29.9574 11.8049 29.9574 11.5426V3.37867L18.0851 14.88C17.8915 15.0548 17.6354 15.1499 17.3709 15.1454C17.1063 15.1409 16.8538 15.037 16.6667 14.8558C16.4796 14.6745 16.3724 14.4299 16.3678 14.1736C16.3631 13.9173 16.4613 13.6693 16.6417 13.4817L28.5123 1.97872H20.0851C19.8142 1.97872 19.5545 1.87449 19.363 1.68895C19.1714 1.5034 19.0638 1.25176 19.0638 0.989362C19.0638 0.726967 19.1714 0.475319 19.363 0.289777C19.5545 0.104236 19.8142 0 20.0851 0H30.9787C31.2496 0 31.5093 0.104236 31.7009 0.289777C31.8924 0.475319 32 0.726967 32 0.989362V11.5426ZM25.5319 15.8298C25.2611 15.8298 25.0013 15.934 24.8098 16.1196C24.6182 16.3051 24.5106 16.5568 24.5106 16.8191V28.6915C24.5106 28.779 24.4748 28.8628 24.4109 28.9247C24.3471 28.9865 24.2605 29.0213 24.1702 29.0213H2.38298C2.29269 29.0213 2.2061 28.9865 2.14226 28.9247C2.07842 28.8628 2.04255 28.779 2.04255 28.6915V7.58511C2.04255 7.49764 2.07842 7.41376 2.14226 7.35191C2.2061 7.29006 2.29269 7.25532 2.38298 7.25532H14.6383C14.9092 7.25532 15.1689 7.15108 15.3604 6.96554C15.552 6.78 15.6596 6.52835 15.6596 6.26596C15.6596 6.00356 15.552 5.75192 15.3604 5.56637C15.1689 5.38083 14.9092 5.2766 14.6383 5.2766H2.38298C1.75097 5.2766 1.14485 5.51981 0.697958 5.95274C0.251063 6.38567 0 6.97285 0 7.58511V28.6915C0 29.3037 0.251063 29.8909 0.697958 30.3239C1.14485 30.7568 1.75097 31 2.38298 31H24.1702C24.8022 31 25.4083 30.7568 25.8552 30.3239C26.3021 29.8909 26.5532 29.3037 26.5532 28.6915V16.8191C26.5532 16.5568 26.4456 16.3051 26.2541 16.1196C26.0625 15.934 25.8028 15.8298 25.5319 15.8298Z" fill="#585757"/>
</svg>
