<svg width="71" height="68" viewBox="0 0 71 68" fill="none" xmlns="http://www.w3.org/2000/svg">
<path d="M61.5703 27.625C61.5703 28.0477 61.395 28.4531 61.0829 28.752C60.7708 29.0508 60.3476 29.2188 59.9062 29.2188C59.4649 29.2188 59.0417 29.0508 58.7296 28.752C58.4175 28.4531 58.2422 28.0477 58.2422 27.625V14.4739L38.8975 33.0012C38.582 33.2828 38.1648 33.436 37.7337 33.4287C37.3026 33.4215 36.8912 33.2542 36.5864 32.9622C36.2815 32.6702 36.1068 32.2762 36.0992 31.8634C36.0916 31.4505 36.2516 31.0509 36.5456 30.7488L55.8875 12.2188H42.1562C41.7149 12.2188 41.2917 12.0508 40.9796 11.752C40.6675 11.4531 40.4922 11.0477 40.4922 10.625C40.4922 10.2023 40.6675 9.79693 40.9796 9.49805C41.2917 9.19916 41.7149 9.03125 42.1562 9.03125H59.9062C60.3476 9.03125 60.7708 9.19916 61.0829 9.49805C61.395 9.79693 61.5703 10.2023 61.5703 10.625V27.625ZM51.0312 34.5312C50.5899 34.5312 50.1667 34.6992 49.8546 34.998C49.5425 35.2969 49.3672 35.7023 49.3672 36.125V55.25C49.3672 55.3909 49.3087 55.526 49.2047 55.6257C49.1007 55.7253 48.9596 55.7812 48.8125 55.7812H13.3125C13.1654 55.7812 13.0243 55.7253 12.9203 55.6257C12.8163 55.526 12.7578 55.3909 12.7578 55.25V21.25C12.7578 21.1091 12.8163 20.974 12.9203 20.8743C13.0243 20.7747 13.1654 20.7188 13.3125 20.7188H33.2812C33.7226 20.7188 34.1458 20.5508 34.4579 20.252C34.77 19.9531 34.9453 19.5477 34.9453 19.125C34.9453 18.7023 34.77 18.2969 34.4579 17.998C34.1458 17.6992 33.7226 17.5312 33.2812 17.5312H13.3125C12.2827 17.5312 11.2951 17.923 10.5669 18.6204C9.83877 19.3178 9.42969 20.2637 9.42969 21.25V55.25C9.42969 56.2363 9.83877 57.1822 10.5669 57.8796C11.2951 58.577 12.2827 58.9688 13.3125 58.9688H48.8125C49.8423 58.9688 50.8299 58.577 51.5581 57.8796C52.2862 57.1822 52.6953 56.2363 52.6953 55.25V36.125C52.6953 35.7023 52.52 35.2969 52.2079 34.998C51.8958 34.6992 51.4726 34.5312 51.0312 34.5312Z" fill="white"/>
</svg>
