<svg width="35" height="32" viewBox="0 0 35 32" fill="none" xmlns="http://www.w3.org/2000/svg">
<path d="M13.6109 23.9996C13.6109 24.4885 13.1734 24.8885 12.6387 24.8885C12.1039 24.8885 11.6664 24.4885 11.6664 23.9996V12.444C11.6664 11.9551 12.1039 11.5551 12.6387 11.5551C13.1734 11.5551 13.6109 11.9551 13.6109 12.444V23.9996ZM18.472 23.9996C18.472 24.4885 18.0345 24.8885 17.4998 24.8885C16.9651 24.8885 16.5276 24.4885 16.5276 23.9996V12.444C16.5276 11.9551 16.9651 11.5551 17.4998 11.5551C18.0345 11.5551 18.472 11.9551 18.472 12.444V23.9996ZM23.3331 23.9996C23.3331 24.4885 22.8956 24.8885 22.3609 24.8885C21.8262 24.8885 21.3887 24.4885 21.3887 23.9996V12.444C21.3887 11.9551 21.8262 11.5551 22.3609 11.5551C22.8956 11.5551 23.3331 11.9551 23.3331 12.444V23.9996ZM23.1812 3.1629L25.4112 6.22179H29.6526C30.4607 6.22179 31.1109 6.81901 31.1109 7.55512C31.1109 8.29401 30.4607 8.88845 29.6526 8.88845H29.1664V25.7773C29.1664 28.2329 26.9911 30.2218 24.3053 30.2218H10.6942C8.00968 30.2218 5.83312 28.2329 5.83312 25.7773V8.88845H5.34701C4.54188 8.88845 3.88867 8.29401 3.88867 7.55512C3.88867 6.81901 4.54188 6.22179 5.34701 6.22179H9.58954L11.8184 3.1629C12.4503 2.29718 13.5137 1.77734 14.65 1.77734H20.3496C21.4859 1.77734 22.5493 2.29723 23.1812 3.1629ZM13.0944 6.22179H21.9052L20.7507 4.64179C20.6595 4.51846 20.5076 4.44401 20.3496 4.44401H14.65C14.492 4.44401 14.2854 4.51846 14.2489 4.64179L13.0944 6.22179ZM8.74978 25.7773C8.74978 26.7607 9.62053 27.5551 10.6942 27.5551H24.3053C25.3809 27.5551 26.2498 26.7607 26.2498 25.7773V8.88845H8.74978V25.7773Z" fill="#585757"/>
</svg>
