<svg width="111" height="69" viewBox="0 0 111 69" fill="none" xmlns="http://www.w3.org/2000/svg">
<path d="M111 55.0688C111 62.7618 103.272 69 93.7351 69H0V13.9332C0 6.23818 7.72782 0 17.2665 0H110.999L110.999 55.0686L111 55.0688Z" fill="white"/>
<path d="M80.4416 35.7098C83.119 35.7568 85.8115 35.6144 88.478 35.7838C91.1785 36.1903 91.8294 39.4889 89.4302 40.5693C87.7932 41.281 85.8486 40.8344 84.0739 40.9599H80.4416V35.7098V35.7098ZM90.0261 29.7674C90.6209 31.4615 88.5969 32.9825 86.5748 32.7492H80.4416C80.4847 31.1517 80.3575 29.4177 80.5039 27.9042C82.9609 27.96 85.4405 27.7903 87.8833 27.9929C88.9328 28.2057 89.8112 28.9019 90.0261 29.7674V29.7674ZM104.786 4.64465C104.9 7.87992 104.803 11.2862 104.836 14.5871C104.828 28.0073 104.852 41.4272 104.823 54.8482C104.715 59.8778 99.1906 64.2481 93.0004 64.3485C86.8042 64.3688 80.607 64.3516 74.4099 64.3572V44.0685C81.1619 44.0404 87.9174 44.1257 94.6667 44.026C97.7977 43.8674 101.227 42.2005 101.373 39.4204C101.742 36.6282 98.479 34.697 95.3815 34.3919C94.1908 34.367 94.2256 34.1119 95.3815 34.0006C98.3358 33.4854 100.656 31.0182 99.7865 28.5473C99.0458 25.9485 95.486 24.9427 92.525 24.9477C86.4875 24.9146 80.449 24.9431 74.4113 24.9335C74.4502 21.1458 74.33 17.3541 74.4761 13.5692C74.9545 8.63046 80.6178 4.55758 86.721 4.64594C92.7436 4.6452 98.7652 4.6452 104.786 4.64502V4.64465Z" fill="url(#paint0_linear_642_7452)"/>
<path d="M6.18403 14.0817C6.33822 9.06008 11.8861 4.72561 18.0683 4.65222C24.2417 4.63688 30.4159 4.65001 36.5892 4.64557C36.5723 21.4468 36.6227 38.2498 36.5638 55.0501C36.326 60.0107 30.8386 64.2625 24.7237 64.3503C18.5387 64.3684 12.353 64.3529 6.16776 64.3579V43.3853C12.1757 44.5305 18.4759 45.018 24.605 44.2584C28.2687 43.7827 32.2772 42.331 33.5176 39.2642C34.4303 36.6408 33.9164 33.8799 34.0523 31.1873V24.9344H23.4453C23.3976 29.0699 23.5429 33.2127 23.3685 37.3433C23.0826 39.8822 19.9665 41.4953 16.9989 41.4091C13.3185 41.4405 6.02526 39.2569 6.02526 39.2569C6.00693 31.5086 6.13202 21.805 6.18403 14.0824V14.0817Z" fill="url(#paint1_linear_642_7452)"/>
<path d="M40.5459 27.4575C39.9876 27.553 40.4336 25.9229 40.2909 25.3046C40.3289 21.3947 40.2114 17.4806 40.3558 13.5736C40.8328 8.6139 46.5396 4.53085 52.6675 4.64695H70.7138C70.6968 21.4481 70.747 38.2512 70.6883 55.0515C70.4503 60.0121 64.9625 64.2637 58.8474 64.3517C52.6622 64.3706 46.4763 64.3547 40.2907 64.3595V41.3811C44.5152 44.1779 50.2568 44.6132 55.5199 44.6208C59.4875 44.6197 63.4321 44.1261 67.2852 43.3878V39.1781C62.9429 40.9243 57.8384 42.0335 53.0249 41.0302C49.6671 40.3559 47.2296 37.7375 47.2839 34.9414C46.8949 32.0337 49.0073 28.9639 52.5486 28.0995C56.9454 26.9888 61.7374 27.8383 65.8588 29.2822C66.7417 29.6553 67.638 30.118 67.2849 28.9271V25.6183C60.392 24.295 53.0565 23.8081 46.1315 25.2476C44.1271 25.7039 42.1742 26.3958 40.5459 27.4578V27.4575Z" fill="url(#paint2_linear_642_7452)"/>
<defs>
<linearGradient id="paint0_linear_642_7452" x1="74.2022" y1="33.2242" x2="104.644" y2="33.2242" gradientUnits="userSpaceOnUse">
<stop stop-color="#007B40"/>
<stop offset="1" stop-color="#55B330"/>
</linearGradient>
<linearGradient id="paint1_linear_642_7452" x1="5.52051" y1="35.0736" x2="36.0904" y2="35.0736" gradientUnits="userSpaceOnUse">
<stop stop-color="#1D2970"/>
<stop offset="1" stop-color="#006DBA"/>
</linearGradient>
<linearGradient id="paint2_linear_642_7452" x1="40.2461" y1="33.8049" x2="70.7081" y2="33.8049" gradientUnits="userSpaceOnUse">
<stop stop-color="#6E2B2F"/>
<stop offset="1" stop-color="#E30138"/>
</linearGradient>
</defs>
</svg>
