<svg width="105" height="68" viewBox="0 0 105 68" fill="none" xmlns="http://www.w3.org/2000/svg">
<path d="M105.001 34C105.001 52.6564 90.9595 68 73.5291 68C56.2602 68 42.0576 52.6564 42.0576 34C42.0576 15.3436 56.0988 0 73.3678 0C90.9595 0 105.001 15.3436 105.001 34Z" fill="#F9B50B"/>
<path d="M62.8764 34.1744C62.8764 31.7333 62.5536 29.2923 62.2308 27.0256H42.8637C43.0251 25.8051 43.3479 24.759 43.6707 23.3641H60.9397C60.6169 22.1436 60.1327 20.9231 59.6486 19.7026H44.9618C45.446 18.4821 46.0916 17.4359 46.7372 16.041H57.8732C57.2277 14.8205 56.4207 13.6 55.4523 12.3795H49.3194C50.2878 11.159 51.2561 10.1128 52.5473 8.89231C47.0599 3.31282 39.6359 0 31.4049 0C14.2973 0.523077 0.0947266 15.3436 0.0947266 34C0.0947266 52.6564 14.1359 68 31.5663 68C39.7973 68 47.0599 64.5128 52.7087 59.1077C53.8384 58.0615 54.8068 56.841 55.9365 55.4462H49.4808C48.6739 54.4 47.8669 53.1795 47.2213 51.959H58.196C58.8416 50.9128 59.4872 49.6923 59.9713 48.2974H45.2846C44.8004 47.2513 44.3163 46.0308 43.9935 44.6359H61.2625C62.2308 41.4974 62.8764 38.0103 62.8764 34.1744Z" fill="#C8191C"/>
<path d="M42.7031 42.7182L43.1873 39.5798C43.0259 39.5798 42.7031 39.7541 42.3803 39.7541C41.2506 39.7541 41.0892 39.0567 41.2506 38.708L42.2189 32.4311H43.9942L44.4784 28.9439H42.8645L43.1873 26.8516H39.798C39.798 26.8516 37.8613 38.708 37.8613 40.1028C37.8613 42.1952 38.9911 43.2413 40.605 43.2413C41.5734 43.2413 42.3803 42.8926 42.7031 42.7182Z" fill="white"/>
<path d="M43.832 36.9626C43.832 42.019 47.0599 43.2395 49.6422 43.2395C52.063 43.2395 53.1928 42.7165 53.1928 42.7165L53.8384 39.2293C53.8384 39.2293 52.063 40.1011 50.2877 40.1011C46.5757 40.1011 47.2213 37.137 47.2213 37.137H53.9998C53.9998 37.137 54.4839 34.8703 54.4839 33.8241C54.4839 31.5575 53.3542 28.5934 49.6422 28.5934C46.4143 28.419 43.832 32.4293 43.832 36.9626ZM49.6422 31.7318C51.4175 31.7318 51.0947 33.9985 51.0947 34.1729H47.3827C47.5441 33.9985 47.8668 31.7318 49.6422 31.7318Z" fill="white"/>
<path d="M70.7843 42.7177L71.4299 38.7074C71.4299 38.7074 69.816 39.5792 68.5248 39.5792C66.2653 39.5792 65.1356 37.6613 65.1356 35.3946C65.1356 31.0356 67.0723 28.769 69.4932 28.769C71.1071 28.769 72.5597 29.8151 72.5597 29.8151L73.0438 25.9792C73.0438 25.9792 71.1071 25.1074 69.1704 25.1074C65.297 25.1074 61.585 28.769 61.585 35.569C61.585 40.1023 63.5217 43.0664 67.5565 43.0664C69.009 43.2408 70.7843 42.7177 70.7843 42.7177Z" fill="white"/>
<path d="M24.4662 28.4219C22.2067 28.4219 20.4314 29.1193 20.4314 29.1193L19.9472 32.2578C19.9472 32.2578 21.3997 31.5603 23.6592 31.5603C24.789 31.5603 25.7573 31.7347 25.7573 32.7808C25.7573 33.4783 25.5959 33.6526 25.5959 33.6526H24.1434C21.2383 33.6526 18.1719 34.8732 18.1719 39.0578C18.1719 42.3706 20.1086 43.068 21.3997 43.068C23.6592 43.068 24.789 41.4988 24.9504 41.4988L24.789 42.8937H27.5326L28.8238 32.9552C28.8238 28.5962 25.5959 28.4219 24.4662 28.4219ZM25.1118 36.4424C25.1118 36.9655 24.789 39.9296 22.8523 39.9296C21.8839 39.9296 21.5611 39.0578 21.5611 38.5347C21.5611 37.6629 22.0453 36.4424 24.6276 36.4424C24.9504 36.4424 25.1118 36.4424 25.1118 36.4424Z" fill="white"/>
<path d="M32.0504 43.0647C32.8574 43.0647 37.0536 43.239 37.0536 38.357C37.0536 33.8236 33.0188 34.6954 33.0188 32.9518C33.0188 32.08 33.6644 31.7313 34.7941 31.7313C35.2783 31.7313 37.0536 31.9057 37.0536 31.9057L37.5378 28.5929C37.5378 28.5929 36.408 28.2441 34.3099 28.2441C31.889 28.2441 29.3068 29.2903 29.3068 32.9518C29.3068 37.1364 33.503 36.7877 33.503 38.357C33.503 39.4031 32.3732 39.5775 31.5663 39.5775C30.1137 39.5775 28.4998 39.0544 28.4998 39.0544L28.0156 42.3672C28.3384 42.7159 29.3068 43.0647 32.0504 43.0647Z" fill="white"/>
<path d="M98.5427 25.6289L97.8971 30.511C97.8971 30.511 96.606 28.7674 94.6692 28.7674C91.6028 28.7674 89.0205 32.7776 89.0205 37.4853C89.0205 40.4494 90.3117 43.4135 93.2167 43.4135C95.1534 43.4135 96.4446 42.0187 96.4446 42.0187L96.2832 43.2392H99.6724L102.093 25.9776L98.5427 25.6289ZM96.9287 35.0443C96.9287 36.9622 96.1218 39.5776 94.1851 39.5776C93.0553 39.5776 92.4098 38.5315 92.4098 36.6135C92.4098 33.6494 93.5395 31.9058 95.1534 31.9058C96.2832 32.0802 96.9287 32.952 96.9287 35.0443Z" fill="white"/>
<path d="M6.22687 42.8904L8.16358 29.9879L8.48637 42.8904H10.7459L15.1035 29.9879L13.3281 42.8904H16.8788L19.6224 25.6289H14.1351L10.7459 36.2648L10.5845 25.6289H5.7427L2.99902 42.8904H6.22687Z" fill="white"/>
<path d="M57.8732 42.8926C58.8415 36.9644 59.0029 32.0824 61.4238 32.9541C61.7466 30.6875 62.2308 29.6413 62.5535 28.7695H61.908C60.4554 28.7695 59.1643 30.8618 59.1643 30.8618L59.4871 28.9439H56.2592L54.1611 42.8926H57.8732Z" fill="white"/>
<path d="M78.5316 28.4219C76.2721 28.4219 74.4968 29.1193 74.4968 29.1193L74.0126 32.2578C74.0126 32.2578 75.4652 31.5603 77.7246 31.5603C78.8544 31.5603 79.8228 31.7347 79.8228 32.7808C79.8228 33.4783 79.6614 33.6526 79.6614 33.6526H78.2088C75.3038 33.6526 72.2373 34.8732 72.2373 39.0578C72.2373 42.3706 74.174 43.068 75.4652 43.068C77.7246 43.068 78.8544 41.4988 79.0158 41.4988L78.8544 42.8937H81.9209L83.212 32.9552C83.212 28.5962 79.6614 28.4219 78.5316 28.4219ZM79.3386 36.4424C79.3386 36.9655 79.0158 39.9296 77.0791 39.9296C76.1107 39.9296 75.7879 39.0578 75.7879 38.5347C75.7879 37.6629 76.2721 36.4424 78.8544 36.4424C79.1772 36.4424 79.1772 36.4424 79.3386 36.4424Z" fill="white"/>
<path d="M85.7941 42.8926C86.7624 36.9644 86.9238 32.0824 89.3447 32.9541C89.6675 30.6875 90.1517 29.6413 90.4744 28.7695H89.8289C88.3763 28.7695 87.0852 30.8618 87.0852 30.8618L87.408 28.9439H84.1801L82.082 42.8926H85.7941Z" fill="white"/>
</svg>
