<svg width="821" height="1268" viewBox="0 0 821 1268" fill="none" xmlns="http://www.w3.org/2000/svg">
<g filter="url(#filter0_d_1347_8825)">
<rect x="0" y="0" width="821.03" height="1268.54" rx="24" fill="#DFF3F4"/>
</g>
<mask id="mask0_1347_8825" style="mask-type:luminance" maskUnits="userSpaceOnUse" x="0" y="0" width="822" height="1269">
<rect x="0" y="0" width="821.03" height="1268.54" rx="24" fill="white"/>
</mask>
<g mask="url(#mask0_1347_8825)">
<g opacity="0.04">
<path d="M764.341 1230.61C733.369 1221.94 729.673 1189.5 724.98 1148.38C719.701 1102.47 713.19 1045.36 665.793 999.818C642.037 977.046 619.277 962.768 596.165 956.172C575.517 950.298 554.987 950.659 533.517 957.347C493.629 969.817 455.97 1003.07 419.484 1035.15C385.345 1065.24 350.032 1096.42 312.021 1111.78C291.608 1120.09 272.133 1123.17 252.482 1121.36C230.426 1119.28 208.722 1111.06 186.197 1096.15C146.837 1070.12 107.712 1061.09 69.9352 1069.22C62.9548 1070.76 56.033 1072.83 49.1699 1075.54V1078.35C56.1503 1075.63 63.1308 1073.47 70.2285 1071.93C107.712 1063.8 146.485 1072.83 185.552 1098.59C213.298 1116.93 238.991 1124.52 263.217 1124.52C321.7 1124.52 371.619 1080.51 420.364 1037.59C458.375 1004.07 494.216 972.438 533.869 960.058C555.104 953.37 575.4 953.009 595.813 958.883C618.749 965.389 641.333 979.576 664.855 1002.17C685.679 1022.14 711.606 1046.99 723.279 1148.83C725.684 1170.07 727.796 1188.41 733.369 1203.14C739.528 1219.5 749.324 1229.08 764.047 1233.23C807.631 1245.52 833.558 1264.95 845.583 1294.41C848.458 1301.37 850.569 1308.96 851.977 1317H853.796C852.329 1308.42 850.159 1300.46 847.05 1292.96C834.732 1262.87 808.452 1243.08 764.341 1230.61Z" fill="#848484"/>
<path d="M730.219 1260.27C693.328 1251.78 689.867 1234.71 682.36 1197.5C675.791 1165.07 665.879 1115.93 627.111 1044.66C574.971 948.729 519.664 1008.71 455.617 1078.17C390.691 1148.63 317.085 1228.39 227.233 1170.94C192.805 1148.9 158.084 1138.06 123.949 1138.51C98.5536 1138.87 73.3926 1145.56 49.1699 1158.38V1161.27C73.3926 1148.36 98.4949 1141.67 123.949 1141.31C157.849 1140.77 192.336 1151.7 226.529 1173.56C266.998 1199.48 307.877 1199.93 351.396 1175.09C389.46 1153.32 423.594 1116.29 456.614 1080.52C488.286 1046.19 518.197 1013.77 546.174 1002.2C577.082 989.377 602.361 1003.47 625.762 1046.56C664.296 1117.46 674.149 1166.24 680.659 1198.49C688.166 1235.7 691.979 1254.4 729.984 1263.16C752.213 1268.31 766.113 1280.96 771.333 1300.74C772.623 1305.71 773.385 1311.13 773.679 1317H775.438C775.204 1310.77 774.383 1304.99 772.975 1299.75C767.462 1278.79 753.092 1265.6 730.219 1260.27Z" fill="#848484"/>
<path d="M547.928 1138.2C531.629 1121.51 509.759 1122.05 482.964 1140.1C461.681 1154.35 437.231 1179.61 410.261 1214.97C382.704 1251.23 358.078 1290.92 342.717 1316.99H345.062C360.424 1290.92 384.463 1252.31 411.375 1216.95C438.228 1181.68 462.502 1156.6 483.609 1142.44C509.818 1124.85 531.101 1124.13 546.873 1140.37C583.518 1177.98 602.984 1241.49 620.163 1297.51C622.215 1304.09 624.15 1310.59 626.143 1316.9H628.078C625.968 1310.23 623.857 1303.37 621.746 1296.34C604.567 1240.05 584.984 1176.18 547.928 1138.2Z" fill="#848484"/>
<path d="M501.337 1233.05C493.742 1224.67 483.928 1224.85 472.185 1233.59C462.955 1240.51 452.498 1252.71 441.107 1269.92C430.241 1286.4 420.485 1304.34 414.059 1317H416.337C434.564 1281.58 476.333 1208.83 500.285 1235.23C515.766 1252.35 524.821 1286.31 532.649 1317H534.519C526.574 1285.77 517.46 1250.8 501.337 1233.05Z" fill="#848484"/>
<path d="M212.079 1231.61C197.002 1225.67 181.398 1219.56 167.377 1212.27C132.589 1194 92.2876 1209.39 64.5984 1225.49C59.1427 1228.64 53.9803 1231.97 49.1699 1235.3V1238.27C54.1563 1234.85 59.5534 1231.34 65.2437 1228.01C92.6396 1212.09 132.531 1196.88 166.79 1214.88C180.811 1222.26 196.474 1228.37 211.609 1234.31C245.634 1247.63 277.782 1260.22 280.011 1283.08C280.95 1292.7 276.608 1303.95 266.87 1317H269.452C278.662 1303.95 282.71 1292.61 281.771 1282.63C279.366 1257.97 248.215 1245.83 212.079 1231.61Z" fill="#848484"/>
<path d="M189.522 1270.33C177.933 1267.22 163.828 1267.4 150.834 1270.88C126.779 1277.28 79.7219 1297.78 49.1699 1311.59V1314.43C79.7219 1300.61 127.072 1280.03 151.185 1273.53C164.003 1270.15 177.874 1269.87 189.288 1272.98C205.793 1277.47 211.587 1286.89 213.577 1294.12C215.391 1300.61 214.923 1308.3 212.231 1316.99H214.221C216.796 1308.02 217.089 1299.97 215.157 1293.02C211.236 1278.93 199.062 1272.89 189.522 1270.33Z" fill="#848484"/>
<path d="M121.376 771.99C147.911 799.491 165.229 838.933 180.433 873.762C197.692 913.204 212.662 947.308 236.026 952.827C238.199 953.369 240.429 953.55 242.66 953.55C260.682 953.55 282.109 937.538 309.29 903.795C329.66 878.466 346.626 855.488 361.595 835.134C393.178 792.164 416.015 761.135 441.257 751.093C467.029 740.781 495.324 751.636 538.883 788.455C574.458 818.579 616.901 839.295 655.235 845.266C673.082 848.07 689.284 847.527 702.14 843.547C715.701 839.386 725.211 831.877 730.319 821.112C737.304 806.366 739.007 778.956 707.248 732.006C669.266 675.828 626.059 669.043 580.328 661.897C550.037 657.192 518.689 652.217 487.047 632.586C451.237 610.423 420.183 571.886 392.063 514.984C371.282 472.919 347.037 453.017 321.852 457.449C304.711 460.435 287.863 474.366 271.777 498.701C255.634 523.307 241.075 557.23 228.63 599.567C219.354 630.958 209.14 647.061 197.223 648.689C171.451 652.217 141.63 585.455 112.864 520.864C98.4817 488.569 83.6295 455.278 69.4817 431.396C62.1436 419.003 55.4513 409.866 49.1699 403.805V407.152C68.9533 427.235 90.4392 475.361 111.397 522.402C125.838 554.788 140.808 588.35 155.19 612.775C170.571 638.828 183.721 651.584 195.285 651.584C195.99 651.584 196.694 651.493 197.399 651.403C209.962 649.684 220.705 633.129 230.215 600.743C242.601 558.678 256.984 525.026 273.01 500.691C288.802 476.718 305.298 463.058 322.029 460.163C346.508 455.912 370.284 475.452 390.654 516.703C418.95 574.057 450.298 612.775 486.343 635.119C518.219 654.931 549.685 659.816 580.094 664.61C625.531 671.757 668.444 678.451 706.015 733.996C736.893 779.68 735.485 805.733 728.91 819.574C719.282 839.747 691.808 848.341 655.412 842.642C617.312 836.672 575.104 816.046 539.705 786.103C495.735 748.922 467.087 738.067 440.788 748.56C415.134 758.783 392.18 789.993 360.421 833.234C345.452 853.588 328.545 876.566 308.174 901.805C278 939.257 255.164 954.636 236.261 950.203C213.66 944.956 198.925 911.304 181.842 872.314C166.52 837.305 149.144 797.682 122.316 769.819C100.067 746.751 78.8744 735.172 59.091 735.172C55.7448 735.172 52.4574 735.534 49.1699 736.167V738.881C71.4189 734.267 95.6639 745.394 121.376 771.99Z" fill="#848484"/>
<path d="M82.0627 1037.43C109.21 1038.07 139.581 1046.48 166.376 1053.81C204.78 1064.39 235.035 1072.72 238.787 1053.54C244.416 1024.77 226.123 1000.97 195.751 961.619C173.998 933.393 146.852 898.291 117.829 847.809C96.0172 809.902 74.2646 792.713 53.2742 796.875C51.9843 797.146 50.6357 797.508 49.1699 797.96V800.765C50.5771 800.312 52.0429 799.86 53.5087 799.589C73.9128 795.608 95.0791 812.435 116.539 849.618C145.679 900.281 172.826 935.473 194.637 963.79C224.422 1002.42 242.422 1025.76 237.146 1052.81C233.862 1069.64 202.728 1061.04 166.728 1051.18C127.855 1040.51 82.2386 1027.93 49.2286 1038.79V1041.59C58.4925 1038.52 69.4567 1037.07 82.0627 1037.43Z" fill="#848484"/>
<path d="M159.169 1023.79C174.365 1023.79 182.899 1019.53 184.535 1010.93C188.159 992.172 157.941 958.379 139.53 939.897C113.521 913.715 82.5436 889.072 65.886 881.19C60.3335 878.563 54.7225 876.751 49.2284 875.664V878.382C54.5471 879.469 59.9828 881.281 65.36 883.818C81.9007 891.609 112.703 916.07 138.537 942.162C168.637 972.512 185.178 997.879 182.782 1010.11C180.444 1022.07 159.636 1024.24 124.159 1016.27C95.4022 1009.84 65.4184 998.695 49.1699 991.628V994.437C65.5353 1001.59 95.3437 1012.56 123.866 1018.99C138.186 1022.16 149.876 1023.79 159.169 1023.79Z" fill="#848484"/>
<path d="M84.036 974.927C91.0915 974.927 95.0308 972.833 95.7952 968.645C97.4415 960.27 85.6823 946.342 75.5106 936.147C66.7499 927.317 56.7546 918.942 49.1699 913.844V916.848C56.5782 921.946 66.162 930.048 74.5698 938.514C87.6225 951.622 95.0896 962.91 94.0901 967.917C92.5026 976.019 68.9254 971.467 49.1699 964.64V967.371C55.1083 969.374 61.7523 971.376 68.2198 972.833C74.6286 974.198 79.8615 974.927 84.036 974.927Z" fill="#848484"/>
<path fill-rule="evenodd" clip-rule="evenodd" d="M249.641 903.164C247.942 903.164 246.301 902.893 244.719 902.259C230.364 896.74 218.939 881.088 211.673 856.932C204.349 832.323 201.888 800.567 204.642 765.011C207.162 732.983 214.486 701.227 225.97 673.18C266.808 573.206 300.733 518.379 326.806 510.236C335.185 507.613 342.86 509.875 349.481 517.022C374.312 543.656 390.509 569.583 404.793 592.449L405.319 593.291L405.447 593.496C427.534 628.865 445.001 656.835 483.246 672.999C507.445 683.222 518.87 692.632 518.109 701.86C517.523 709.007 509.32 714.707 493.676 718.869C478.5 722.85 456.587 725.293 430.338 725.835C410.534 726.288 389.968 738.14 367.41 762.296C347.723 783.467 329.091 811.062 312.627 835.49C288.311 871.589 267.043 903.164 249.641 903.164ZM227.492 674.628C216.183 702.313 208.918 733.707 206.457 765.373C203.762 800.387 206.164 831.6 213.371 855.757C220.343 879.189 231.359 894.389 245.186 899.636C246.651 900.179 248.174 900.451 249.698 900.451C266.337 900.451 287.371 869.239 311.393 833.594L311.395 833.591C327.859 809.072 346.55 781.387 366.413 760.126C389.264 735.698 410.181 723.574 430.336 723.122C456.527 722.579 478.323 720.136 493.381 716.156C512.775 710.999 516.115 704.756 516.408 701.499C517.228 691.185 493.206 679.876 482.835 675.533C444.047 659.067 426.411 630.839 404.146 595.102L403.905 594.716C389.609 571.83 373.421 545.915 348.542 519.194C343.972 514.309 338.933 511.866 333.426 511.866C331.433 511.866 329.324 512.228 327.215 512.861C301.669 520.913 268.096 575.288 227.492 674.628Z" fill="#848484"/>
<path fill-rule="evenodd" clip-rule="evenodd" d="M662.599 803.398C635.057 797.225 603.638 786.966 585.081 779.976C554.132 768.355 540.86 758.006 539.333 744.479C537.982 732.223 546.556 717.425 566.229 697.906C576.976 687.284 590.953 685.014 607.925 691.369C621.373 696.363 636.701 706.712 653.497 722.146C681.45 747.838 704.295 779.25 705.411 780.793C713.632 789.781 716.921 796.499 715.453 801.492C714.043 806.122 708.406 808.482 698.305 808.482C689.672 808.482 677.809 806.757 662.599 803.398ZM590.307 690.467C581.381 690.467 573.687 693.735 567.227 700.09C548.494 718.701 539.92 733.045 541.094 743.758C542.739 759.101 564.467 769.269 585.491 777.167C636.466 796.323 709.462 815.024 713.808 800.226C714.395 798.229 713.984 793.327 704.353 782.796L704.294 782.705C704.281 782.689 704.192 782.568 704.031 782.35C701.389 778.768 679.35 748.887 652.615 724.33C635.996 709.078 620.845 698.819 607.572 693.917C601.406 691.647 595.651 690.467 590.307 690.467Z" fill="#848484"/>
<path d="M869 755.635C864.831 748.948 860.074 742.08 854.671 735.212C834.117 709.095 808.043 687.587 777.154 671.229C738.571 650.806 692.354 638.335 639.795 634.178C609.728 631.828 552.06 623.604 503.376 594.776C452.109 564.502 423.686 519.769 418.988 461.841C413.527 394.786 418.871 353.216 435.842 330.895C454.399 306.495 487.99 305.41 538.494 327.822C573.553 343.366 601.917 364.693 624.703 381.863C647.195 398.853 664.988 412.228 680.844 414.578C698.051 417.108 711.499 406.354 724.418 379.695C732.64 362.705 739.158 346.619 744.913 332.431C756.482 303.783 764.88 283.089 778.563 275.407C793.009 267.274 812.565 274.142 844.042 298.361C853.027 305.229 861.307 312.911 869 320.863V317.61C861.542 309.929 853.497 302.609 844.864 295.921C812.917 271.34 792.951 264.472 777.976 272.786C763.706 280.829 755.249 301.795 743.445 330.895C737.749 344.992 731.23 360.988 723.068 377.977C696.524 432.832 669.804 412.68 625.525 379.333C602.681 362.072 574.199 340.655 539.023 325.111C487.873 302.518 453.753 303.693 434.726 328.726C417.285 351.68 411.765 394.063 417.285 462.112C422.1 521.124 450.876 566.581 502.789 597.306C551.707 626.225 609.61 634.449 639.736 636.889C692.119 640.955 738.101 653.427 776.508 673.76C807.162 690.027 833.06 711.354 853.438 737.2C859.428 744.791 864.596 752.382 869 759.612V755.635V755.635Z" fill="#848484"/>
<path d="M868.999 698.052C856.564 683.643 841.607 669.144 824.656 655.459C776.501 616.491 719.723 589.395 664.882 579.245C609.336 568.914 568.806 557.586 537.367 543.448C497.189 525.505 471.85 503.121 459.885 475.209C451.79 456.268 450.031 434.428 454.547 410.141C457.949 392.197 464.166 380.326 473.61 373.891C505.576 351.961 566.87 397.907 620.949 438.416C640.716 453.278 659.427 467.234 675.322 476.84C702.127 493.062 718.609 496.687 730.457 488.802C741.895 481.19 748.464 463.609 757.497 439.231C762.952 424.55 769.11 407.966 777.791 389.66C787.058 370.085 798.789 359.845 812.69 359.21C831.694 358.395 852.282 375.704 868.999 394.735V391.382C843.015 362.11 824.304 356.039 812.69 356.492C798.261 357.126 786.061 367.729 776.442 388.029C767.703 406.425 761.544 423.191 756.03 437.872C738.317 485.449 730.222 507.199 675.967 474.303C660.131 464.696 641.478 450.74 621.712 435.969C567.281 395.188 505.576 348.97 472.906 371.445C463.052 378.151 456.307 391.019 452.846 409.507C448.154 434.519 449.972 457.175 458.36 476.84C470.618 505.205 496.25 527.952 536.898 546.077C568.454 560.214 609.101 571.542 664.706 581.873C719.313 592.023 775.856 619.029 823.835 657.816C841.02 671.772 856.388 686.725 868.999 701.587V698.052Z" fill="#848484"/>
<path d="M868.94 656.656C835.482 611.926 790.108 594.035 754.537 580.119C720.023 566.564 695.135 556.805 697.835 530.419C698.598 522.739 705.525 523.281 717.675 524.907C728.945 526.353 742.915 528.251 756.122 521.383C771.736 513.251 782.478 494.907 788.934 465.268C793.454 444.485 800.674 432.557 810.3 430.027C827.91 425.328 851.037 451.714 868.998 477.919V474.124C868.529 473.491 868.118 472.768 867.648 472.136C843.934 438.521 824.564 423.43 810.007 427.316C799.676 430.027 792.045 442.497 787.291 464.365C773.086 529.516 739.863 525.088 717.851 522.196C705.877 520.57 697.189 519.486 696.133 530.058C694.783 543.432 699.537 553.733 711.277 562.317C721.725 569.998 736.752 575.962 754.126 582.739C789.991 596.836 835.717 614.818 868.998 660.361V656.656H868.94Z" fill="#848484"/>
<path d="M868.998 632.649C857.656 621.566 845.204 605.849 834.506 588.951C818.488 563.604 808.96 540.165 807.732 522.812C807.089 513.455 808.901 506.005 813.227 500.736C828.427 482.203 853.213 513.092 868.998 537.712V533.805C865.724 528.808 862.158 523.63 858.416 518.724C849.706 507.368 841.638 499.555 834.565 495.558C825.562 490.47 817.962 491.469 812.116 498.646C807.323 504.461 805.277 512.728 805.978 523.176C808.433 558.607 842.632 610.482 868.998 635.92V632.649V632.649Z" fill="#848484"/>
<path fill-rule="evenodd" clip-rule="evenodd" d="M667.662 524.552C667.864 524.773 667.977 524.897 667.996 524.916C674.97 532.929 677.373 539.501 675.322 544.543C672.977 549.855 665.417 551.925 655.454 551.925C641.799 551.925 623.514 548.054 607.456 543.102C568.365 531.128 531.092 510.781 507.766 488.724C481.511 463.876 472.602 436.957 482.038 410.848C484.558 403.825 488.778 399.324 494.521 397.343C513.041 390.951 547.912 410.578 598.079 455.503C633.333 487.01 664.132 520.691 667.662 524.552ZM652.113 549.037C668.347 549.667 672.684 545.435 673.798 542.915C675.673 538.503 671.102 531.931 666.941 527.159C665.417 525.449 550.549 398.866 501.964 398.866C499.385 398.866 497.041 399.226 494.873 399.946C489.657 401.747 485.847 405.798 483.562 412.101C478.873 425.065 478.932 438.209 483.796 451.264C488.192 463.148 496.572 474.942 508.645 486.376C531.795 508.253 568.834 528.51 607.748 540.394C624.451 545.525 640.216 548.587 652.113 549.037Z" fill="#848484"/>
<path fill-rule="evenodd" clip-rule="evenodd" d="M607.163 502.083C607.588 502.484 607.824 502.707 607.85 502.727C607.9 502.788 607.956 502.855 608.017 502.928C609.031 504.146 611.417 507.013 610.199 509.801C609.436 511.591 607.087 512.218 603.917 512.218C595.227 512.218 580.49 507.025 576.733 505.682C557.181 498.518 539.039 488.221 528.236 478.102C517.374 467.894 513.616 457.955 517.022 448.553C517.844 446.315 519.253 444.792 521.132 444.076C528.764 441.031 545.673 450.075 571.448 470.76C588.401 484.364 603.779 498.886 607.163 502.083ZM577.085 503.085C597.047 510.338 607.733 510.518 608.731 508.279C608.79 508.1 608.672 507.025 606.794 504.966C605.15 503.354 545.145 446.226 524.419 446.226C523.304 446.226 522.365 446.405 521.484 446.763C520.016 447.3 519.077 448.375 518.49 449.897C515.613 457.777 519.135 466.462 529.058 475.775C539.685 485.804 557.651 496.012 577.085 503.085Z" fill="#848484"/>
<path fill-rule="evenodd" clip-rule="evenodd" d="M261.153 835.208C255.305 839.005 250.509 840.542 246.591 840.542C238.637 840.542 234.251 834.123 231.853 827.524C216.238 784.762 251.504 647.076 299.46 593.376C313.788 577.374 326.655 570.865 337.65 574.12C346.715 576.832 354.493 585.963 360.809 601.331C367.008 616.339 369.991 633.696 369.582 651.596C369.172 669.406 365.371 686.493 358.645 700.957L356.832 704.845L356.726 705.072C334.419 753.006 311.37 802.533 261.153 835.208ZM300.511 595.632C278.814 619.951 257.467 664.882 243.431 715.78C230.272 763.514 226.296 806.818 233.372 826.164C238.109 839.092 247.174 841.262 260.45 832.583C310.278 800.128 333.203 750.857 355.368 703.124L357.181 699.236C363.732 685.223 367.416 668.679 367.825 651.412C368.235 634.054 365.311 617.239 359.345 602.774C353.322 588.129 345.894 579.36 337.356 576.828C335.601 576.286 333.788 576.015 331.975 576.015C322.676 576.015 312.149 582.614 300.511 595.632Z" fill="#848484"/>
<path fill-rule="evenodd" clip-rule="evenodd" d="M277.963 773.067C274.327 775.423 271.336 776.419 268.932 776.419C264.358 776.419 261.837 772.886 260.429 769.172C256.383 758.12 258.846 734.748 266.821 708.205C275.148 680.665 287.638 655.662 300.304 641.53C308.69 632.199 316.196 628.394 322.705 630.297C328.041 631.837 332.674 637.182 336.368 646.241C343.698 664.178 343.229 687.006 335.078 704.49C322.119 732.302 307.986 753.5 277.963 773.067ZM301.361 643.795C288.988 657.655 276.673 682.205 268.464 709.382C260.84 734.748 258.319 757.667 262.013 767.904C264.476 774.698 269.636 775.604 277.318 770.622C306.99 751.326 320.888 730.399 333.671 702.95C341.412 686.372 341.881 664.721 334.903 647.781C331.443 639.447 327.28 634.464 322.413 633.015C321.416 632.743 320.419 632.562 319.363 632.562C314.027 632.562 308.046 636.366 301.361 643.795Z" fill="#848484"/>
<path d="M291.283 724.492C292.037 724.492 292.964 724.226 294.066 723.514C302.648 718.001 306.649 711.954 310.36 704.04C312.796 698.883 312.97 692.036 310.766 686.789C309.607 684.033 308.215 682.432 306.533 681.899C304.562 681.276 302.242 682.432 299.749 685.189C292.153 693.636 285.658 714.622 288.383 722.003C288.789 723.07 289.601 724.492 291.283 724.492Z" fill="#848484" stroke="#575757" stroke-width="5"/>
<path d="M868.822 1238.1C852.036 1236.92 835.72 1233.57 821.282 1228.14C802.265 1220.98 786.301 1210.2 773.858 1196.25C758.598 1179.14 748.562 1157.03 743.925 1130.4C737.469 1093 727.256 1057.67 714.403 1028.14C699.319 993.451 680.831 966.73 659.349 948.614C619.849 915.191 571.78 912.021 516.551 939.194C449.641 972.074 397.581 1006.58 359.548 1031.86C311.01 1064.01 284.246 1081.76 278.142 1062.29C277.614 1060.57 277.555 1058.76 278.025 1056.76C281.487 1042 310.188 1021.89 343.467 998.704C368.235 981.404 396.348 961.748 418.475 940.915C444.065 916.822 457.506 894.992 459.56 874.25C462.436 845.084 470.066 824.613 481.57 815.103C494.658 804.324 512.559 807.132 534.863 823.436C575.83 853.326 675.842 889.014 736.588 889.014C757.542 889.014 773.858 884.757 781.429 874.522C786.007 868.362 787.299 860.301 785.244 850.519C778.495 818.182 786.301 784.759 803.38 772.893C824.803 758.038 848.456 779.596 868.822 814.106V809.577C860.84 796.353 852.741 786.027 844.582 778.6C829.616 764.922 814.708 762.024 802.676 770.448C784.775 782.857 776.558 817.639 783.601 851.334C785.42 860.029 784.305 867.004 780.314 872.438C767.695 889.467 726.904 890.916 668.329 876.333C617.736 863.743 563.211 841.008 535.684 820.9C512.853 804.233 494.423 801.516 480.866 812.657C468.834 822.53 460.91 843.725 457.917 873.797C453.456 918.814 392.123 961.748 342.821 996.168C307.84 1020.62 280.196 1039.92 276.499 1055.77C275.853 1058.49 275.912 1061.02 276.675 1063.38C279.961 1073.88 288.002 1075.7 302.851 1069.26C316.527 1063.29 335.895 1050.51 360.37 1034.3C398.344 1009.12 450.404 974.61 517.196 941.731C571.956 914.829 619.556 917.909 658.645 950.879C679.833 968.813 698.145 995.262 713.053 1029.5C725.789 1058.85 735.943 1093.9 742.34 1130.95C747.036 1158.12 757.307 1180.77 772.919 1198.25C785.538 1212.38 801.737 1223.25 820.988 1230.58C835.602 1236.11 852.095 1239.55 868.998 1240.64V1238.1H868.822Z" fill="#848484"/>
<path d="M868.939 1182.82C841.446 1192.68 819.77 1191.14 803.086 1178.2C778.473 1159.03 767.664 1117.23 759.674 1074.89C751.215 1030.2 726.954 997.184 707.451 970.678C694.351 952.856 684.012 938.834 683.542 927.617C683.424 924.45 684.129 921.646 685.657 919.023C691.002 909.795 708.038 915.585 729.656 922.913C746.986 928.793 768.603 936.12 791.103 938.111C801.5 939.015 808.315 936.301 812.015 929.788C817.302 920.379 815.305 904.639 813.19 887.993C810.194 864.744 807.14 840.771 821.414 827.563C826.173 823.13 831.46 822.316 837.099 824.849C846.616 829.282 857.483 843.937 868.997 867.548V862.934C859.598 844.118 848.613 827.382 837.628 822.316C831.518 819.421 825.762 820.416 820.533 825.211C805.201 839.414 808.55 865.467 811.487 888.536C813.543 904.548 815.481 919.656 810.723 928.069C807.433 933.859 801.03 936.301 791.22 935.397C768.838 933.406 747.338 926.079 730.067 920.199C707.098 912.419 690.474 906.719 684.423 917.123C682.602 920.289 681.721 923.817 681.897 927.707C682.367 940.01 692.941 954.394 706.393 972.578C725.72 998.812 749.805 1031.56 758.088 1075.53C766.195 1118.41 777.121 1160.83 802.381 1180.47C812.074 1187.97 823.412 1191.77 836.512 1191.77C846.322 1191.77 857.131 1189.69 868.997 1185.44V1182.82H868.939Z" fill="#848484"/>
<path d="M869 1113.2C855.182 1118.73 838.319 1121.89 824.617 1113.84C814.546 1107.95 807.227 1096.54 802.894 1080.06C796.922 1057.24 786.441 1036.06 778.01 1019.03C769.695 1002.28 762.552 987.796 764.777 981.276C766.182 977.202 771.276 975.663 780.352 976.478L783.396 976.749C810.565 979.284 824.266 980.552 830.999 971.045C834.278 966.427 835.859 959.183 836.035 947.684C836.328 931.838 841.773 918.618 849.619 914.725C855.474 911.827 862.091 914.091 869 920.973V917.622C860.1 909.292 853.191 910.107 849.092 912.19C840.544 916.445 834.571 930.661 834.278 947.684C834.103 958.368 832.698 964.978 829.828 969.053C823.622 977.836 809.394 976.478 783.513 974.033L780.469 973.761C770.456 972.856 765.011 974.848 763.196 980.009C760.444 988.067 767.177 1001.74 776.546 1020.75C784.919 1037.69 795.341 1058.69 801.196 1081.15C805.705 1098.35 813.375 1110.21 823.915 1116.46C830.121 1120.08 836.913 1121.53 843.705 1121.53C852.664 1121.53 861.564 1119.09 868.941 1116.19V1113.2H869Z" fill="#848484"/>
<path d="M868.999 1062.29C854.799 1062.84 834.681 1060.11 830.894 1040.97C828.587 1029.31 830.184 1018.02 835.273 1009.18C842.136 997.244 854.266 991.049 868.999 991.413V988.68C853.734 988.407 841.131 994.875 833.971 1007.36C828.409 1017.01 826.693 1029.22 829.178 1041.79C831.9 1055.46 841.959 1063.2 859.059 1064.75C861.307 1064.93 863.556 1065.03 865.686 1065.03C866.81 1065.03 867.875 1065.03 868.94 1064.93V1062.29H868.999Z" fill="#848484"/>
<path d="M113.879 729.019C136.136 743.06 157.392 756.558 171.759 756.558C175.645 756.558 179.001 755.561 181.768 753.387C185.655 750.307 188.128 744.781 189.187 737.081C191.719 718.963 179.178 701.48 160.159 675.028C141.318 648.848 115.528 613.065 92.7414 559.436C77.3147 523.11 62.7124 499.738 49.2288 489.32V492.31C62.2414 502.727 76.3138 525.556 91.2694 560.886C114.233 614.877 140.081 650.75 158.982 677.021C177.529 702.839 189.835 719.869 187.48 736.447C186.479 743.422 184.359 748.133 180.944 750.851C168.756 760.725 142.436 744.057 114.586 726.392C96.2153 714.796 77.197 702.748 60.7105 697.313C56.5888 695.954 52.7027 695.048 49.1699 694.595V697.313C52.585 697.766 56.3533 698.581 60.3572 699.94C76.667 705.466 95.5676 717.423 113.879 729.019Z" fill="#848484"/>
<path d="M104.817 680.211C110.87 680.211 114.712 677.87 116.284 673.277C120.125 661.751 108.542 639.778 81.7664 607.72C69.6591 593.311 57.0862 579.984 49.1699 571.789V574.941C75.6545 602.226 120.824 653.826 114.77 672.016C113.49 675.889 109.997 677.6 105.108 677.6C92.2438 677.6 69.4263 666.253 49.1699 654.186V657.068C53.5355 659.679 58.1339 662.291 62.7906 664.812C81.7082 675.078 95.7945 680.211 104.817 680.211Z" fill="#848484"/>
<path fill-rule="evenodd" clip-rule="evenodd" d="M357.677 892.281C360.858 884.038 364.217 876.609 367.752 870.087C379.007 849.252 395.918 838.381 412.947 840.918C422.964 842.458 428.031 847.893 428.09 857.224C428.208 888.114 367.104 952.613 339.587 957.143C335.58 957.867 332.516 958.139 330.218 958.139C325.269 958.139 323.619 956.78 323.03 954.787C321.851 950.62 326.094 944.641 333.164 934.677C340.707 924.078 351.018 909.584 357.677 892.281ZM393.149 915.023C413.714 892.557 426.5 870.362 426.441 857.318C426.382 849.618 421.845 845.088 412.948 843.729C411.357 843.458 409.766 843.367 408.175 843.367C393.326 843.367 379.067 853.694 369.226 871.812C365.75 878.153 362.45 885.581 359.327 893.644C352.612 911.15 342.25 925.721 334.666 936.385L334.462 936.673L334.194 937.051C329.21 944.089 324.103 951.299 324.798 953.613C325.211 955.063 328.098 956.331 339.529 954.429C352.139 952.345 373.174 936.854 393.149 915.023Z" fill="#848484"/>
<path d="M106.534 407.918C119.744 445.405 133.894 483.978 147.692 512.138C162.899 543.015 176.11 558.046 188.146 558.046C188.264 558.046 188.381 558.046 188.498 558.046C200.476 557.774 211.045 542.925 220.791 512.863C241.282 449.751 265.531 411.178 290.954 401.489C308.334 394.879 326.183 401.399 343.973 421.048C357.654 436.169 367.4 441.149 373.624 436.35C382.842 429.287 383.37 402.938 383.957 372.514C384.603 339.102 385.308 301.163 398.284 283.778C404.331 275.719 412.434 272.731 423.061 274.542C450.891 279.431 477.372 272.912 499.624 255.889C520.761 239.681 537.142 214.962 546.948 184.356C556.283 155.291 558.984 122.513 554.874 89.7343C553.171 76.0617 550.294 62.6606 546.361 49.5312H544.364C558.103 94.2617 558.867 141.346 545.421 183.179C535.792 213.241 519.704 237.508 498.92 253.444C476.961 270.286 450.774 276.624 423.296 271.825C412.316 269.924 403.509 273.184 397.168 281.695C383.605 299.805 382.901 338.378 382.196 372.333C381.668 400.674 381.139 427.476 372.861 433.815C367.224 438.161 358.123 433.181 344.971 418.693C326.711 398.592 308.392 391.891 290.485 398.682C264.533 408.643 239.873 447.669 219.206 511.505C209.753 540.57 199.713 554.877 188.498 555.148C188.381 555.148 188.264 555.148 188.146 555.148C162.605 555.148 134.599 481.714 108.06 406.379C91.7963 360.2 72.0097 328.508 49.1699 311.666V314.654C71.4225 331.677 90.6808 362.826 106.534 407.918Z" fill="#848484"/>
<path d="M128.463 292.332C138.61 292.332 147.524 290.074 154.855 285.469C171.57 274.995 179.899 253.594 179.605 221.628C179.312 190.295 184.766 166.998 196.262 150.473C224.589 109.478 285.584 116.521 350.215 124.106C359.717 125.19 369.57 126.364 379.247 127.357C388.689 128.35 397.369 128.802 405.346 128.802C441.767 128.802 462.411 118.778 466.927 98.8225C470.094 84.736 464.816 67.6696 456.37 51.0547H454.083C462.763 67.5793 468.276 84.4651 465.285 98.0098C460.124 120.946 431.268 129.975 379.423 124.738C369.746 123.745 359.892 122.571 350.391 121.487C285.408 113.902 224.003 106.769 195.089 148.577C183.242 165.734 177.611 189.663 177.905 221.809C178.198 252.51 170.222 273.189 154.269 283.122C133.742 295.944 100.371 290.075 62.6006 267.048C58.0846 264.339 53.6272 261.36 49.1699 258.289V261.269C53.3927 264.249 57.674 267.048 61.9554 269.577C86.6467 284.566 109.637 292.332 128.463 292.332Z" fill="#848484"/>
<path d="M94.9476 206.635C116.049 204.645 133.926 187.549 148.169 155.8L150.514 150.554C167.805 112.02 176.48 92.6634 189.316 84.613C202.153 76.5626 219.561 79.4572 254.261 85.3366C258.481 86.0603 262.994 86.7839 267.742 87.598C308.831 94.4725 338.607 96.7338 358.77 94.5629C378.171 92.4825 389.191 86.4221 393.411 75.4772C395.99 68.7836 395.873 60.6428 393.762 51.0547H391.945C394.056 60.281 394.29 67.9695 391.887 74.1204C388.018 84.1607 377.175 89.9498 358.653 91.9398C338.607 94.0202 308.948 91.7589 267.918 84.8844C263.17 84.0703 258.657 83.3467 254.437 82.623C219.444 76.6531 201.918 73.6681 188.613 82.0803C175.308 90.4925 166.515 110.03 149.048 149.016L146.704 154.262C132.754 185.288 115.345 202.022 94.8303 203.921C84.2798 204.916 68.9815 202.112 49.1699 187.821V190.806C66.5783 203.198 80.5285 206.816 90.9032 206.816C92.3099 206.816 93.6581 206.726 94.9476 206.635Z" fill="#848484"/>
<path d="M118.729 142.23C127.088 136.211 132.816 125.971 135.68 111.778C139.947 91.1179 140.882 70.2778 140.181 51.0547H138.427C139.129 70.0083 138.194 90.5789 133.985 110.97C131.238 124.444 125.802 134.145 117.91 139.804C99.1471 153.368 69.9207 142.23 49.1699 131.271V134.145C63.1401 141.511 80.7929 148.787 96.6921 148.787C104.7 148.697 112.299 146.901 118.729 142.23Z" fill="#848484"/>
<path d="M481.251 116.293C469.567 151.664 418.136 146.87 417.549 146.779C388.721 146.779 361.948 143.613 338.346 140.718C303.236 136.467 272.882 132.848 250.454 141.804C238.594 146.508 229.376 154.559 222.331 166.319C214.698 178.984 209.532 196.082 206.479 218.426C196.322 293.149 169.725 302.105 148.295 309.252C135.378 313.594 124.223 317.303 120.524 335.034C117.178 351.227 121.053 383.432 130.505 417.084C140.604 453.179 154.342 481.132 167.259 491.807C171.428 495.244 175.596 496.963 179.53 496.963C187.045 496.963 194.149 490.812 200.373 478.78C209.825 460.506 217.517 440.604 224.973 421.336C238.888 385.331 250.865 354.302 269.477 347.337C280.926 343.085 294.253 348.332 310.106 363.62C331.124 383.793 345.685 390.126 354.668 382.979C365.823 374.114 366.939 346.703 368.113 317.574C369.698 278.494 371.342 238.057 397.41 239.866C403.399 240.228 409.153 240.499 414.73 240.499C471.094 240.499 507.672 219.964 523.465 179.256C535.912 147.322 532.742 108.785 527.927 82.1885C525.638 69.4332 522.761 58.2157 520.236 49.5312H518.299C520.882 58.2157 523.876 69.8855 526.225 83.0027C534.738 130.315 528.573 160.711 521.939 177.899C504.912 221.683 462.992 241.675 397.469 237.243C384.963 236.429 376.626 244.57 371.988 262.211C367.937 277.499 367.115 297.853 366.352 317.574C365.236 345.889 364.121 372.576 353.846 380.718C345.45 387.412 331.477 381.08 310.986 361.449C294.664 345.799 280.926 340.371 269.007 344.894C249.691 352.131 237.479 383.613 223.388 420.16C215.99 439.338 208.299 459.149 198.905 477.242C189.746 494.882 179.354 498.953 167.964 489.545C155.399 479.142 141.895 451.731 131.973 416.179C122.873 383.612 118.88 351.408 122.051 336.029C125.456 319.745 135.613 316.308 148.53 312.056C159.333 308.437 171.545 304.367 182.466 291.521C195.089 276.685 203.484 252.983 208.064 219.06C213.759 176.994 226.911 154.016 250.748 144.518C260.729 140.537 272.412 139.09 285.388 139.09C301.123 139.09 318.912 141.261 338.052 143.523C361.713 146.327 388.486 149.584 417.314 149.584C417.314 149.584 417.314 149.584 417.372 149.584C417.49 149.584 430.759 150.941 445.261 147.684C464.988 143.342 477.552 133.21 482.719 117.65C488.297 100.734 484.715 77.9368 472.033 49.6217H469.92C482.836 77.6654 486.594 100.01 481.251 116.293Z" fill="#848484"/>
<path d="M484.838 149.392C475.209 167.969 446.088 175.672 400.703 171.685C366.239 168.694 334.299 159.904 334.005 159.814C333.829 159.723 314.337 154.376 292.378 160.992C279.403 164.798 268.13 171.956 258.794 182.287C247.111 195.155 238.48 212.916 233.196 235.027C222.98 277.889 211.531 307.159 198.144 324.557C186.519 339.691 175.188 343.678 164.619 346.487C149.178 350.565 143.952 365.789 142.309 377.841C139.021 401.402 146.947 433.209 159.276 445.986C162.623 449.429 166.028 451.151 169.316 451.151C172.369 451.151 175.364 449.701 178.182 446.711C189.748 434.568 201.608 411.188 214.173 386.54C238.069 339.509 262.787 290.938 287.622 315.314C291.263 318.848 294.785 322.383 298.132 325.826C316.333 344.222 330.776 358.811 339.877 351.924C345.278 347.846 348.331 337.063 349.447 317.852C351.737 278.161 355.964 248.257 369.174 231.402C378.568 219.35 391.955 214.909 410.156 217.628C461.118 225.331 494.702 211.375 510.026 176.306C522.297 148.214 520.183 111.695 516.249 85.9598C514.018 71.3702 510.965 58.5024 508.558 49.5312H506.679C509.086 58.4118 512.257 71.5515 514.547 86.5941C518.363 111.786 520.418 147.489 508.558 174.766C493.645 208.929 460.59 222.431 410.332 214.909C391.661 212.1 377.864 216.812 368.059 229.318C354.437 246.807 350.034 277.255 347.685 317.67C346.629 335.613 343.869 346.034 339.113 349.568C330.894 355.73 316.861 341.594 299.13 323.651C295.725 320.208 292.202 316.674 288.562 313.139C276.76 301.54 264.02 304.44 249.635 322.02C237.071 337.244 224.741 361.53 212.822 385C200.375 409.557 188.574 432.665 177.243 444.626C170.608 451.604 164.384 448.07 160.275 443.811C148.473 431.577 140.899 401.039 144.011 378.475C145.596 367.239 150.47 353.011 164.913 349.206C175.716 346.306 187.282 342.228 199.26 326.642C212.881 308.88 224.506 279.248 234.84 235.933C240.006 214.275 248.402 196.967 259.734 184.462C268.834 174.403 279.931 167.425 292.613 163.62C300.833 161.173 308.7 160.357 315.335 160.357C326.138 160.357 333.536 162.441 333.653 162.441C333.947 162.532 366.004 171.322 400.585 174.312C447.203 178.39 476.031 170.597 486.189 151.024C496.228 131.722 498.577 105.805 492.94 75.8105C491.003 65.5707 488.478 56.5088 486.247 49.5313H484.251C486.541 56.4182 489.242 65.8425 491.238 76.5355C495.054 96.9246 497.05 125.922 484.838 149.392Z" fill="#848484"/>
<path fill-rule="evenodd" clip-rule="evenodd" d="M298.058 185.277C304.288 180.554 311.218 179.555 317.623 182.552C323.853 185.459 328.57 191.544 331.598 200.627C340.682 227.966 332.646 276.013 327.056 302.172C325.6 309.075 323.795 312.708 321.408 313.525L321.408 313.525C321.058 313.616 320.709 313.707 320.36 313.707C316.481 313.707 312.026 306.613 306.48 297.783L306.384 297.63C301.086 289.183 295.088 279.647 287.867 272.925C275.814 261.663 269.874 249.038 270.224 235.232C270.864 211.163 291.07 190.636 298.058 185.277ZM321.058 310.889C322.747 310.253 324.203 307.165 325.425 301.352C338.236 241.225 333.811 213.25 330.026 201.987C327.231 193.631 322.863 188 317.099 185.275C314.828 184.185 312.498 183.64 310.111 183.64C306.268 183.64 302.425 185.003 298.814 187.727C292.06 192.905 272.553 212.614 271.97 235.321C271.621 248.037 277.327 259.935 288.799 270.562C296.125 277.31 302.423 287.357 307.522 295.492L307.665 295.721L307.731 295.826C313.177 304.501 317.868 311.975 321.058 310.889Z" fill="#848484"/>
<path fill-rule="evenodd" clip-rule="evenodd" d="M301.199 228.133C303.217 226.587 305.467 226.223 307.543 227.224C309.619 228.224 311.176 230.225 312.157 233.317C315.04 242.048 312.56 257.054 310.83 265.239C310.542 266.785 309.965 268.876 308.696 269.331C308.523 269.422 308.408 269.422 308.235 269.422C306.807 269.422 305.435 267.192 303.616 264.233L303.564 264.147C302.006 261.601 300.218 258.691 298.085 256.69C294.221 253.052 292.317 248.868 292.433 244.23C292.649 235.538 300.106 229.082 301.092 228.228C301.158 228.171 301.195 228.139 301.199 228.133ZM308.352 266.602C308.525 266.602 308.871 265.874 309.217 264.328C310.486 258.053 313.312 242.592 310.717 234.498C309.91 232.134 308.756 230.588 307.141 229.86C306.507 229.587 305.815 229.405 305.18 229.405C304.085 229.405 303.046 229.769 302.008 230.588C300.451 231.861 294.396 237.772 294.223 244.411C294.107 247.867 295.722 251.232 299.009 254.324C301.316 256.507 303.277 259.69 304.834 262.237C304.913 262.36 304.992 262.486 305.073 262.613C306.299 264.552 307.757 266.858 308.352 266.602Z" fill="#848484"/>
<path d="M868.999 259.398C836.598 223.726 797.575 194.03 766.638 210.689C744.256 222.73 728.729 257.859 720.584 315.079C716.834 341.516 707.46 358.175 692.753 364.603C665.214 376.735 621.153 348.849 590.392 299.687C565.724 260.394 555.822 217.207 563.205 181.264C570.06 147.946 571.994 111.731 569.005 73.7954C568.361 65.7375 567.482 57.6797 566.427 49.5312H564.611C565.724 57.8607 566.603 66.0091 567.248 74.1575C570.236 111.731 568.302 147.584 561.564 180.539C553.947 217.479 564.025 261.571 589.161 301.679C603.809 325.038 622.208 344.685 641.016 356.998C654.375 365.78 667.265 370.216 678.632 370.216C683.905 370.216 688.827 369.22 693.28 367.319C708.397 360.71 718.475 342.874 722.342 315.712C730.369 259.488 745.428 225.084 767.224 213.314C797.809 196.836 836.773 227.076 868.999 262.838V259.398V259.398Z" fill="#848484"/>
<path d="M868.999 188.842C845.072 157.271 807.539 129.318 777.043 138.816C758.101 144.696 743.674 164.146 734.232 196.44C721.154 241.128 704.557 272.428 684.852 289.615C663.74 307.979 644.974 304.903 632.951 299.114C618.407 292.058 605.857 277.222 597.588 257.321C589.026 236.786 585.859 212.542 588.733 189.113C594.656 140.445 596.943 93.5859 595.477 49.5312H593.717C595.125 93.3145 592.896 140.083 587.032 188.57C584.1 212.723 587.325 237.6 596.122 258.678C604.625 279.122 617.527 294.319 632.482 301.556C638.757 304.632 645.208 306.079 651.659 306.079C663.212 306.079 674.883 301.285 685.732 291.877C705.789 274.418 722.62 242.666 735.874 197.435C745.081 165.955 759.039 147.139 777.395 141.349C792.291 136.736 810.178 140.897 829.12 153.562C843.312 163.06 857.622 176.991 868.999 192.369V188.842V188.842Z" fill="#848484"/>
<path d="M486.07 1286.22C484.56 1284.01 482.643 1283.13 480.435 1283.48C472.941 1284.72 462.717 1301.07 454.99 1315.47H457.256C464.634 1301.86 474.045 1287.28 480.609 1286.13C482.294 1285.87 483.688 1286.49 484.85 1288.17C488.859 1293.91 493.332 1304.43 497.398 1315.47H499.432C495.191 1303.81 490.369 1292.5 486.07 1286.22Z" fill="#848484"/>
<path d="M868.999 136.831C864.177 137.464 858.826 137.464 853.122 136.65C833.069 133.755 808.842 121.811 786.613 103.715C760.857 82.7232 739.334 114.03 714.459 150.222C695.524 177.819 674.06 209.035 647.48 220.345C638.13 224.326 630.897 222.245 625.899 214.374C608.904 187.32 620.253 98.7384 628.016 51.0547H626.193C623.84 65.6222 621.135 83.8089 619.018 102.81C612.491 161.894 614.373 200.077 624.605 216.364C628.31 222.245 633.073 225.141 638.836 225.141C641.658 225.141 644.657 224.417 647.951 223.06C674.883 211.659 696.582 180.172 715.635 152.303C740.04 116.835 761.092 86.1615 785.731 106.248C808.43 124.797 832.305 136.56 852.887 139.455C858.65 140.269 864.06 140.36 868.941 139.726V136.831H868.999Z" fill="#848484"/>
<path d="M652.097 169.896C653.033 170.076 653.911 170.166 654.848 170.166C670.417 170.166 687.801 143.837 697.107 127.427C709.457 105.786 721.456 77.6542 729.826 51.0547H727.895C719.642 77.023 707.877 104.434 695.82 125.623C679.197 154.838 663.745 169.625 652.331 167.191C647.59 166.199 644.488 162.863 642.849 157.182C636.703 135.542 653.326 85.2283 666.378 51.1449H664.33C661.755 57.9976 659.004 65.3914 656.37 73.0556C642.03 114.623 636.937 143.296 641.269 158.264C643.083 164.846 646.771 168.814 652.097 169.896Z" fill="#848484"/>
<path d="M675.409 108.997C675.765 109.087 676.18 109.087 676.596 109.087C680.156 109.087 685.793 105.839 693.626 92.2129C699.442 82.1967 705.02 68.5711 708.284 56.6599C708.818 54.6747 709.411 52.2383 709.945 49.6215H708.106C707.69 51.5164 707.215 53.5016 706.681 55.5771C699.976 80.1213 684.666 108.185 675.705 106.199C674.044 105.839 672.976 104.756 672.382 102.771C669.356 92.3031 681.64 61.3522 686.921 49.5312H684.785C680.987 58.2841 667.16 91.2203 670.78 103.853C671.552 106.741 673.094 108.455 675.409 108.997Z" fill="#848484"/>
<path d="M868.942 100.039C860.926 106.785 851.623 109.247 841.208 107.15C829.565 104.87 816.517 97.2123 802.358 84.3576C790.012 73.1439 778.954 59.8333 771.113 49.5312H768.422C776.438 60.198 788.198 74.6937 801.48 86.728C815.873 99.7651 829.155 107.606 841.032 109.885C843.49 110.341 845.889 110.614 848.288 110.614C855.894 110.614 862.798 108.153 869 103.138V100.039H868.942Z" fill="#848484"/>
<path fill-rule="evenodd" clip-rule="evenodd" d="M494.051 860.633C505.219 850.418 524.574 850.145 551.589 859.904C570.253 866.696 586.291 876.134 588.592 877.488C588.67 877.534 588.732 877.571 588.778 877.598C606.144 882.614 608.308 887.083 608.191 890.367C608.074 894.836 603.396 900.947 568.078 909.155C546.151 914.263 520.013 918.458 500.951 921.468L496.214 922.198C492.764 922.745 489.665 923.019 486.859 923.019C476.158 923.019 469.901 919.006 468.264 911.162C465.282 897.025 479.023 874.406 494.051 860.633ZM567.726 906.507C602.4 898.39 606.259 892.461 606.318 890.272C606.376 889.178 605.148 885.165 588.25 880.24L588.074 880.148C588.065 880.144 588.013 880.113 587.92 880.058C586.177 879.02 569.992 869.386 551.119 862.546C540.886 858.806 528.665 855.523 517.555 855.523C508.843 855.523 500.773 857.62 494.868 863.002C487.442 869.842 480.483 878.689 475.747 887.354C470.777 896.566 468.672 904.683 469.841 910.338C471.654 918.729 480.659 921.921 495.92 919.459L500.715 918.82C502.124 918.591 503.571 918.356 505.052 918.116C523.609 915.107 547.473 911.237 567.726 906.507Z" fill="#848484"/>
<path fill-rule="evenodd" clip-rule="evenodd" d="M506.475 287.472C506.01 280.32 512.341 271.917 525.234 262.351C533.714 256.093 543.761 258.06 550.847 267.447C556.423 274.867 562.463 285.415 559.443 294.176C557.119 300.971 549.744 304.547 539.928 304.547C533.365 304.547 525.699 302.937 517.684 299.63C510.424 296.68 506.765 292.657 506.475 287.472ZM518.092 297.04C536.619 304.728 554.449 302.851 557.875 292.928C559.85 287.296 557.004 279.161 549.686 269.506C545.621 264.231 540.568 261.46 535.457 261.46C532.205 261.46 528.952 262.533 525.932 264.768C514.142 273.529 507.812 281.485 508.16 287.206C508.392 291.05 511.819 294.448 518.092 297.04Z" fill="#848484"/>
<path d="M691.408 1287.52C660.853 1281.57 642.906 1241.71 620.268 1191.22C613.934 1177.15 607.365 1162.55 599.975 1147.4C581.442 1109.44 560.681 1086.62 538.335 1079.59C512.941 1071.66 485.024 1083.92 455.406 1116.02C422.856 1151.28 375.761 1207.99 335.352 1260.65C324.033 1275.44 309.254 1295.09 294.768 1315.47H297.348C308.843 1299.42 321.922 1281.75 336.467 1262.72C376.817 1210.16 423.853 1153.44 456.345 1118.27C511.533 1058.49 559.39 1068.86 598.509 1149.11C605.84 1164.17 612.409 1178.78 618.743 1192.84C641.674 1243.88 659.797 1284.09 691.115 1290.23C713.343 1294.55 726.07 1303.03 729.12 1315.47H730.996C728.123 1301.5 714.809 1292.12 691.408 1287.52Z" fill="#848484"/>
<path d="M524.349 1183.04C513.232 1175.57 501.822 1176.47 490.411 1185.65C462.12 1208.32 436.475 1235.13 414.183 1265.45C400.479 1284.07 390.127 1301.16 382.48 1315.47H384.833C402.243 1283.35 435.887 1232.34 491.176 1187.99C502.116 1179.26 512.997 1178.36 523.584 1185.47C544.935 1199.77 561.639 1243.85 571.873 1278.4C575.814 1291.54 579.108 1304.4 581.755 1315.47H583.637C580.931 1304.13 577.579 1290.91 573.52 1277.32C558.463 1226.49 541.876 1194.73 524.349 1183.04Z" fill="#848484"/>
<path d="M763.532 760.238C765.193 760.876 766.736 761.149 768.218 761.149C776.167 761.149 781.742 752.494 783.818 743.201C786.31 731.812 784.352 716.506 774.15 709.946C757.66 699.287 746.094 696.098 739.688 700.38C736.781 702.293 735.417 706.849 735.714 713.226C736.129 721.335 739.273 731.448 744.136 740.376C749.593 750.398 756.474 757.414 763.532 760.238Z" fill="#848484" stroke="#575757" stroke-width="5"/>
<path fill-rule="evenodd" clip-rule="evenodd" d="M249.141 1000.64C247.071 994.12 247.426 984.7 253.223 979.447C261.977 971.567 273.807 975.19 278.48 981.349C280.491 983.976 281.201 987.055 280.432 989.953C278.894 996.112 272.979 1002.45 262.923 1008.7C261.445 1009.61 259.966 1010.06 258.605 1010.06C254.228 1010.06 250.798 1005.71 249.141 1000.64ZM262.273 1006.17C271.737 1000.28 277.475 994.301 278.835 988.957C279.427 986.693 278.362 984.7 277.297 983.432C274.813 980.172 269.903 977.726 264.698 977.726C261.09 977.726 257.364 978.904 254.111 981.802C249.26 986.149 248.905 993.757 250.739 999.373C252.573 1004.99 256.95 1009.52 262.273 1006.17Z" fill="#848484"/>
<path fill-rule="evenodd" clip-rule="evenodd" d="M342.48 1223.19C340.203 1232.3 315.506 1252.16 307.332 1257.4C305.581 1258.6 303.946 1259.06 302.311 1258.96C297.29 1258.96 293.378 1253.91 291.452 1247.84C288.999 1240.11 289.467 1228.99 296.122 1222.83C307.799 1211.97 335.882 1210.23 341.487 1217.77C342.655 1219.24 343.005 1221.17 342.48 1223.19ZM296.997 1225.21C291.275 1230.55 290.867 1239.83 293.027 1246.64C295.187 1253.44 300.383 1258.96 306.631 1254.82C316.965 1248.11 338.976 1229.35 340.786 1222.18C340.961 1221.53 341.019 1220.8 340.319 1219.88C335.298 1213.17 307.682 1215.28 296.997 1225.21Z" fill="#848484"/>
<path d="M96.6663 112.012C106.107 101.917 102.96 69.8125 99.8715 49.5312H98.0649C98.8808 54.6243 99.6384 60.5359 100.279 66.7203C101.795 82.4542 102.261 102.736 95.6755 109.829C87.9829 118.015 72.3645 107.283 49.1699 77.9069V81.4538C67.0612 103.918 80.6399 115.195 89.7312 115.195C92.412 115.104 94.7431 114.104 96.6663 112.012Z" fill="#848484"/>
<path fill-rule="evenodd" clip-rule="evenodd" d="M445.485 710.754C436.792 710.754 427.507 709.419 420.884 705.593C411.421 700.164 410.948 692.066 412.249 686.192C413.61 679.873 416.389 675.246 420.588 672.487C428.099 667.592 439.926 668.749 455.716 676.047C467.366 681.475 477.006 688.328 477.124 688.417C482.092 692.155 482.269 695.714 481.619 698.028C479.667 704.703 467.366 708.618 456.544 710.042C453.173 710.487 449.388 710.754 445.485 710.754ZM421.298 674.887C417.572 677.29 415.088 681.384 413.905 686.991C412.427 693.932 414.97 699.361 421.593 703.099C429.4 707.548 442.765 709.15 456.426 707.37C469.022 705.679 478.721 701.408 480.022 696.958C480.673 694.644 478.366 692.33 476.356 690.817C475.764 690.372 450.098 672.218 431.647 672.218C427.803 672.218 424.255 672.929 421.298 674.887Z" fill="#848484"/>
<path d="M763.171 1229.08C732.199 1220.41 728.503 1187.96 723.811 1146.85C718.531 1100.94 712.02 1043.83 664.624 998.287C640.867 975.515 618.107 961.237 594.995 954.641C574.347 948.767 553.817 949.128 532.348 955.815C492.459 968.286 454.8 1001.54 418.314 1033.62C384.175 1063.71 348.862 1094.89 310.851 1110.25C290.438 1118.56 270.963 1121.64 251.312 1119.83C229.256 1117.75 207.553 1109.53 185.027 1094.62C145.667 1068.59 106.542 1059.55 68.7653 1067.69C61.7849 1069.22 54.8631 1071.3 48 1074.01V1076.81C54.9804 1074.1 61.9608 1071.93 69.0586 1070.4C106.542 1062.27 145.315 1071.3 184.382 1097.06C212.128 1115.4 237.821 1122.99 262.047 1122.99C320.53 1122.99 370.449 1078.98 419.194 1036.06C457.205 1002.53 493.046 970.906 532.699 958.526C553.934 951.839 574.23 951.478 594.643 957.352C617.579 963.858 640.163 978.045 663.685 1000.64C684.509 1020.61 710.436 1045.46 722.109 1147.3C724.514 1168.54 726.626 1186.88 732.199 1201.61C738.358 1217.97 748.154 1227.54 762.877 1231.7C806.461 1243.99 832.388 1263.42 844.413 1292.88C847.288 1299.84 849.399 1307.43 850.807 1315.47H852.626C851.159 1306.89 848.989 1298.93 845.88 1291.43C833.562 1261.34 807.282 1241.46 763.171 1229.08Z" fill="#848484"/>
<path d="M729.049 1258.74C692.158 1250.25 688.697 1233.18 681.19 1195.96C674.621 1163.54 664.709 1114.4 625.941 1043.13C573.801 947.198 518.494 1007.18 454.448 1076.64C389.521 1147.1 315.915 1226.86 226.063 1169.41C191.635 1147.37 156.914 1136.53 122.779 1136.98C97.3837 1137.34 72.2226 1144.03 48 1156.85V1159.74C72.2226 1146.83 97.325 1140.14 122.779 1139.78C156.679 1139.24 191.166 1150.17 225.359 1172.03C265.828 1197.95 306.707 1198.4 350.226 1173.56C388.29 1151.79 422.424 1114.76 455.445 1078.99C487.116 1044.66 517.028 1012.24 545.004 1000.67C575.913 987.846 601.191 1001.94 624.592 1045.02C663.126 1115.93 672.979 1164.71 679.489 1196.96C686.996 1234.17 690.809 1252.87 728.814 1261.63C751.043 1266.78 764.943 1279.43 770.163 1299.21C771.453 1304.18 772.216 1309.6 772.509 1315.47H774.268C774.034 1309.24 773.213 1303.46 771.805 1298.22C766.292 1277.26 751.923 1264.07 729.049 1258.74Z" fill="#848484"/>
<path d="M546.76 1136.69C530.461 1120 508.591 1120.54 481.796 1138.58C460.513 1152.83 436.063 1178.09 409.093 1213.45C381.536 1249.72 356.91 1289.41 341.549 1315.48H343.894C359.256 1289.41 383.295 1250.8 410.207 1215.44C437.06 1180.17 461.334 1155.09 482.441 1140.93C508.65 1123.34 529.933 1122.61 545.705 1138.85C582.35 1176.47 601.816 1239.97 618.995 1295.99C621.047 1302.58 622.982 1309.07 624.975 1315.39H626.91C624.8 1308.71 622.689 1301.86 620.578 1294.82C603.399 1238.53 583.816 1174.66 546.76 1136.69Z" fill="#848484"/>
<path d="M498.997 1233.05C491.402 1224.67 481.588 1224.85 469.846 1233.59C460.615 1240.51 450.158 1252.71 438.767 1269.92C427.901 1286.4 418.145 1304.34 411.719 1317H413.997C432.224 1281.58 473.993 1208.83 497.945 1235.23C513.426 1252.35 522.481 1286.31 530.309 1317H532.179C524.234 1285.77 515.062 1250.8 498.997 1233.05Z" fill="#848484"/>
<path d="M210.909 1230.09C195.832 1224.15 180.228 1218.03 166.207 1210.74C131.42 1192.48 91.1177 1207.87 63.4285 1223.97C57.9728 1227.12 52.8104 1230.45 48 1233.78V1236.75C52.9864 1233.33 58.3834 1229.82 64.0738 1226.49C91.4697 1210.56 131.361 1195.36 165.62 1213.35C179.641 1220.73 195.304 1226.85 210.439 1232.79C244.464 1246.1 276.612 1258.7 278.841 1281.55C279.78 1291.18 275.439 1302.43 265.7 1315.47H268.282C277.492 1302.43 281.54 1291.09 280.601 1281.1C278.137 1256.45 246.987 1244.21 210.909 1230.09Z" fill="#848484"/>
<path d="M188.352 1270.33C176.763 1267.22 162.658 1267.4 149.664 1270.88C125.609 1277.28 78.552 1297.78 48 1311.59V1314.43C78.552 1300.61 125.902 1280.03 150.015 1273.53C162.833 1270.15 176.705 1269.87 188.118 1272.98C204.623 1277.47 210.417 1286.89 212.407 1294.12C214.221 1300.61 213.753 1308.3 211.061 1316.99H213.051C215.626 1308.02 215.919 1299.97 213.987 1293.02C210.066 1278.93 197.892 1272.89 188.352 1270.33Z" fill="#848484"/>
<path d="M120.031 770.527C146.522 798.019 163.812 837.448 178.992 872.264C196.223 911.694 211.168 945.787 234.495 951.303C236.664 951.846 238.891 952.027 241.118 952.027C259.111 952.027 280.503 936.02 307.64 902.288C327.977 876.967 344.915 853.997 359.86 833.649C391.392 790.693 414.191 759.675 439.393 749.637C465.123 739.327 493.373 750.179 536.861 786.986C572.378 817.1 614.753 837.809 653.025 843.778C670.842 846.581 687.018 846.039 699.853 842.06C713.392 837.9 722.887 830.394 727.986 819.632C734.96 804.891 736.66 777.49 704.952 730.555C667.032 674.396 623.896 667.613 578.239 660.469C547.997 655.767 516.699 650.793 485.109 631.169C449.357 609.012 418.353 570.488 390.279 513.605C369.531 471.553 345.325 451.658 320.182 456.089C303.068 459.074 286.247 473 270.188 497.327C254.071 521.925 239.535 555.837 227.11 598.16C217.85 629.541 207.652 645.638 195.754 647.266C170.025 650.793 140.251 584.053 111.533 519.483C97.1733 487.198 82.3451 453.919 68.2202 430.044C60.8941 417.474 54.2126 408.34 48 402.281V405.627C67.7514 425.704 89.2024 473.814 110.126 520.84C124.544 553.215 139.489 586.766 153.849 611.183C169.204 637.228 182.333 649.979 193.879 649.979C194.582 649.979 195.285 649.888 195.989 649.798C208.531 648.08 219.257 631.53 228.751 599.155C241.118 557.104 255.477 523.462 271.478 499.136C287.243 475.171 303.713 461.515 320.416 458.621C344.856 454.371 368.593 473.905 388.931 515.142C417.18 572.477 448.478 611.183 484.464 633.52C516.289 653.325 547.703 658.208 578.063 663.001C623.427 670.145 666.27 676.838 703.78 732.364C734.609 778.033 733.202 804.078 726.638 817.914C717.026 838.081 689.597 846.672 653.259 840.974C615.221 835.006 573.081 814.387 537.74 784.453C493.841 747.285 465.24 736.433 438.983 746.924C413.371 757.143 390.455 788.342 358.747 831.569C343.802 851.917 326.922 874.887 306.585 900.118C276.459 937.557 253.66 952.931 234.788 948.5C212.223 943.255 197.512 909.614 180.457 870.637C165.16 835.639 147.812 796.029 121.027 768.175C98.8143 745.115 77.6563 733.539 57.905 733.539C54.5642 733.539 51.2821 733.901 48 734.534V737.247C70.213 732.816 94.36 743.849 120.031 770.527Z" fill="#848484"/>
<path d="M80.8928 1037.42C108.04 1038.06 138.411 1046.47 165.206 1053.8C203.611 1064.39 233.865 1072.72 237.617 1053.53C243.246 1024.75 224.953 1000.95 194.581 961.584C172.828 933.348 145.682 898.234 116.659 847.736C94.8473 809.907 73.0947 792.712 52.1043 796.875C50.8144 797.146 49.4658 797.508 48 797.961V800.766C49.4072 800.314 50.873 799.861 52.3388 799.59C72.7429 795.608 93.9092 812.441 115.369 849.636C144.509 900.316 171.656 935.52 193.467 963.847C223.252 1002.49 241.253 1025.84 235.976 1052.9C232.692 1069.73 201.558 1061.13 165.558 1051.27C126.685 1040.5 81.0101 1027.92 48 1038.87V1041.68C57.3812 1038.51 68.2868 1037.15 80.8928 1037.42Z" fill="#848484"/>
<path d="M157.988 1022.27C173.191 1022.27 181.728 1018.01 183.365 1009.4C186.99 990.648 156.76 956.856 138.341 938.374C112.32 912.191 81.3296 887.549 64.6648 879.667C59.1099 877.04 53.4965 875.228 48 874.141V876.859C53.321 877.946 58.759 879.758 64.1386 882.294C80.6864 890.086 111.502 914.547 137.347 940.639C167.46 970.989 184.008 996.356 181.611 1008.59C179.272 1020.55 158.456 1022.72 122.962 1014.75C94.2522 1008.41 64.2555 997.262 48.0585 990.195V993.004C64.4309 1000.16 94.2522 1011.12 122.787 1017.56C136.996 1020.73 148.749 1022.27 157.988 1022.27Z" fill="#848484"/>
<path d="M82.8661 973.403C89.9216 973.403 93.8609 971.309 94.6253 967.122C96.2716 958.747 84.5123 944.819 74.3406 934.623C65.58 925.793 55.5847 917.418 48 912.32V915.324C55.4083 920.422 64.9921 928.524 73.3999 936.99C86.4526 950.099 93.9197 961.387 92.9202 966.394C91.3327 974.496 67.7555 969.944 48 963.116V965.847C53.9384 967.85 60.5824 969.853 67.0499 971.309C73.5175 972.675 78.7503 973.403 82.8661 973.403Z" fill="#848484"/>
<path fill-rule="evenodd" clip-rule="evenodd" d="M247.303 901.641C245.604 901.641 243.963 901.369 242.381 900.736C228.026 895.307 216.601 879.565 209.335 855.409C202.011 830.8 199.55 799.043 202.304 763.487C204.824 731.459 212.148 699.703 223.632 671.656C264.47 571.683 298.395 516.856 324.468 508.713C332.847 506.089 340.522 508.351 347.143 515.499C371.974 542.132 388.171 568.06 402.455 590.926L402.981 591.768L403.109 591.972C425.196 627.341 442.663 655.312 480.909 671.475C505.107 681.699 516.532 691.108 515.771 700.336C515.185 707.484 506.982 713.184 491.338 717.346C476.163 721.326 454.249 723.769 428 724.312C408.196 724.764 387.63 736.616 365.072 760.773C345.386 781.944 326.753 809.538 310.289 833.966C285.973 870.065 264.705 901.641 247.303 901.641ZM225.154 673.101C213.845 700.786 206.58 732.18 204.119 763.846C201.424 798.86 203.826 830.163 211.033 854.32C218.005 877.753 229.021 892.952 242.848 898.2C244.313 898.743 245.837 899.014 247.36 899.014C263.999 899.014 285.033 867.803 309.055 832.158L309.057 832.154C325.521 807.635 344.212 779.95 364.075 758.689C386.926 734.261 407.843 722.138 427.999 721.685C454.189 721.143 475.985 718.7 491.043 714.719C510.437 709.562 513.777 703.319 514.07 700.062C514.89 689.748 490.868 678.439 480.497 674.096C441.709 657.63 424.073 629.402 401.808 593.665L401.567 593.279C387.271 570.393 371.083 544.478 346.204 517.758C341.634 512.872 336.595 510.429 331.088 510.429C329.096 510.429 326.986 510.791 324.877 511.424C299.331 519.386 265.758 573.761 225.154 673.101Z" fill="#848484"/>
<path fill-rule="evenodd" clip-rule="evenodd" d="M661.429 801.867C633.887 795.694 602.468 785.435 583.911 778.445C552.903 766.824 539.631 756.565 538.163 742.948C536.812 730.692 545.386 715.894 565.059 696.375C575.806 685.753 589.783 683.483 606.755 689.838C620.203 694.831 635.531 705.181 652.327 720.614C680.28 746.307 703.125 777.718 704.241 779.262C712.462 788.249 715.751 794.967 714.283 799.961C712.873 804.591 707.236 806.951 697.135 806.951C688.502 806.951 676.639 805.226 661.429 801.867ZM589.079 689.015C580.153 689.015 572.459 692.283 566 698.638C547.266 717.249 538.751 731.593 539.866 742.306C541.511 757.648 563.239 767.816 584.263 775.715C635.238 794.87 708.234 813.572 712.58 798.774C713.167 796.777 712.756 791.874 703.125 781.343L703.067 781.252C703.053 781.237 702.964 781.116 702.803 780.898C700.161 777.316 678.122 747.435 651.387 722.878C634.768 707.626 619.617 697.367 606.344 692.465C600.178 690.195 594.423 689.015 589.079 689.015Z" fill="#848484"/>
<path fill-rule="evenodd" clip-rule="evenodd" d="M638.915 768.404C628.518 766.056 616.601 762.173 609.591 759.554C599.485 755.761 592.651 751.878 591.891 745.376C591.307 740.318 594.52 734.629 602.289 726.953C609.766 719.457 621.099 722.528 635.819 736.074C646.276 745.646 654.863 757.386 655.505 758.289C657.842 760.818 660.354 764.159 659.477 767.139C659.01 768.765 657.667 770.3 652.526 770.3C649.488 770.3 645.166 769.758 638.915 768.404ZM611.695 725.773C608.599 725.773 605.736 726.857 603.283 729.295C596.507 735.978 593.236 741.306 593.586 744.918C594.17 750.246 602.173 753.949 609.942 756.839C636.054 766.682 656.733 769.753 657.843 766.05C657.843 766.05 658.193 764.695 654.454 760.541L654.396 760.451C654.386 760.438 654.344 760.381 654.271 760.284C652.335 757.671 628.703 725.773 611.695 725.773Z" fill="#848484"/>
<path d="M776.474 271.305C762.217 279.354 753.769 300.337 741.976 329.459C736.284 343.568 729.772 359.577 721.616 376.58C695.097 431.479 668.401 411.31 624.163 377.937C601.34 360.662 572.884 339.227 537.74 323.671C486.637 301.06 452.548 302.236 433.539 327.289C416.113 350.261 410.598 392.679 416.113 460.782C420.924 519.841 449.673 565.334 501.539 596.084C550.413 625.026 608.263 633.256 638.361 635.698C690.697 639.768 736.636 652.249 775.008 672.599C805.634 688.879 831.508 710.223 851.867 736.09C858.556 744.591 864.247 753.003 869 761.143V757.163C864.482 749.747 859.26 741.969 853.158 734.191C832.623 708.053 806.573 686.527 775.712 670.157C737.164 649.717 690.99 637.236 638.479 633.076C608.439 630.724 550.823 622.494 502.185 593.643C450.964 563.344 422.567 518.575 417.873 460.601C412.417 393.493 417.756 351.889 434.712 329.55C453.252 305.13 486.813 304.045 537.27 326.475C572.297 342.031 600.636 363.375 623.4 380.559C645.871 397.563 663.649 410.948 679.49 413.3C696.681 415.832 710.117 405.069 723.025 378.389C731.239 361.386 737.751 345.287 743.501 331.087C755.059 302.417 763.449 281.705 777.12 274.018C791.553 265.878 811.091 272.752 842.539 296.99C852.102 304.407 860.903 312.546 869 321.139V317.702C861.138 309.381 852.572 301.603 843.301 294.458C811.325 269.857 791.377 262.893 776.474 271.305Z" fill="#848484"/>
<path d="M811.266 356.5C796.848 357.134 784.656 367.725 775.044 388.002C766.31 406.378 760.156 423.125 754.646 437.79C736.945 485.315 728.857 507.04 674.64 474.18C658.814 464.585 640.175 450.644 620.423 435.889C566.03 395.153 504.369 348.986 471.722 371.436C461.875 378.135 455.135 390.989 451.676 409.456C446.987 434.441 448.804 457.071 457.186 476.715C469.377 505.23 495.05 527.861 535.61 545.965C567.144 560.087 607.763 571.402 663.328 581.722C717.896 591.861 774.399 618.837 822.344 657.581C840.221 672.064 856.105 687.634 869 703.114V699.493C856.281 684.466 840.807 669.439 823.106 655.137C774.985 616.211 718.248 589.145 663.445 579.006C607.938 568.687 567.437 557.371 536.02 543.25C495.871 525.326 470.55 502.967 458.593 475.086C450.504 456.166 448.746 434.35 453.259 410.09C456.659 392.166 462.871 380.308 472.308 373.88C504.252 351.974 565.503 397.869 619.544 438.333C639.296 453.179 657.994 467.119 673.878 476.715C700.664 492.919 717.134 496.54 728.974 488.664C740.403 481.06 746.968 463.499 755.994 439.148C761.445 424.483 767.6 407.917 776.275 389.631C785.535 370.078 797.258 359.849 811.149 359.216C830.726 358.401 852.002 376.868 868.942 396.511V393.071C842.331 362.293 823.106 355.957 811.266 356.5Z" fill="#848484"/>
<path d="M808.568 425.787C798.261 428.509 790.649 441.031 785.906 462.989C771.734 528.41 738.59 523.964 716.631 521.06C704.685 519.427 696.018 518.338 694.964 528.955C693.618 542.384 698.361 552.728 710.072 561.348C720.496 569.06 735.487 575.049 752.82 581.854C789.126 596.19 835.622 614.61 868.941 661.884V658.163C835.446 611.706 789.302 593.468 753.23 579.223C718.798 565.612 693.969 555.813 696.663 529.318C697.424 521.605 704.334 522.149 716.455 523.783C727.699 525.234 741.635 527.14 754.811 520.244C770.388 512.078 781.104 493.658 787.545 463.897C792.054 443.027 799.257 431.05 808.86 428.509C826.955 423.609 850.788 451.829 869 478.868V475.057C868.063 473.605 867.067 472.244 866.072 470.792C842.414 437.038 823.09 421.886 808.568 425.787Z" fill="#848484"/>
<path d="M833.241 495.559C824.287 490.469 816.729 491.469 810.914 498.65C806.147 504.467 804.112 512.738 804.809 523.191C807.31 559.368 842.602 612.632 868.999 637.447V634.175C857.312 622.994 844.288 606.633 833.125 588.909C817.194 563.549 807.717 540.098 806.496 522.737C805.856 513.375 807.658 505.921 811.961 500.649C827.601 481.47 853.359 515.102 868.999 540.007V536.099C865.394 530.372 861.266 524.373 856.905 518.647C848.242 507.376 840.277 499.559 833.241 495.559Z" fill="#848484"/>
<path fill-rule="evenodd" clip-rule="evenodd" d="M666.471 524.382C666.673 524.605 666.786 524.73 666.805 524.749C673.778 532.842 676.239 539.48 674.13 544.481C671.786 549.845 664.227 551.937 654.265 551.937C640.611 551.937 622.328 548.027 606.272 543.026C567.186 530.932 529.917 510.383 506.595 488.105C480.342 463.009 471.435 435.822 480.87 409.453C483.389 402.36 487.609 397.814 493.351 395.813C511.869 389.448 546.735 409.18 596.896 454.644C632.147 486.465 662.941 520.482 666.471 524.382ZM650.925 549.026C667.157 549.663 671.493 545.389 672.606 542.843C674.54 538.479 669.969 531.75 665.75 526.931C664.227 525.203 549.372 397.358 500.793 397.358C498.215 397.358 495.871 397.722 493.703 398.449C488.488 400.268 484.679 404.36 482.393 410.725C477.705 423.818 477.764 437.094 482.628 450.278C487.023 462.281 495.402 474.192 507.474 485.74C530.62 507.836 567.655 528.295 606.565 540.297C623.266 545.48 639.029 548.572 650.925 549.026Z" fill="#848484"/>
<path fill-rule="evenodd" clip-rule="evenodd" d="M606.028 500.563C606.453 500.965 606.688 501.187 606.715 501.207C607.595 502.193 610.354 505.328 609.004 508.284C608.241 510.076 605.893 510.703 602.723 510.703C594.036 510.703 579.304 505.507 575.547 504.163C556.001 496.997 537.864 486.696 527.064 476.574C516.205 466.362 512.449 456.419 515.853 447.014C516.675 444.774 518.084 443.251 519.962 442.535C527.592 439.579 544.556 448.536 570.323 469.229C587.271 482.837 602.644 497.365 606.028 500.563ZM575.956 501.473C595.913 508.729 606.596 508.908 607.594 506.669C607.711 506.579 607.535 505.504 605.657 503.354C604.013 501.742 544.026 444.592 523.306 444.592C522.191 444.592 521.252 444.771 520.371 445.129C518.904 445.667 517.965 446.742 517.378 448.265C514.502 456.147 518.024 464.836 527.943 474.152C538.567 484.185 556.528 494.397 575.956 501.473Z" fill="#848484"/>
<path fill-rule="evenodd" clip-rule="evenodd" d="M259.981 833.693C254.133 837.49 249.337 839.027 245.419 839.027C237.465 839.027 233.138 832.698 230.681 826.008C215.066 783.247 250.332 645.561 298.288 591.86C312.616 575.859 325.483 569.349 336.478 572.604C345.543 575.316 353.321 584.447 359.637 599.816C365.836 614.823 368.819 632.181 368.41 650.081C368 667.89 364.199 684.977 357.473 699.442L355.66 703.329L355.554 703.556C333.247 751.491 310.198 801.018 259.981 833.693ZM299.34 594.203C277.643 618.522 256.297 663.453 242.261 714.351C229.102 761.994 225.183 805.389 232.202 824.735C236.939 837.663 246.004 839.833 259.279 831.154C309.107 798.699 332.033 749.428 354.198 701.695L356.011 697.807C362.561 683.794 366.246 667.25 366.655 649.983C367.064 632.625 364.14 615.81 358.175 601.345C352.151 586.7 344.724 577.931 336.185 575.399C334.431 574.857 332.618 574.586 330.805 574.586C321.506 574.586 310.979 581.185 299.34 594.203Z" fill="#848484"/>
<path fill-rule="evenodd" clip-rule="evenodd" d="M276.795 771.52C273.159 773.876 270.168 774.872 267.764 774.872C263.131 774.872 260.61 771.339 259.261 767.625C255.215 756.573 257.678 733.201 265.653 706.658C273.98 679.118 286.47 654.115 299.136 639.983C307.522 630.652 315.028 626.847 321.537 628.75C326.873 630.29 331.506 635.635 335.2 644.694C342.53 662.631 342.061 685.459 333.91 702.943C320.951 730.755 306.818 751.953 276.795 771.52ZM300.191 642.248C287.818 656.108 275.504 680.658 267.294 707.835C259.612 733.11 257.091 756.12 260.844 766.357C263.306 773.151 268.467 774.057 276.149 769.075C305.821 749.779 319.718 728.852 332.502 701.404C340.242 684.826 340.711 663.174 333.733 646.234C330.273 637.9 326.11 632.917 321.243 631.468C320.246 631.196 319.249 631.015 318.194 631.015C312.857 631.015 306.876 634.82 300.191 642.248Z" fill="#848484"/>
<path d="M843.073 778.597C828.116 764.922 813.217 762.025 801.192 770.447C783.302 782.853 775.09 817.629 782.129 851.317C783.947 860.011 782.832 866.984 778.844 872.418C766.232 889.443 725.466 890.892 666.926 876.312C616.363 863.724 561.871 840.993 534.361 820.889C511.543 804.226 493.125 801.509 479.575 812.648C467.55 822.519 459.631 843.71 456.64 873.776C452.182 918.785 390.885 961.711 341.613 996.124C306.653 1020.58 279.026 1039.86 275.33 1055.71C274.685 1058.43 274.744 1060.97 275.506 1063.32C278.791 1073.83 286.827 1075.64 301.667 1069.21C315.335 1063.23 334.691 1050.46 359.151 1034.25C397.103 1009.07 449.132 974.571 515.884 941.697C570.611 914.8 618.182 917.88 657.247 950.844C678.423 968.775 696.724 995.218 711.623 1029.45C724.351 1058.79 734.499 1093.84 740.893 1130.88C745.585 1158.05 755.85 1180.69 771.453 1198.16C784.064 1212.29 800.254 1223.16 819.493 1230.5C834.509 1236.2 851.579 1239.64 869 1240.64V1237.92C851.696 1236.92 834.803 1233.48 819.904 1227.78C800.899 1220.62 784.944 1209.85 772.509 1195.9C757.258 1178.78 747.228 1156.69 742.594 1130.06C736.141 1092.66 725.935 1057.34 713.089 1027.82C698.014 993.135 679.537 966.42 658.069 948.308C618.592 914.891 570.552 911.812 515.356 938.89C448.486 971.763 396.457 1006.27 358.448 1031.53C309.938 1063.68 283.19 1081.43 277.09 1061.96C276.562 1060.24 276.503 1058.43 276.973 1056.44C280.433 1041.68 309.117 1021.57 342.376 998.388C367.129 981.091 395.226 961.439 417.339 940.61C442.914 916.521 456.346 894.696 458.399 873.958C461.274 844.797 468.899 824.33 480.396 814.821C493.476 804.045 511.367 806.852 533.657 823.153C574.599 853.038 674.551 888.719 735.261 888.719C756.202 888.719 772.509 884.463 780.076 874.229C784.651 868.071 785.941 860.011 783.888 850.231C777.143 817.9 784.944 784.484 802.013 772.62C823.951 757.406 848.235 780.408 868.941 816.452V811.833C860.377 797.796 851.755 786.566 843.073 778.597Z" fill="#848484"/>
<path d="M836.116 822.316C830.02 819.421 824.276 820.416 819.059 825.211C803.761 839.414 807.102 865.467 810.033 888.536C812.084 904.548 814.018 919.656 809.271 928.069C805.988 933.859 799.599 936.301 789.811 935.397C767.479 933.406 746.026 926.079 728.793 920.199C705.875 912.419 689.287 906.719 683.25 917.123C681.432 920.289 680.553 923.817 680.729 927.707C681.198 940.01 691.749 954.394 705.171 972.578C724.455 998.812 748.487 1031.56 756.752 1075.53C764.841 1118.41 775.743 1160.83 800.947 1180.47C810.619 1187.97 821.931 1191.77 835.002 1191.77C845.201 1191.77 856.514 1189.51 868.94 1184.9V1182.09C840.805 1192.59 818.649 1191.23 801.709 1178.02C777.15 1158.84 766.365 1117.05 758.393 1074.71C749.953 1030.02 725.745 997.003 706.285 970.497C693.214 952.675 682.898 938.653 682.429 927.436C682.312 924.269 683.015 921.465 684.539 918.842C689.873 909.614 706.871 915.404 728.441 922.732C745.733 928.612 767.303 935.939 789.752 937.93C800.127 938.834 806.926 936.12 810.619 929.607C815.894 920.199 813.901 904.458 811.791 887.812C808.802 864.563 805.754 840.59 819.997 827.382C824.745 822.949 830.02 822.135 835.647 824.668C845.553 829.282 856.983 845.113 868.999 870.533V865.829C859.269 846.018 847.663 827.653 836.116 822.316Z" fill="#848484"/>
<path d="M847.639 912.155C839.119 916.411 833.166 930.629 832.874 947.655C832.699 958.341 831.298 964.952 828.439 969.027C822.252 977.812 808.071 976.453 782.275 974.008L779.24 973.736C769.261 972.831 763.833 974.823 762.024 979.985C759.281 988.045 765.992 1001.72 775.33 1020.74C783.676 1037.67 794.064 1058.68 799.9 1081.14C804.394 1098.35 812.039 1110.21 822.544 1116.46C828.73 1120.08 835.5 1121.53 842.27 1121.53C851.841 1121.53 861.354 1118.73 869 1115.56V1112.66C854.993 1118.54 837.426 1122.26 823.186 1113.93C813.148 1108.04 805.853 1096.63 801.534 1080.15C795.581 1057.32 785.135 1036.13 776.731 1019.11C768.444 1002.35 761.323 987.864 763.541 981.344C764.942 977.268 770.019 975.729 779.065 976.544L782.1 976.815C809.18 979.351 822.836 980.619 829.548 971.11C832.816 966.491 834.391 959.247 834.567 947.745C834.858 931.897 840.286 918.675 848.106 914.781C854.351 911.702 861.529 914.509 869 922.569V919.128C859.428 909.257 852.017 909.981 847.639 912.155Z" fill="#848484"/>
<path d="M832.75 1005.93C827.236 1015.57 825.535 1027.76 827.999 1040.31C830.697 1053.95 840.668 1061.68 857.62 1063.23C859.849 1063.41 862.078 1063.5 864.189 1063.5C865.832 1063.5 867.474 1063.41 868.999 1063.32V1060.59C854.863 1061.41 833.512 1059.23 829.641 1039.4C827.354 1027.76 828.937 1016.48 833.982 1007.66C841.02 995.377 853.631 989.101 868.94 989.919V987.191C853.221 986.554 840.14 993.103 832.75 1005.93Z" fill="#848484"/>
<path d="M112.741 727.487C134.989 741.529 156.236 755.027 170.596 755.027C174.481 755.027 177.836 754.03 180.602 751.856C184.486 748.776 186.958 743.25 188.018 735.55C190.548 717.432 178.012 699.948 159.002 673.496C140.168 647.316 114.389 611.534 91.612 557.905C76.133 521.579 61.5957 498.207 48.0589 487.789V490.778C61.066 501.196 75.1325 524.025 90.0818 559.354C113.035 613.345 138.873 649.219 157.766 675.489C176.305 701.307 188.606 718.338 186.252 734.916C185.251 741.891 183.133 746.602 179.719 749.319C167.536 759.194 141.227 742.525 113.389 724.86C95.0257 713.265 76.0153 701.217 59.5357 695.781C55.4158 694.423 51.5313 693.517 48 693.064V695.781C51.4136 696.234 55.1804 697.05 59.1826 698.408C75.5444 703.934 94.496 715.892 112.741 727.487Z" fill="#848484"/>
<path d="M103.647 678.672C109.7 678.672 113.542 676.331 115.114 671.738C118.955 660.212 107.372 638.239 80.5965 606.181C68.4892 591.772 55.9163 578.445 48 570.25V573.402C74.4846 600.687 119.654 652.287 113.6 670.477C112.32 674.35 108.827 676.061 103.938 676.061C91.0739 676.061 68.2564 664.714 48 652.647V655.529C52.3656 658.14 56.964 660.752 61.6207 663.273C80.48 673.539 94.5664 678.672 103.647 678.672Z" fill="#848484"/>
<path fill-rule="evenodd" clip-rule="evenodd" d="M355.341 892.281C358.523 884.038 361.881 876.609 365.417 870.087C376.612 849.252 393.582 838.381 410.611 840.918C420.628 842.458 425.695 847.893 425.754 857.224C425.872 888.114 364.768 952.613 337.251 957.143C333.244 957.867 330.18 958.139 327.882 958.139C322.933 958.139 321.283 956.78 320.694 954.787C319.515 950.62 323.758 944.641 330.828 934.677C338.371 924.078 348.682 909.584 355.341 892.281ZM390.755 915.023C411.319 892.557 424.105 870.362 424.047 857.318C424.047 849.618 419.45 844.998 410.553 843.729C408.962 843.458 407.371 843.367 405.78 843.367C390.932 843.367 376.672 853.694 366.832 871.812C363.355 878.153 360.056 885.581 356.933 893.644C350.217 911.15 339.856 925.721 332.272 936.385L332.067 936.673L331.8 937.051C326.815 944.089 321.709 951.299 322.404 953.613C322.816 955.063 325.703 956.331 337.134 954.429C349.744 952.345 370.78 936.854 390.755 915.023Z" fill="#848484"/>
<path d="M105.231 406.387C118.412 443.874 132.529 482.447 146.295 510.607C161.467 541.484 174.647 556.515 186.656 556.515C186.773 556.515 186.89 556.515 187.007 556.515C198.957 556.243 209.502 541.393 219.226 511.332C239.67 448.22 263.863 409.647 289.227 399.958C306.567 393.348 324.375 399.868 342.124 419.516C355.773 434.638 365.497 439.618 371.706 434.819C380.903 427.756 381.43 401.407 382.016 370.983C382.661 337.571 383.363 299.631 396.309 282.246C402.343 274.188 410.427 271.2 421.03 273.011C448.796 277.9 475.215 271.381 497.416 254.358C518.505 238.15 534.848 213.43 544.631 182.825C553.945 153.759 556.639 120.981 552.539 88.2031C550.84 74.5304 547.97 61.1294 544.045 48H542.053C555.761 92.7305 556.522 139.815 543.108 181.648C533.501 211.71 517.45 235.977 496.713 251.913C474.805 268.755 448.679 275.093 421.264 270.294C410.31 268.393 401.523 271.652 395.196 280.164C381.665 298.273 380.962 336.846 380.259 370.802C379.732 399.143 379.204 425.945 370.945 432.284C365.321 436.63 356.241 431.65 343.12 417.162C324.902 397.061 306.625 390.36 288.759 397.151C262.867 407.111 238.264 446.137 217.644 509.973C208.213 539.039 198.196 553.346 187.007 553.617C186.89 553.617 186.773 553.617 186.656 553.617C161.174 553.617 133.232 480.183 106.755 404.848C90.5282 358.94 70.8457 327.248 48 310.407V313.395C70.1428 330.146 89.3566 361.294 105.231 406.387Z" fill="#848484"/>
<path d="M127.293 290.809C137.44 290.809 146.354 288.551 153.686 283.946C170.401 273.471 178.729 252.071 178.435 220.105C178.142 188.771 183.597 165.474 195.092 148.95C223.419 107.954 284.414 114.998 349.046 122.583C358.547 123.666 368.4 124.84 378.077 125.833C387.519 126.827 396.199 127.278 404.176 127.278C440.597 127.278 461.241 117.255 465.757 97.2991C468.924 83.2125 463.646 66.1462 455.2 49.5312H452.913C461.593 66.0559 467.106 82.9417 464.115 96.4864C458.954 119.422 430.098 128.452 378.253 123.215C368.576 122.221 358.723 121.048 349.221 119.964C284.238 112.379 222.833 105.245 193.919 147.053C182.072 164.21 176.441 188.139 176.735 220.285C177.028 250.987 169.052 271.665 153.099 281.598C132.572 294.42 99.2006 288.551 61.4306 265.525C56.9147 262.816 52.4573 259.836 48 256.766V259.746C52.2227 262.726 56.5041 265.525 60.7855 268.053C85.5354 283.043 108.526 290.809 127.293 290.809Z" fill="#848484"/>
<path d="M93.7776 205.112C114.879 203.122 132.756 186.026 146.999 154.277L149.344 149.03C166.635 110.497 175.31 91.14 188.146 83.0896C200.983 75.0392 218.391 77.9337 253.091 83.8132C257.311 84.5368 261.824 85.2605 266.572 86.0745C307.719 92.8586 337.495 95.2104 357.6 93.0395C377.001 90.959 388.021 84.8986 392.241 73.9538C394.82 67.2602 394.703 59.1193 392.593 49.5312H390.776C392.886 58.7575 393.12 66.4461 390.717 72.5969C386.848 82.4564 376.005 88.3359 357.483 90.3259C337.437 92.4968 307.778 90.2354 266.748 83.3609C262 82.5469 257.487 81.8232 253.267 81.0996C218.274 75.1296 200.748 72.1447 187.443 80.5569C174.138 88.9691 165.346 108.507 147.879 147.493L145.534 152.739C131.584 183.765 114.175 200.498 93.6604 202.398C83.1099 203.393 67.8116 200.589 48 186.297V189.282C65.4084 201.674 79.3586 205.293 89.7333 205.293C91.1986 205.293 92.5467 205.202 93.7776 205.112Z" fill="#848484"/>
<path d="M117.559 140.79C125.918 134.766 131.646 124.516 134.51 110.311C138.777 89.6313 139.712 68.7721 139.011 49.5312H137.257C137.959 68.5023 137.024 89.0918 132.815 109.501C130.068 122.988 124.632 132.698 116.741 138.363C97.9772 151.849 68.8092 140.79 48 129.731V132.608C61.9702 139.981 79.623 147.264 95.5221 147.264C103.53 147.264 111.129 145.376 117.559 140.79Z" fill="#848484"/>
<path d="M480.081 116.293C468.456 151.664 416.966 146.87 416.379 146.779C387.551 146.779 360.778 143.613 337.176 140.718C302.066 136.467 271.712 132.848 249.284 141.804C237.424 146.508 228.207 154.559 221.161 166.319C213.529 178.984 208.362 196.082 205.309 218.426C195.152 293.149 168.555 302.105 147.125 309.252C134.209 313.594 123.053 317.303 119.354 335.034C116.008 351.227 119.883 383.432 129.335 417.084C139.434 453.179 153.173 481.132 166.089 491.807C170.258 495.244 174.426 496.963 178.36 496.963C185.875 496.963 192.979 490.812 199.203 478.78C208.655 460.506 216.347 440.604 223.803 421.336C237.718 385.331 249.695 354.302 268.307 347.337C279.756 343.085 293.083 348.332 308.936 363.62C329.955 383.793 344.515 390.126 353.498 382.979C364.653 374.114 365.769 346.703 366.943 317.574C368.528 278.494 370.172 238.057 396.24 239.866C402.229 240.228 407.983 240.499 413.561 240.499C469.924 240.499 506.502 219.964 522.295 179.256C534.742 147.322 531.572 108.785 526.757 82.1885C524.468 69.4332 521.591 58.2157 519.066 49.5312H517.129C519.712 58.2157 522.706 69.8855 525.055 83.0027C533.568 130.315 527.403 160.711 520.769 177.899C503.742 221.683 461.822 241.675 396.299 237.243C383.793 236.429 375.456 244.57 370.818 262.211C366.767 277.499 365.945 297.853 365.182 317.574C364.066 345.889 362.951 372.576 352.676 380.718C344.28 387.412 330.307 381.08 309.816 361.449C293.494 345.799 279.756 340.371 267.837 344.894C248.521 352.131 236.309 383.613 222.218 420.16C214.82 439.338 207.129 459.149 197.735 477.242C188.576 494.882 178.184 498.953 166.794 489.545C154.229 479.142 140.726 451.731 130.803 416.179C121.703 383.612 117.71 351.408 120.881 336.029C124.286 319.745 134.443 316.308 147.36 312.056C158.163 308.437 170.375 304.367 181.296 291.521C193.919 276.685 202.315 252.983 206.894 219.06C212.589 176.994 225.741 154.016 249.578 144.518C259.559 140.537 271.242 139.09 284.218 139.09C299.953 139.09 317.742 141.261 336.883 143.523C360.544 146.327 387.316 149.584 416.144 149.584C416.144 149.584 416.144 149.584 416.203 149.584C416.32 149.584 429.589 150.941 444.091 147.684C463.818 143.342 476.382 133.21 481.549 117.65C487.127 100.734 483.545 77.9368 470.863 49.6217H468.75C481.667 77.5749 485.424 100.01 480.081 116.293Z" fill="#848484"/>
<path d="M483.666 147.861C474.037 166.438 444.916 174.14 399.531 170.153C365.067 167.163 333.127 158.373 332.833 158.282C332.657 158.192 313.165 152.845 291.206 159.46C278.231 163.266 266.958 170.425 257.623 180.756C245.939 193.623 237.308 211.385 232.024 233.495C221.808 276.358 210.359 305.627 196.972 323.026C185.347 338.159 174.016 342.147 163.447 344.956C148.006 349.034 142.781 364.257 141.137 376.31C137.849 399.87 145.775 431.677 158.105 444.454C161.451 447.898 164.857 449.62 168.144 449.62C171.198 449.62 174.192 448.17 177.01 445.179C188.576 433.037 200.436 409.657 213.001 385.009C236.897 337.978 261.615 289.407 286.45 313.783C290.091 317.317 293.613 320.851 296.96 324.295C315.161 342.69 329.604 357.28 338.705 350.393C344.106 346.315 347.159 335.531 348.275 316.32C350.565 276.63 354.792 246.726 368.002 229.871C377.396 217.818 390.783 213.378 408.984 216.097C459.946 223.799 493.53 209.844 508.854 174.775C521.125 146.683 519.011 110.164 515.077 84.4285C512.846 69.839 509.793 56.9712 507.386 48H505.507C507.915 56.8806 511.085 70.0202 513.375 85.0628C517.191 110.255 519.246 145.958 507.386 173.234C492.473 207.397 459.418 220.899 409.16 213.378C390.489 210.569 376.692 215.281 366.887 227.786C353.265 245.276 348.862 275.723 346.513 316.139C345.457 334.082 342.697 344.503 337.941 348.037C329.722 354.199 315.689 340.062 297.958 322.12C294.553 318.676 291.03 315.142 287.39 311.608C275.589 300.009 262.848 302.909 248.463 320.489C235.899 335.713 223.569 359.998 211.651 383.468C199.203 408.026 187.402 431.134 176.071 443.095C169.436 450.073 163.213 446.539 159.103 442.28C147.301 430.046 139.728 399.508 142.839 376.944C144.425 365.707 149.298 351.48 163.741 347.674C174.544 344.775 186.111 340.697 198.088 325.11C211.709 307.349 223.334 277.717 233.668 234.402C238.834 212.744 247.23 195.436 258.562 182.93C267.662 172.872 278.759 165.894 291.441 162.088C299.661 159.642 307.528 158.826 314.163 158.826C324.966 158.826 332.364 160.91 332.481 160.91C332.775 161.001 364.832 169.791 399.414 172.781C446.031 176.859 474.859 169.066 485.017 149.492C495.056 130.281 497.405 104.274 491.769 74.3699C489.831 64.13 487.306 55.0682 485.075 48.0906H483.079C485.369 54.9776 488.07 64.4019 490.066 75.0948C493.882 95.3027 495.82 124.391 483.666 147.861Z" fill="#848484"/>
<path fill-rule="evenodd" clip-rule="evenodd" d="M295.716 183.754C301.946 179.031 308.876 178.031 315.281 181.029C321.57 183.935 326.287 190.021 329.256 199.103C338.34 226.442 330.304 274.49 324.714 300.648C323.259 307.551 321.453 311.184 319.066 312.002L319.066 312.002C318.717 312.093 318.367 312.183 318.018 312.183C314.139 312.183 309.684 305.09 304.139 296.26L304.043 296.107C298.744 287.66 292.746 278.123 285.525 271.402C273.472 260.139 267.532 247.514 267.882 233.709C268.522 209.639 288.728 189.112 295.716 183.754ZM318.718 309.366C320.407 308.73 321.863 305.642 323.086 299.829C335.954 239.701 331.529 211.726 327.686 200.464C324.891 192.108 320.523 186.476 314.759 183.752C312.488 182.662 310.159 182.117 307.771 182.117C303.928 182.117 300.085 183.479 296.474 186.204C289.72 191.381 270.213 211.091 269.63 233.797C269.281 246.513 274.988 258.412 286.459 269.038C293.785 275.787 300.083 285.834 305.182 293.968L305.325 294.198L305.392 294.303C310.837 302.978 315.529 310.451 318.718 309.366Z" fill="#848484"/>
<path fill-rule="evenodd" clip-rule="evenodd" d="M298.861 226.602C300.88 225.056 303.129 224.692 305.205 225.692C307.224 226.693 308.781 228.694 309.819 231.786C312.702 240.516 310.223 255.522 308.492 263.707C308.204 265.253 307.627 267.345 306.358 267.8C306.185 267.891 306.07 267.891 305.897 267.891C304.469 267.891 303.098 265.66 301.278 262.702L301.226 262.616C299.668 260.07 297.881 257.159 295.747 255.159C291.883 251.521 289.979 247.337 290.095 242.699C290.311 234.007 297.768 227.551 298.754 226.697C298.82 226.64 298.857 226.608 298.861 226.602ZM305.954 265.071C306.127 265.071 306.473 264.343 306.819 262.797C308.146 256.522 310.914 241.061 308.319 232.967C307.511 230.603 306.358 229.056 304.743 228.329C304.108 228.056 303.416 227.874 302.782 227.874C301.686 227.874 300.648 228.238 299.61 229.056C298.053 230.33 291.997 236.241 291.824 242.88C291.709 246.336 293.324 249.701 296.611 252.793C298.918 254.976 300.879 258.159 302.436 260.705C302.514 260.829 302.594 260.955 302.674 261.082C303.9 263.021 305.359 265.327 305.954 265.071Z" fill="#848484"/>
<path d="M764.844 210.689C742.403 222.73 726.835 257.859 718.669 315.079C714.91 341.516 705.51 358.175 690.765 364.603C663.155 376.735 618.978 348.849 588.136 299.687C563.404 260.394 553.476 217.207 560.878 181.264C567.751 147.946 569.69 111.731 566.694 73.7954C566.047 65.8281 565.166 57.6797 564.109 49.5312H562.288C563.404 57.8607 564.285 66.0091 564.931 74.1575C567.927 111.731 565.989 147.584 559.233 180.539C551.596 217.479 561.7 261.571 586.902 301.679C601.589 325.038 620.035 344.685 638.892 356.998C652.286 365.78 665.211 370.216 676.607 370.216C681.894 370.216 686.829 369.22 691.294 367.319C706.45 360.71 716.555 342.874 720.432 315.712C728.48 259.488 743.578 225.084 765.431 213.314C796.567 196.565 836.455 228.072 869 264.559V261.209C836.22 224.722 796.332 193.849 764.844 210.689Z" fill="#848484"/>
<path d="M775.634 138.816C756.716 144.696 742.307 164.146 732.877 196.44C719.815 241.128 703.239 272.428 683.559 289.615C662.473 307.979 643.73 304.903 631.723 299.114C617.197 292.058 604.662 277.222 596.404 257.321C587.852 236.786 584.689 212.542 587.559 189.113C593.475 140.445 595.701 93.4954 594.295 49.5312H592.538C593.944 93.3145 591.718 140.083 585.861 188.57C582.932 212.723 586.153 237.6 594.939 258.678C603.432 279.122 616.318 294.319 631.254 301.556C637.521 304.632 643.964 306.079 650.407 306.079C661.946 306.079 673.602 301.285 684.438 291.877C704.469 274.418 721.28 242.666 734.517 197.435C743.713 165.955 757.653 147.139 775.986 141.349C790.863 136.736 808.728 140.897 827.647 153.562C842.465 163.422 857.46 178.258 868.999 194.45V190.832C845.16 158.447 806.736 129.137 775.634 138.816Z" fill="#848484"/>
<path d="M484.902 1286.36C483.392 1284.04 481.475 1283.11 479.267 1283.49C471.773 1284.78 461.549 1301.91 453.822 1317H456.088C463.466 1302.74 472.877 1287.47 479.442 1286.26C481.126 1285.99 482.52 1286.63 483.682 1288.39C487.691 1294.41 492.164 1305.43 496.231 1317H498.264C494.023 1304.78 489.259 1292.84 484.902 1286.36Z" fill="#848484"/>
<path d="M851.558 135.217C831.534 132.322 807.34 120.378 785.143 102.282C759.423 81.2902 737.93 112.597 713.091 148.789C694.182 176.386 672.749 207.602 646.206 218.912C636.869 222.894 629.646 220.812 624.655 212.941C607.684 185.887 619.076 97.3054 626.828 49.5312H625.007C622.658 64.0987 619.957 82.2855 617.843 101.287C611.325 160.371 613.204 198.554 623.422 214.841C627.121 220.722 631.878 223.617 637.633 223.617C640.451 223.617 643.446 222.894 646.734 221.536C673.629 210.136 695.298 178.648 714.324 150.78C738.694 115.311 759.716 84.638 784.321 104.725C806.988 123.274 830.829 135.036 851.382 137.932C857.783 138.836 863.655 138.836 868.999 137.932V135.217C863.773 136.122 857.9 136.122 851.558 135.217Z" fill="#848484"/>
<path d="M650.929 168.372C651.865 168.553 652.743 168.643 653.68 168.643C669.249 168.643 686.633 142.314 695.939 125.903C708.289 104.263 720.288 76.1307 728.658 49.5312H726.727C718.474 75.4996 706.709 102.911 694.652 124.1C678.029 153.314 662.577 168.102 651.163 165.667C646.422 164.675 643.32 161.339 641.681 155.659C635.535 134.018 652.158 83.7048 665.21 49.6214H663.162C660.587 56.4742 657.836 63.8679 655.202 71.5322C640.862 113.099 635.769 141.773 640.101 156.741C641.974 163.323 645.603 167.2 650.929 168.372Z" fill="#848484"/>
<path d="M674.239 108.997C674.595 109.087 675.01 109.087 675.426 109.087C678.986 109.087 684.623 105.839 692.456 92.2129C698.272 82.1967 703.85 68.5711 707.114 56.6599C707.648 54.6747 708.241 52.2383 708.775 49.6215H706.936C706.52 51.5164 706.046 53.5016 705.511 55.5771C698.806 80.1213 683.496 108.185 674.535 106.199C672.874 105.839 671.806 104.756 671.212 102.771C668.186 92.3031 680.47 61.3522 685.751 49.5312H683.615C679.817 58.2841 665.99 91.2203 669.61 103.853C670.382 106.831 671.984 108.546 674.239 108.997Z" fill="#848484"/>
<path d="M839.409 105.618C827.679 103.339 814.534 95.6811 800.27 82.8263C787.833 71.6126 776.692 58.302 768.793 48H766.082C774.157 58.6667 786.005 73.1625 799.386 85.1967C813.886 98.2338 827.267 106.074 839.232 108.354C841.708 108.809 844.125 109.083 846.541 109.083C854.853 109.083 862.339 106.165 868.999 100.331V97.1398C860.452 104.889 850.609 107.806 839.409 105.618Z" fill="#848484"/>
<path fill-rule="evenodd" clip-rule="evenodd" d="M491.713 860.633C502.881 850.418 522.236 850.145 549.251 859.904C568.605 866.927 585.095 876.777 586.44 877.598C603.806 882.614 605.97 887.083 605.853 890.367C605.736 894.836 601.058 900.947 565.74 909.155C543.813 914.263 517.675 918.458 498.613 921.468L493.876 922.198C490.427 922.745 487.327 923.019 484.521 923.019C473.82 923.019 467.563 919.006 465.926 911.162C462.944 897.025 476.685 874.406 491.713 860.633ZM565.448 906.503C600.123 898.385 603.982 892.457 604.041 890.268C604.041 889.173 602.813 885.16 586.031 880.326L585.856 880.235C585.847 880.231 585.795 880.2 585.702 880.144C583.958 879.106 567.773 869.472 548.9 862.632C538.667 858.893 526.447 855.609 515.337 855.609C506.624 855.609 498.555 857.707 492.649 863.088C485.223 869.929 478.264 878.776 473.528 887.44C468.558 896.652 466.453 904.77 467.622 910.425C469.435 918.816 478.44 922.008 493.701 919.545L498.438 918.816C499.847 918.586 501.294 918.352 502.775 918.112C521.332 915.102 545.196 911.233 565.448 906.503Z" fill="#848484"/>
<path fill-rule="evenodd" clip-rule="evenodd" d="M505.303 285.956C504.839 278.804 511.169 270.401 524.062 260.835C532.542 254.578 542.648 256.544 549.675 265.931C555.251 273.351 561.291 283.9 558.271 292.661C555.948 299.455 548.572 303.031 538.756 303.031C532.193 303.031 524.527 301.422 516.512 298.114C509.252 295.164 505.594 291.141 505.303 285.956ZM516.976 295.524C535.503 303.213 553.333 301.335 556.76 291.412C558.677 285.691 555.889 277.645 548.571 267.99C544.506 262.716 539.453 259.944 534.342 259.944C531.089 259.944 527.837 261.017 524.817 263.252C513.027 272.013 506.696 279.969 507.045 285.691C507.277 289.535 510.704 292.932 516.976 295.524Z" fill="#848484"/>
<path d="M690.241 1288.87C659.685 1282.88 641.738 1242.77 619.1 1191.95C612.766 1177.79 606.197 1163.09 598.807 1147.85C580.274 1109.64 559.513 1086.68 537.168 1079.61C511.773 1071.62 483.856 1083.96 454.238 1116.27C421.688 1151.75 374.593 1208.83 334.184 1261.83C322.865 1276.71 308.086 1296.49 293.6 1317H296.18C307.675 1300.85 320.754 1283.06 335.299 1263.91C375.649 1211.01 422.685 1153.93 455.177 1118.54C510.365 1058.37 558.222 1068.81 597.341 1149.57C604.672 1164.73 611.241 1179.43 617.575 1193.58C640.506 1244.95 658.629 1285.42 689.947 1291.59C712.175 1295.95 724.902 1304.48 727.952 1317H729.828C726.955 1302.93 713.641 1293.5 690.241 1288.87Z" fill="#848484"/>
<path d="M522.354 1183.09C511.302 1175.54 499.958 1176.45 488.613 1185.73C460.487 1208.65 434.991 1235.76 412.829 1266.42C399.204 1285.25 388.912 1302.53 381.311 1316.99H383.65C400.958 1284.52 434.406 1232.94 489.374 1188.1C500.25 1179.27 511.068 1178.36 521.594 1185.55C542.82 1200.01 559.428 1244.59 569.602 1279.52C573.52 1292.8 576.795 1305.81 579.426 1316.99H581.297C578.608 1305.53 575.274 1292.16 571.24 1278.43C556.27 1227.03 539.78 1194.92 522.354 1183.09Z" fill="#848484"/>
<path fill-rule="evenodd" clip-rule="evenodd" d="M247.972 1000.64C245.901 994.12 246.256 984.7 252.053 979.447C260.748 971.567 272.637 975.19 277.31 981.349C279.321 983.976 280.031 987.055 279.262 989.953C277.724 996.112 271.809 1002.45 261.753 1008.7C260.275 1009.61 258.796 1010.06 257.435 1010.06C253.058 1010.06 249.628 1005.71 247.972 1000.64ZM261.043 1006.17C270.507 1000.28 276.244 994.301 277.605 988.957C278.196 986.693 277.131 984.61 276.067 983.432C273.582 980.172 268.673 977.726 263.468 977.726C259.86 977.726 256.133 978.904 252.88 981.802C248.03 986.149 247.675 993.757 249.509 999.373C251.342 1004.99 255.719 1009.52 261.043 1006.17Z" fill="#848484"/>
<path fill-rule="evenodd" clip-rule="evenodd" d="M341.31 1223.19C339.033 1232.3 314.336 1252.16 306.162 1257.4C304.411 1258.51 302.718 1259.06 301.141 1258.97C296.12 1258.97 292.208 1253.91 290.282 1247.84C287.83 1240.11 288.297 1228.99 294.952 1222.83C306.629 1211.97 334.713 1210.23 340.317 1217.77C341.485 1219.24 341.835 1221.17 341.31 1223.19ZM295.827 1225.21C290.106 1230.55 289.697 1239.83 291.857 1246.64C294.017 1253.44 299.155 1258.96 305.461 1254.82C315.795 1248.11 337.806 1229.35 339.616 1222.18C339.791 1221.53 339.849 1220.8 339.149 1219.88C334.128 1213.17 306.512 1215.28 295.827 1225.21Z" fill="#848484"/>
<path d="M95.4701 110.568C104.918 100.458 101.827 68.3094 98.6776 48H96.8697C97.6862 53.1001 98.4443 59.0199 99.0858 65.2129C100.602 80.9686 101.069 101.278 94.5371 108.382C86.8392 116.578 71.2102 105.832 48 76.415V79.8758C65.9034 102.371 79.4912 113.664 88.5887 113.664C91.2713 113.664 93.5457 112.571 95.4701 110.568Z" fill="#848484"/>
<path fill-rule="evenodd" clip-rule="evenodd" d="M443.16 710.754C434.47 710.754 425.188 709.419 418.567 705.593C409.109 700.253 408.576 692.066 409.936 686.192C411.296 679.873 414.074 675.246 418.272 672.487C425.78 667.592 437.603 668.749 453.388 676.047C465.034 681.475 474.67 688.328 474.788 688.417C479.754 692.155 479.931 695.714 479.281 698.028C477.33 704.703 465.034 708.618 454.215 710.042C450.845 710.487 447.062 710.754 443.16 710.754ZM418.922 674.982C415.197 677.385 412.715 681.478 411.532 687.085C410.054 693.938 412.596 699.366 419.217 703.193C427.021 707.643 440.382 709.245 454.038 707.465C466.63 705.774 476.325 701.502 477.626 697.053C478.276 694.739 475.97 692.425 473.96 690.912C473.369 690.467 447.712 672.312 429.267 672.312C425.425 672.312 421.878 673.024 418.922 674.982Z" fill="#848484"/>
</g>
</g>
<defs>
<filter id="filter0_d_1347_8825" x="0" y="0" width="821.031" height="1268.54" filterUnits="userSpaceOnUse" color-interpolation-filters="sRGB">
<feFlood flood-opacity="0" result="BackgroundImageFix"/>
<feColorMatrix in="SourceAlpha" type="matrix" values="0 0 0 0 0 0 0 0 0 0 0 0 0 0 0 0 0 0 127 0" result="hardAlpha"/>
<feOffset dx="6" dy="6"/>
<feGaussianBlur stdDeviation="27"/>
<feColorMatrix type="matrix" values="0 0 0 0 0 0 0 0 0 0 0 0 0 0 0 0 0 0 0.05 0"/>
<feBlend mode="normal" in2="BackgroundImageFix" result="effect1_dropShadow_1347_8825"/>
<feBlend mode="normal" in="SourceGraphic" in2="effect1_dropShadow_1347_8825" result="shape"/>
</filter>
</defs>
</svg>
