<svg width="89" height="92" viewBox="0 0 89 92" fill="none" xmlns="http://www.w3.org/2000/svg">
<path d="M80.4268 23.123C80.4268 23.615 80.4268 24.107 79.8682 24.599C75.4001 44.2781 60.8786 50.6738 41.889 50.6738H32.3941C30.16 50.6738 27.926 52.1498 27.926 54.1177L22.8992 81.6684L21.7822 89.5401C21.7822 91.016 22.8992 92 24.0163 92H41.3304C43.5645 92 45.24 90.524 45.24 89.0481V88.0642L48.5912 70.3529V69.369C49.1497 67.4011 50.8253 66.4171 52.5008 66.4171H55.2934C72.049 66.4171 84.8949 60.5134 88.246 43.2942C89.9216 35.9145 88.8046 30.0107 84.895 26.0749C83.7779 25.091 82.1024 24.107 80.4268 23.123Z" fill="#2199D6"/>
<path d="M75.9594 21.6459C75.4009 21.6459 74.8424 21.1539 73.7254 21.1539C73.1668 21.1539 72.0497 20.6619 71.4912 20.6619C68.6986 20.1699 65.906 20.1699 63.1134 20.1699H37.4216C36.8631 20.1699 36.3045 20.1699 35.746 20.6619C34.629 21.1539 33.512 22.1378 33.512 23.1218L27.9268 53.6244V54.6084C28.4853 52.6405 30.1608 51.1645 32.3948 51.1645H41.8898C60.8794 51.1645 75.4009 44.2768 79.869 25.0897C79.869 24.5977 79.8691 24.1057 80.4276 23.6138C79.3105 23.1218 78.1935 22.6298 77.0764 22.1378C76.5179 21.6459 75.9594 21.6459 75.9594 21.6459Z" fill="#252C5E"/>
<path d="M33.5112 23.1229C33.5112 22.139 34.6282 21.155 35.7452 20.6631C36.3037 20.6631 36.8623 20.1711 37.4208 20.1711H63.1127C65.9053 20.1711 69.2564 20.1711 71.4905 20.6631C72.049 20.6631 73.1661 20.6631 73.7246 21.155C74.2831 21.155 74.8416 21.647 75.9586 21.647C76.5172 21.647 76.5171 21.647 77.0757 22.139C78.1927 22.631 79.3098 23.123 80.4268 23.6149C81.5438 16.2353 80.4268 11.3155 75.9586 6.88768C70.932 1.9679 61.9956 0 50.8252 0H17.8726C15.6385 0 13.4044 1.47592 13.4044 3.44383L0 79.2084C0 80.6844 1.11704 82.1603 2.7926 82.1603H22.8993L27.926 53.6256L33.5112 23.1229Z" fill="#263577"/>
</svg>
