<svg width="111" height="37" viewBox="0 0 111 37" fill="none" xmlns="http://www.w3.org/2000/svg">
<path d="M102.97 0.525391H96.0298C93.9317 0.525391 92.3178 1.22283 91.3494 3.48949L78.1152 36.0946H87.476C87.476 36.0946 89.0899 31.7356 89.4127 30.6895C90.3811 30.6895 99.5804 30.6895 100.872 30.6895C101.194 31.91 102.001 35.9203 102.001 35.9203H110.394L102.97 0.525391ZM91.995 23.3664C92.8019 21.2741 95.5456 13.428 95.5456 13.428C95.5456 13.6023 96.3526 11.3356 96.6754 10.1151L97.3209 13.2536C97.3209 13.2536 99.0963 21.7972 99.419 23.5408H91.995V23.3664Z" fill="#3362AB"/>
<path d="M78.76 24.4103C78.76 31.7333 72.6271 36.6154 63.105 36.6154C59.0701 36.6154 55.1967 35.7436 53.0986 34.6974L54.3898 26.6769L55.5195 27.2C58.4246 28.5949 60.3613 29.1179 63.9119 29.1179C66.4942 29.1179 69.2379 28.0718 69.2379 25.6308C69.2379 24.0615 68.1081 23.0154 64.5575 21.2718C61.1683 19.5282 56.6493 16.7385 56.6493 11.6821C56.6493 4.70769 62.9436 0 71.8202 0C75.2094 0 78.1145 0.697436 79.8898 1.56923L78.5986 9.24102L77.9531 8.54359C76.3391 7.84615 74.241 7.14872 71.1746 7.14872C67.7853 7.32308 66.1714 8.89231 66.1714 10.2872C66.1714 11.8564 68.1081 13.0769 71.1746 14.6462C76.3391 17.2615 78.76 20.2256 78.76 24.4103Z" fill="#3362AB"/>
<path d="M0 0.871264L0.161392 0.173828H14.0411C15.9779 0.173828 17.4304 0.871264 17.9146 3.13793L20.981 18.8302C17.9146 10.461 10.8133 3.66101 0 0.871264Z" fill="#F9B50B"/>
<path d="M40.5099 0.522015L26.4687 35.9169H16.9466L8.87695 6.27586C14.6871 10.2861 19.5289 16.563 21.3042 20.922L22.2725 24.5836L30.9877 0.347656H40.5099V0.522015Z" fill="#3362AB"/>
<path d="M44.223 0.347656H53.0995L47.4508 35.9169H38.5742L44.223 0.347656Z" fill="#3362AB"/>
</svg>
