<svg width="198" height="205" viewBox="0 0 198 205" fill="none" xmlns="http://www.w3.org/2000/svg">
<path d="M189.149 157.321L189.148 157.321L105.379 201.417L105.372 201.421C103.426 202.455 101.233 203 99 203C96.767 203 94.5742 202.455 92.6277 201.421L92.6208 201.417L8.8516 157.321L8.85129 157.321C6.76861 156.225 5.04026 154.617 3.8389 152.673C2.63838 150.731 2.00573 148.521 2 146.273V58.7271C2.00573 56.4794 2.63838 54.2693 3.8389 52.3266C5.04026 50.3826 6.7686 48.7746 8.85129 47.6788L8.8516 47.6786L92.6208 3.58291L92.6277 3.57928C94.5743 2.54496 96.767 2 99 2C101.233 2 103.426 2.54496 105.372 3.57929L105.379 3.5829L189.148 47.6786L189.149 47.6788C191.231 48.7746 192.96 50.3827 194.161 52.3266C195.362 54.2699 195.995 56.4809 196 58.7294V146.271C195.995 148.519 195.362 150.73 194.161 152.673C192.96 154.617 191.231 156.225 189.149 157.321Z" fill="#D9D9D9" stroke="white" stroke-width="4"/>
</svg>
