<svg width="375" height="405" viewBox="0 0 375 405" fill="none" xmlns="http://www.w3.org/2000/svg">
<g clip-path="url(#clip0_254_2071)">
<path d="M268.657 306.144C268.045 306.625 267.084 306.611 265.986 306.105C264.889 305.599 263.745 304.642 262.806 303.446L107.039 104.957C106.1 103.76 105.443 102.422 105.212 101.236C104.982 100.049 105.197 99.1129 105.809 98.632C106.422 98.151 107.383 98.165 108.48 98.6709C109.578 99.1768 110.722 100.133 111.661 101.33L267.428 299.819C268.367 301.015 269.024 302.354 269.255 303.54C269.485 304.726 269.27 305.663 268.657 306.144Z" fill="#FAFAFA"/>
</g>
<defs>
<clipPath id="clip0_254_2071">
<rect width="367" height="188" fill="white" transform="translate(147.896) rotate(51.8764)"/>
</clipPath>
</defs>
</svg>
