<svg width="596" height="505" viewBox="0 0 596 505" fill="none" xmlns="http://www.w3.org/2000/svg">
<path fill-rule="evenodd" clip-rule="evenodd" d="M277.433 0.0480998C327.222 1.63785 364.362 42.8244 403.962 73.4629C442.493 103.274 485.527 129.964 504.044 175.376C523.387 222.812 514.338 274.819 506.762 325.571C497.642 386.668 510.575 471.854 455.755 498.863C397.983 527.326 340.974 448.087 277.433 438.556C228.692 431.246 179.853 468.115 133.724 450.562C80.8859 430.454 32.3519 390.826 11.8821 337.503C-9.04542 282.987 -0.825473 219.219 24.7938 166.802C48.5354 118.228 100.166 94.7713 144.977 65.1936C187.134 37.368 227.154 -1.55728 277.433 0.0480998Z" fill="#06B2B9" fill-opacity="0.4"/>
<path fill-rule="evenodd" clip-rule="evenodd" d="M187.353 284.807C187.086 242.295 155.531 197.369 175.646 161.015C195.798 124.595 245.046 129.497 281.568 114.533C313.505 101.449 341.837 80.8147 375.936 78.9534C417.585 76.6799 461.923 76.6158 496.077 102.824C533.538 131.571 562.588 176.691 567.901 226.261C573.159 275.323 548.652 321.172 523.9 362.448C501.107 400.457 470.336 430.744 433.088 451.069C395.551 471.552 354.624 479.604 312.635 477.729C264.976 475.601 204.998 482.156 177.398 439.654C149.248 396.306 187.687 337.857 187.353 284.807Z" fill="#2F566B" fill-opacity="0.81"/>
</svg>
