<svg width="37" height="39" viewBox="0 0 37 39" fill="none" xmlns="http://www.w3.org/2000/svg">
<path d="M32.1394 24.1401L25.3306 20.9241L25.3118 20.915C24.9583 20.7556 24.5727 20.6917 24.1899 20.7289C23.807 20.7661 23.4391 20.9034 23.1192 21.1282C23.0816 21.1545 23.0454 21.183 23.0108 21.2136L19.4929 24.3747C17.2643 23.2336 14.9633 20.8266 13.8808 18.5079L16.8842 14.7435C16.9131 14.7054 16.9405 14.6673 16.9665 14.6262C17.1753 14.29 17.3019 13.9046 17.3352 13.5043C17.3685 13.104 17.3074 12.7013 17.1573 12.3319V12.3136L14.0976 5.12454C13.8992 4.64201 13.5581 4.24005 13.1252 3.97866C12.6922 3.71728 12.1907 3.61048 11.6955 3.67422C9.73704 3.94586 7.93937 4.95965 6.63824 6.52624C5.3371 8.09284 4.62147 10.1051 4.62501 12.1872C4.62501 24.2833 13.9617 34.1247 25.4375 34.1247C27.4128 34.1284 29.3219 33.3741 30.8082 32.0026C32.2944 30.6312 33.2562 28.7363 33.5139 26.672C33.5745 26.1502 33.4734 25.6217 33.2257 25.1654C32.978 24.7091 32.5969 24.3494 32.1394 24.1401ZM25.4375 31.6872C20.5327 31.6815 15.8302 29.6253 12.362 25.9695C8.89369 22.3138 6.94287 17.3572 6.93751 12.1872C6.93208 10.6995 7.44056 9.26066 8.36799 8.13928C9.29543 7.01789 10.5784 6.29068 11.9773 6.09344C11.9767 6.09952 11.9767 6.10564 11.9773 6.11172L15.0125 13.2719L12.025 17.0409C11.9947 17.0776 11.9671 17.1169 11.9426 17.1582C11.7251 17.51 11.5975 17.915 11.5722 18.3341C11.5469 18.7531 11.6247 19.1719 11.7981 19.55C13.1076 22.3729 15.806 25.1958 18.513 26.5745C18.8743 26.7556 19.274 26.8348 19.6729 26.8043C20.0719 26.7739 20.4566 26.6349 20.7894 26.4009C20.8265 26.3745 20.8622 26.346 20.8963 26.3156L24.4099 23.1559L31.2029 26.3628C31.2029 26.3628 31.2144 26.3628 31.2188 26.3628C31.0339 27.8394 30.345 29.1944 29.281 30.1744C28.2169 31.1544 26.8505 31.6922 25.4375 31.6872Z" fill="#6B6B6B"/>
</svg>
