<svg width="24" height="24" viewBox="0 0 24 24" fill="none" xmlns="http://www.w3.org/2000/svg">
<g clip-path="url(#clip0_399_21512)">
<path fill-rule="evenodd" clip-rule="evenodd" d="M17.7665 3.48729C17.7391 3.37675 17.6828 3.27549 17.6034 3.19385C17.524 3.11221 17.4243 3.05314 17.3146 3.02266C17.2048 2.99219 17.089 2.99141 16.9789 3.02041C16.8687 3.04941 16.7683 3.10715 16.6878 3.18771L14.1164 5.75914C14.0379 5.83773 13.9812 5.93529 13.9517 6.04231C13.9222 6.14934 13.9209 6.26218 13.9479 6.36986L14.4108 8.22643C14.4047 8.23235 14.3987 8.23835 14.3928 8.24443L11.3186 11.3186C11.1483 11.5014 11.0556 11.7431 11.06 11.993C11.0644 12.2428 11.1656 12.4811 11.3423 12.6578C11.5189 12.8345 11.7573 12.9357 12.0071 12.9401C12.2569 12.9445 12.4987 12.8518 12.6815 12.6814L15.7582 9.60857C15.7643 9.60222 15.7703 9.59579 15.7762 9.58928L17.6315 10.0534C17.7392 10.0805 17.852 10.0792 17.959 10.0497C18.0661 10.0201 18.1636 9.96342 18.2422 9.885L20.8136 7.31357C20.8945 7.23311 20.9526 7.13257 20.9818 7.02227C21.011 6.91197 21.0103 6.79589 20.9798 6.68594C20.9493 6.57599 20.8901 6.47614 20.8082 6.39664C20.7264 6.31715 20.6249 6.26086 20.5141 6.23357L18.3168 5.68586L17.7665 3.48729ZM12.4076 3.97586C12.4253 4.2309 12.341 4.48253 12.1732 4.67541C12.0054 4.86828 11.7678 4.98663 11.5128 5.00443C10.1695 5.09752 8.88111 5.5743 7.8008 6.3781C6.72049 7.18191 5.89364 8.27895 5.41851 9.53888C4.94338 10.7988 4.83993 12.1687 5.12046 13.4856C5.40099 14.8026 6.05371 16.0114 7.00105 16.9683C7.94839 17.9253 9.15054 18.5901 10.4646 18.8839C11.7787 19.1777 13.1496 19.088 14.4142 18.6256C15.6789 18.1632 16.7842 17.3474 17.5988 16.2753C18.4134 15.2031 18.9032 13.9196 19.0098 12.5773C19.0301 12.3222 19.1509 12.0857 19.3456 11.9197C19.5403 11.7536 19.7929 11.6718 20.048 11.6921C20.3031 11.7124 20.5396 11.8331 20.7056 12.0278C20.8716 12.2225 20.9535 12.4752 20.9332 12.7303C20.7971 14.4406 20.173 16.0758 19.1349 17.4418C18.0968 18.8078 16.6884 19.8471 15.077 20.4362C13.4656 21.0253 11.719 21.1395 10.0447 20.7651C8.37034 20.3908 6.83865 19.5436 5.63158 18.3244C4.42452 17.1051 3.59282 15.565 3.2353 13.887C2.87778 12.209 3.00948 10.4636 3.61473 8.85822C4.21998 7.25284 5.27335 5.85495 6.6497 4.83062C8.02604 3.8063 9.66751 3.19859 11.3791 3.07971C11.6341 3.06205 11.8857 3.14639 12.0786 3.3142C12.2715 3.482 12.3898 3.72082 12.4076 3.97586ZM11.5436 8.21743C11.5898 8.33536 11.6124 8.46124 11.6099 8.58788C11.6074 8.71452 11.5801 8.83943 11.5293 8.95548C11.4786 9.07154 11.4055 9.17645 11.3142 9.26425C11.2229 9.35204 11.1152 9.42098 10.9972 9.46714C10.5756 9.63254 10.2018 9.90041 9.90961 10.2465C9.61747 10.5927 9.41618 11.0061 9.32395 11.4496C9.23172 11.893 9.25145 12.3525 9.38135 12.7864C9.51126 13.2203 9.74725 13.615 10.068 13.9348C10.3887 14.2546 10.7841 14.4894 11.2184 14.6181C11.6527 14.7467 12.1122 14.7651 12.5554 14.6716C12.9985 14.5781 13.4114 14.3756 13.7567 14.0824C14.102 13.7893 14.3688 13.4147 14.5329 12.9926C14.5788 12.8745 14.6476 12.7667 14.7352 12.6753C14.8228 12.5838 14.9275 12.5105 15.0434 12.4595C15.1594 12.4085 15.2842 12.3809 15.4108 12.3782C15.5374 12.3754 15.6633 12.3976 15.7814 12.4436C15.8994 12.4895 16.0072 12.5582 16.0987 12.6458C16.1901 12.7334 16.2634 12.8382 16.3144 12.9541C16.3654 13.07 16.393 13.1948 16.3958 13.3215C16.3985 13.4481 16.3763 13.574 16.3304 13.692C16.0499 14.4129 15.5943 15.0525 15.0046 15.5531C14.4149 16.0536 13.7097 16.3993 12.9529 16.5589C12.196 16.7184 11.4113 16.6869 10.6697 16.467C9.92815 16.2472 9.25305 15.8459 8.70547 15.2996C8.15788 14.7533 7.75508 14.0792 7.53348 13.3381C7.31189 12.597 7.27848 11.8124 7.43628 11.0552C7.59408 10.298 7.93811 9.592 8.43727 9.00113C8.93644 8.41025 9.57499 7.9531 10.2952 7.671C10.5332 7.57809 10.7984 7.58345 11.0325 7.6859C11.2666 7.78836 11.4504 7.97953 11.5436 8.21743Z" fill="#31566B"/>
</g>
<defs>
<clipPath id="clip0_399_21512">
<rect width="18" height="18" fill="white" transform="translate(3 3)"/>
</clipPath>
</defs>
</svg>
