<svg width="341" height="234" viewBox="0 0 341 234" fill="none" xmlns="http://www.w3.org/2000/svg">
<path d="M145.801 153.887L341 154.222V70.4055H145.801V153.887Z" fill="#EFEFEF"/>
<path d="M324.194 93.6525H162.608C162.528 93.6555 162.448 93.6399 162.374 93.6065C162.299 93.5731 162.231 93.5226 162.174 93.458C162.116 93.3935 162.07 93.3162 162.039 93.2308C162.008 93.1453 161.992 93.0535 161.992 92.9607C161.992 92.8679 162.008 92.7761 162.039 92.6906C162.07 92.6052 162.116 92.5279 162.174 92.4634C162.231 92.3988 162.299 92.3484 162.374 92.3149C162.448 92.2815 162.528 92.2659 162.608 92.2689H324.194C324.273 92.2659 324.353 92.2815 324.428 92.3149C324.502 92.3484 324.57 92.3988 324.628 92.4634C324.685 92.5279 324.731 92.6052 324.762 92.6906C324.794 92.7761 324.81 92.8679 324.81 92.9607C324.81 93.0535 324.794 93.1453 324.762 93.2308C324.731 93.3162 324.685 93.3935 324.628 93.458C324.57 93.5226 324.502 93.5731 324.428 93.6065C324.353 93.6399 324.273 93.6555 324.194 93.6525Z" fill="white"/>
<path d="M324.194 114.412H162.608C162.528 114.415 162.448 114.399 162.374 114.366C162.299 114.332 162.231 114.282 162.174 114.217C162.116 114.153 162.07 114.075 162.039 113.99C162.008 113.905 161.992 113.813 161.992 113.72C161.992 113.627 162.008 113.535 162.039 113.45C162.07 113.364 162.116 113.287 162.174 113.223C162.231 113.158 162.299 113.108 162.374 113.074C162.448 113.041 162.528 113.025 162.608 113.028H324.194C324.273 113.025 324.353 113.041 324.428 113.074C324.502 113.108 324.57 113.158 324.628 113.223C324.685 113.287 324.731 113.364 324.762 113.45C324.794 113.535 324.81 113.627 324.81 113.72C324.81 113.813 324.794 113.905 324.762 113.99C324.731 114.075 324.685 114.153 324.628 114.217C324.57 114.282 324.502 114.332 324.428 114.366C324.353 114.399 324.273 114.415 324.194 114.412Z" fill="white"/>
<path d="M324.193 135.171H228.227C228.069 135.171 227.917 135.098 227.805 134.968C227.693 134.839 227.63 134.663 227.63 134.479C227.63 134.295 227.693 134.119 227.805 133.99C227.917 133.86 228.069 133.787 228.227 133.787H324.193C324.352 133.787 324.503 133.86 324.615 133.99C324.727 134.119 324.79 134.295 324.79 134.479C324.79 134.663 324.727 134.839 324.615 134.968C324.503 135.098 324.352 135.171 324.193 135.171Z" fill="white"/>
<path d="M202.433 156.966L0 157.062L0.0152478 0.521484H202.433V156.966Z" fill="#EFEFEF"/>
<path d="M187.315 35.1593H15.1334C15.0255 35.1593 14.922 35.0764 14.8457 34.9287C14.7694 34.7811 14.7266 34.5808 14.7266 34.372C14.7266 34.1633 14.7694 33.963 14.8457 33.8154C14.922 33.6677 15.0255 33.5848 15.1334 33.5848H187.315C187.423 33.5848 187.526 33.6677 187.602 33.8154C187.679 33.963 187.721 34.1633 187.721 34.372C187.721 34.5808 187.679 34.7811 187.602 34.9287C187.526 35.0764 187.423 35.1593 187.315 35.1593Z" fill="white"/>
<path d="M187.315 66.315H15.1334C15.0255 66.315 14.922 66.2321 14.8457 66.0844C14.7694 65.9368 14.7266 65.7365 14.7266 65.5278C14.7266 65.319 14.7694 65.1187 14.8457 64.9711C14.922 64.8234 15.0255 64.7405 15.1334 64.7405H187.315C187.423 64.7405 187.526 64.8234 187.602 64.9711C187.679 65.1187 187.721 65.319 187.721 65.5278C187.721 65.7365 187.679 65.9368 187.602 66.0844C187.526 66.2321 187.423 66.315 187.315 66.315Z" fill="white"/>
<path d="M187.315 97.4697H15.1334C15.0255 97.4697 14.922 97.3867 14.8457 97.2391C14.7694 97.0915 14.7266 96.8912 14.7266 96.6824C14.7266 96.4736 14.7694 96.2734 14.8457 96.1257C14.922 95.9781 15.0255 95.8951 15.1334 95.8951H187.315C187.423 95.8951 187.526 95.9781 187.602 96.1257C187.679 96.2734 187.721 96.4736 187.721 96.6824C187.721 96.8912 187.679 97.0915 187.602 97.2391C187.526 97.3867 187.423 97.4697 187.315 97.4697Z" fill="white"/>
<path d="M101.457 128.625H15.1334C15.0255 128.625 14.922 128.542 14.8457 128.394C14.7694 128.247 14.7266 128.047 14.7266 127.838C14.7266 127.629 14.7694 127.429 14.8457 127.281C14.922 127.133 15.0255 127.051 15.1334 127.051H101.457C101.565 127.051 101.669 127.133 101.745 127.281C101.821 127.429 101.864 127.629 101.864 127.838C101.864 128.047 101.821 128.247 101.745 128.394C101.669 128.542 101.565 128.625 101.457 128.625Z" fill="white"/>
<path d="M259.527 41.374H59.7891C54.884 41.374 50.9077 45.6617 50.9077 50.951V208.645C50.9077 213.934 54.884 218.222 59.7891 218.222H259.527C264.432 218.222 268.409 213.934 268.409 208.645V50.951C268.409 45.6617 264.432 41.374 259.527 41.374Z" fill="white"/>
<path d="M259.527 218.541H59.7892C57.3561 218.538 55.0233 217.494 53.3028 215.639C51.5823 213.784 50.6146 211.268 50.6118 208.644V50.9505C50.6146 48.3268 51.5824 45.8114 53.3029 43.9562C55.0234 42.1009 57.3561 41.0573 59.7892 41.0543H259.527C261.96 41.0572 264.293 42.1008 266.013 43.9561C267.734 45.8113 268.701 48.3268 268.704 50.9505V208.644C268.702 211.268 267.734 213.784 266.013 215.639C264.293 217.494 261.96 218.538 259.527 218.541ZM59.7892 41.6927C57.513 41.6954 55.3308 42.6717 53.7213 44.4073C52.1117 46.1429 51.2064 48.496 51.2039 50.9505V208.644C51.2064 211.099 52.1117 213.452 53.7213 215.188C55.3308 216.923 57.513 217.899 59.7892 217.902H259.527C261.803 217.899 263.985 216.923 265.595 215.188C267.204 213.452 268.11 211.099 268.112 208.644V50.9505C268.11 48.496 267.204 46.1429 265.595 44.4073C263.985 42.6717 261.803 41.6954 259.527 41.6927H59.7892Z" fill="#292A2E"/>
<path d="M268.408 50.9506V60.5876H50.9084V50.9506C50.9084 48.4106 51.8442 45.9746 53.5097 44.1786C55.1753 42.3825 57.4343 41.3735 59.7898 41.3735H259.526C261.882 41.3735 264.141 42.3825 265.807 44.1786C267.472 45.9746 268.408 48.4106 268.408 50.9506Z" fill="#292A2E"/>
<path opacity="0.2" d="M144.636 138.447H112.469C108.41 138.447 105.12 141.995 105.12 146.372C105.12 150.748 108.41 154.296 112.469 154.296H144.636C148.694 154.296 151.984 150.748 151.984 146.372C151.984 141.995 148.694 138.447 144.636 138.447Z" fill="#367CFF"/>
<path opacity="0.2" d="M206.419 138.447H174.252C170.194 138.447 166.903 141.995 166.903 146.372C166.903 150.748 170.194 154.296 174.252 154.296H206.419C210.478 154.296 213.768 150.748 213.768 146.372C213.768 141.995 210.478 138.447 206.419 138.447Z" fill="#367CFF"/>
<path opacity="0.1" d="M246.925 103.039C246.926 105.037 246.561 107.016 245.852 108.862C245.143 110.708 244.104 112.386 242.794 113.799C241.483 115.212 239.928 116.333 238.216 117.098C236.504 117.863 234.669 118.256 232.816 118.256H92.0878C90.2347 118.256 88.3998 117.863 86.6878 117.098C84.9757 116.334 83.4201 115.213 82.1098 113.8C80.7995 112.387 79.7601 110.709 79.0509 108.863C78.3418 107.017 77.9768 105.038 77.9768 103.04C77.9768 101.042 78.3418 99.0633 79.0509 97.2171C79.7601 95.371 80.7995 93.6936 82.1098 92.2806C83.4201 90.8676 84.9757 89.7468 86.6878 88.9821C88.3998 88.2174 90.2347 87.8239 92.0878 87.8239H232.816C236.558 87.824 240.147 89.427 242.793 92.2803C245.439 95.1336 246.925 99.0034 246.925 103.039Z" fill="#367CFF"/>
<path d="M246.925 103.039C246.926 105.037 246.561 107.016 245.852 108.862C245.143 110.708 244.104 112.386 242.794 113.799C241.483 115.212 239.928 116.333 238.216 117.098C236.504 117.863 234.669 118.256 232.816 118.256H210.956V87.8239H232.816C236.558 87.824 240.147 89.427 242.793 92.2803C245.439 95.1336 246.925 99.0034 246.925 103.039Z" fill="#367CFF"/>
<path d="M97.6404 107.819L96.2079 102.878C96.1177 102.575 95.949 101.889 95.7019 100.818H95.6448C95.4547 101.714 95.2884 102.406 95.1459 102.893L93.6707 107.819H92.3024L90.1709 99.3963H91.4107C91.9142 101.512 92.2979 103.123 92.5618 104.23C92.7529 104.965 92.904 105.711 93.0144 106.465H93.0713C93.1238 106.173 93.2081 105.795 93.3244 105.331C93.4406 104.867 93.5416 104.5 93.6272 104.229L95.0598 99.3947H96.3426L97.7396 104.229C97.9682 104.954 98.1491 105.696 98.2811 106.449H98.3382C98.3752 106.162 98.4264 105.878 98.4916 105.596C98.5744 105.212 99.0697 103.145 99.9774 99.3947H101.203L99.0422 107.817L97.6404 107.819Z" fill="#0A0A0A"/>
<path d="M109.577 107.819L108.145 102.878C108.054 102.575 107.886 101.889 107.639 100.818H107.582C107.392 101.715 107.225 102.406 107.083 102.893L105.608 107.819H104.239L102.108 99.3964H103.348C103.851 101.512 104.235 103.124 104.499 104.23C104.69 104.965 104.841 105.711 104.951 106.465H105.008C105.061 106.173 105.145 105.795 105.261 105.331C105.378 104.868 105.479 104.5 105.564 104.229L106.997 99.3948H108.28L109.676 104.229C109.905 104.954 110.086 105.696 110.218 106.45H110.275C110.312 106.162 110.363 105.878 110.428 105.597C110.511 105.212 111.007 103.145 111.914 99.3948H113.14L110.981 107.817L109.577 107.819Z" fill="#0A0A0A"/>
<path d="M121.514 107.819L120.082 102.878C119.991 102.575 119.822 101.889 119.576 100.818H119.518C119.328 101.715 119.162 102.406 119.02 102.893L117.543 107.819H116.175L114.043 99.3964H115.283C115.787 101.512 116.171 103.124 116.434 104.23C116.625 104.965 116.776 105.711 116.887 106.465H116.944C116.996 106.173 117.081 105.795 117.197 105.331C117.313 104.868 117.414 104.5 117.5 104.229L118.932 99.3948H120.215L121.614 104.231C121.842 104.957 122.023 105.699 122.155 106.452H122.212C122.249 106.165 122.3 105.88 122.366 105.599C122.449 105.214 122.944 103.147 123.852 99.397H125.078L122.916 107.82L121.514 107.819Z" fill="#0A0A0A"/>
<path d="M225.539 107.272C223.88 107.273 222.276 106.633 221.018 105.467C219.76 104.302 218.932 102.688 218.684 100.92C218.435 99.1516 218.784 97.3459 219.665 95.831C220.547 94.3161 221.903 93.1925 223.488 92.6645C225.072 92.1365 226.78 92.2391 228.301 92.9536C229.821 93.6681 231.053 94.9472 231.773 96.5583C232.494 98.1694 232.654 100.006 232.225 101.733C231.796 103.461 230.806 104.965 229.436 105.973C228.287 106.818 226.929 107.27 225.539 107.272ZM225.517 93.9194C224.112 93.9203 222.761 94.5046 221.745 95.5511C220.729 96.5977 220.126 98.026 220.06 99.5395C219.995 101.053 220.473 102.536 221.394 103.679C222.316 104.823 223.611 105.54 225.01 105.682C226.409 105.823 227.805 105.378 228.907 104.439C230.01 103.5 230.735 102.14 230.932 100.639C231.129 99.139 230.783 97.6146 229.965 96.3826C229.147 95.1505 227.92 94.3055 226.54 94.0228C226.203 93.9542 225.86 93.9196 225.517 93.9194Z" fill="white"/>
<path d="M235.752 113.755C235.644 113.755 235.537 113.73 235.439 113.681C235.341 113.631 235.254 113.559 235.185 113.47L229.013 105.528C228.887 105.366 228.825 105.156 228.843 104.945C228.86 104.735 228.954 104.54 229.104 104.404C229.255 104.268 229.449 104.202 229.645 104.22C229.84 104.239 230.021 104.341 230.147 104.503L236.319 112.444C236.41 112.561 236.468 112.703 236.486 112.853C236.504 113.004 236.482 113.157 236.423 113.294C236.363 113.432 236.269 113.548 236.15 113.63C236.031 113.712 235.893 113.755 235.752 113.755Z" fill="white"/>
<path d="M21.5808 204.856C20.2399 204.856 18.9189 204.48 17.7302 203.76C16.5415 203.04 15.5203 201.998 14.7536 200.722C13.9869 199.446 13.4974 197.974 13.3267 196.431C13.156 194.888 13.3093 193.32 13.7733 191.861C14.2441 190.379 25.3302 155.505 27.4322 149.221L42.9505 156.204C41.7686 159.737 37.4866 173.13 34.0466 183.918L39.7617 183.197L41.5605 202.392L22.4815 204.798C22.1824 204.836 21.8817 204.855 21.5808 204.856Z" fill="#367CFF"/>
<path d="M31.5547 203.869L29.0168 218.522H78.3088L75.4695 203.59L31.5547 203.869Z" fill="#262626"/>
<path d="M42.2123 138.385C38.0941 138.739 33.8948 140.292 30.8026 143.467C26.1386 148.255 26.5536 151.249 28.8819 164.511C30.8851 175.922 30.0906 180.908 31.4306 201.965C31.4701 202.585 31.5547 203.868 31.5547 203.868L75.6091 203.783C75.6091 203.783 79.7372 175.847 82.0162 162.962C83.7493 153.166 88.3017 141.274 69.1075 138.877C69.0569 138.872 53.6627 137.4 42.2123 138.385Z" fill="#367CFF"/>
<path d="M132.441 127.822C130.366 127.822 128.343 127.064 126.659 125.657C124.976 124.249 123.716 122.264 123.059 119.98C122.402 117.697 122.38 115.232 122.997 112.934C123.613 110.635 124.838 108.62 126.496 107.173C128.154 105.726 130.163 104.92 132.238 104.87C134.312 104.82 136.348 105.527 138.057 106.893C139.766 108.259 141.062 110.213 141.761 112.48C142.46 114.746 142.526 117.21 141.952 119.523C141.355 121.914 140.105 124.016 138.389 125.513C136.674 127.009 134.587 127.82 132.441 127.822ZM132.434 107.438C130.486 107.437 128.61 108.292 127.184 109.832C125.759 111.371 124.889 113.481 124.751 115.734C124.613 117.988 125.217 120.219 126.441 121.977C127.664 123.735 129.417 124.889 131.346 125.207C133.274 125.525 135.235 124.983 136.832 123.691C138.43 122.398 139.546 120.451 139.955 118.242C140.364 116.033 140.036 113.726 139.037 111.787C138.037 109.847 136.441 108.419 134.571 107.791C133.876 107.558 133.157 107.439 132.434 107.438Z" fill="#0A0A0A"/>
<path d="M124.085 141.967C123.904 141.967 123.726 141.916 123.566 141.817C123.405 141.719 123.269 141.576 123.167 141.402C123.065 141.228 123.002 141.028 122.982 140.819C122.963 140.61 122.988 140.399 123.055 140.203L128.102 125.515C128.214 125.203 128.427 124.954 128.696 124.823C128.964 124.692 129.267 124.689 129.537 124.814C129.808 124.939 130.025 125.182 130.142 125.492C130.26 125.801 130.267 126.151 130.164 126.467L125.116 141.156C125.034 141.395 124.892 141.601 124.708 141.745C124.524 141.89 124.307 141.967 124.085 141.967Z" fill="#0A0A0A"/>
<path d="M120.221 140.356L123.316 132.302C123.385 132.126 123.484 131.967 123.607 131.837C123.731 131.707 123.877 131.608 124.035 131.547C124.194 131.486 124.362 131.463 124.528 131.481C124.694 131.5 124.855 131.558 125.001 131.652C125.266 131.836 125.463 132.128 125.553 132.47C125.642 132.813 125.62 133.182 125.488 133.506L124.825 135.233L129.06 130.913C129.524 130.424 130.363 130.167 130.803 130.806C130.986 131.04 131.095 131.338 131.113 131.653C131.131 131.967 131.056 132.28 130.901 132.539C130.906 132.543 130.911 132.547 130.915 132.552C130.918 132.557 130.92 132.561 130.922 132.566L131.638 131.811C131.77 131.671 131.928 131.567 132.099 131.507C132.271 131.447 132.452 131.432 132.629 131.463C132.806 131.495 132.975 131.571 133.123 131.688C133.271 131.804 133.395 131.958 133.486 132.137C133.624 132.422 133.673 132.754 133.625 133.077C133.578 133.399 133.436 133.693 133.224 133.909L132.92 134.231C132.924 134.245 132.925 134.26 132.925 134.275C133.174 134.114 133.464 134.06 133.744 134.124C134.024 134.188 134.276 134.365 134.453 134.624C134.64 134.914 134.726 135.276 134.694 135.636C134.662 135.997 134.513 136.33 134.279 136.569L133.523 137.367C133.54 137.364 133.558 137.367 133.575 137.374C133.591 137.381 133.606 137.392 133.618 137.407C133.632 137.426 133.64 137.449 133.643 137.473C133.899 137.4 134.169 137.427 134.411 137.55C134.652 137.672 134.853 137.884 134.981 138.151C135.111 138.435 135.154 138.762 135.103 139.078C135.053 139.394 134.912 139.682 134.704 139.893L128.326 146.628C127.434 147.57 126.32 148.182 125.126 148.385C123.932 148.588 122.713 148.372 121.626 147.766C120.688 147.244 119.963 146.317 119.604 145.185C119.246 144.052 119.282 142.801 119.706 141.699L120.221 140.356Z" fill="#E98862"/>
<g opacity="0.2">
<path d="M126.727 136.837C126.746 136.862 126.774 136.877 126.803 136.879C126.832 136.88 126.86 136.869 126.882 136.846L130.906 132.733C130.917 132.722 130.926 132.708 130.932 132.693C130.939 132.678 130.942 132.661 130.943 132.644C130.944 132.627 130.942 132.61 130.938 132.594C130.933 132.578 130.925 132.564 130.916 132.551C130.906 132.538 130.894 132.528 130.881 132.521C130.868 132.513 130.854 132.509 130.839 132.508C130.825 132.507 130.81 132.509 130.796 132.514C130.783 132.52 130.77 132.529 130.759 132.54L126.736 136.653C126.725 136.665 126.716 136.678 126.709 136.693C126.703 136.709 126.699 136.725 126.698 136.742C126.697 136.759 126.699 136.776 126.704 136.792C126.709 136.808 126.716 136.822 126.726 136.835L126.727 136.837Z" fill="#0C0C0C"/>
</g>
<g opacity="0.2">
<path d="M128.242 138.946C128.261 138.971 128.289 138.986 128.318 138.987C128.347 138.989 128.375 138.978 128.397 138.955L132.888 134.364C132.898 134.353 132.907 134.34 132.914 134.324C132.92 134.309 132.924 134.293 132.925 134.276C132.926 134.259 132.924 134.242 132.919 134.226C132.914 134.21 132.907 134.195 132.897 134.183C132.877 134.158 132.85 134.143 132.821 134.141C132.792 134.139 132.763 134.15 132.741 134.171L128.25 138.762C128.239 138.773 128.23 138.787 128.224 138.802C128.217 138.817 128.214 138.834 128.213 138.85C128.212 138.867 128.214 138.884 128.218 138.9C128.223 138.916 128.231 138.931 128.24 138.944L128.242 138.946Z" fill="#0C0C0C"/>
</g>
<g opacity="0.2">
<path d="M129.871 141.24C129.891 141.265 129.918 141.28 129.947 141.282C129.977 141.284 130.005 141.272 130.027 141.25L133.609 137.588C133.62 137.577 133.629 137.563 133.635 137.548C133.641 137.533 133.645 137.516 133.646 137.499C133.647 137.482 133.645 137.465 133.64 137.449C133.636 137.433 133.628 137.419 133.619 137.406C133.609 137.393 133.597 137.383 133.584 137.376C133.571 137.368 133.557 137.364 133.542 137.363C133.528 137.362 133.513 137.364 133.499 137.369C133.486 137.375 133.473 137.384 133.462 137.395L129.88 141.057C129.869 141.068 129.86 141.081 129.854 141.096C129.847 141.112 129.843 141.128 129.842 141.145C129.842 141.162 129.844 141.179 129.848 141.195C129.853 141.211 129.86 141.226 129.87 141.238L129.871 141.24Z" fill="#0C0C0C"/>
</g>
<path d="M118.286 137.742L99.5201 162.255L80.5574 143.225L69.6667 157.827L94.841 183.091L95.0108 183.261C95.07 183.319 95.1295 183.377 95.1895 183.434C96.8673 185.009 99.0158 185.746 101.162 185.483C103.309 185.22 105.277 183.979 106.635 182.033L129.7 148.966L118.286 137.742Z" fill="#367CFF"/>
<path d="M69.1073 138.879C69.0563 138.871 67.6581 144.975 56.7454 144.025C49.1907 143.369 47.3486 137.404 47.1755 137.404C47.99 137.203 49.3128 136.994 49.6745 136.77C50.8641 136.029 51.7306 135.126 52.1669 133.189C52.508 131.675 52.6818 125.843 52.6818 122.918L64.3068 125.948C64.1448 129.248 63.0107 136.899 66.9856 138.253C67.647 138.477 68.3594 138.683 69.1073 138.879Z" fill="#E98862"/>
<path d="M63.9052 132.436C59.3224 132.856 53.4353 130.611 52.317 123.519L51.3081 117.119C50.1897 110.027 52.4948 103.596 58.2518 102.375C64.0086 101.153 69.2183 105.99 70.3365 113.083L70.7832 115.914C71.2116 118.637 72.0813 131.688 63.9052 132.436Z" fill="#E98862"/>
<path d="M68.154 125.925C67.3316 121.131 66.9543 117.932 66.998 114.557C68.1567 112.2 67.852 109.494 67.5886 108.325C68.7242 109.043 69.1991 109.123 70.268 109.123C70.268 109.123 68.3518 100.202 61.8388 97.8017C60.6404 97.2611 57.5834 96.5781 53.5233 97.224C50.07 97.7734 41.5574 100.769 40.3403 111.885V111.892C40.2999 112.26 39.4827 122.503 37.8533 127.417C35.6625 134.023 32.5874 136.076 32.6653 143.698C32.7656 153.502 48.3043 154.807 57.6775 154.074C67.0508 153.34 72.281 149.766 72.3493 142.7C72.4248 134.781 69.7999 135.517 68.154 125.925Z" fill="#0A0A0A"/>
<path d="M68.1567 121.906C66.4071 122.277 64.6465 120.407 64.3267 118.377C64.0069 116.348 65.2484 114.927 66.9979 114.557L68.1567 121.906Z" fill="#E98862"/>
<path d="M80.9634 169.292C80.9565 169.292 80.9495 169.291 80.9427 169.289C80.9284 169.286 80.9147 169.28 80.9025 169.271C80.8903 169.261 80.8797 169.249 80.8715 169.235C80.8632 169.222 80.8574 169.206 80.8544 169.189C80.8514 169.173 80.8513 169.156 80.854 169.139L81.9707 162.276C81.973 162.258 81.9781 162.242 81.9859 162.227C81.9937 162.213 82.004 162.2 82.0162 162.19C82.0283 162.18 82.0421 162.173 82.0567 162.169C82.0713 162.165 82.0864 162.165 82.101 162.168C82.1157 162.171 82.1297 162.178 82.1421 162.188C82.1545 162.197 82.1651 162.21 82.1733 162.224C82.1815 162.239 82.1871 162.255 82.1897 162.272C82.1924 162.289 82.192 162.306 82.1887 162.323L81.0721 169.187C81.0673 169.216 81.0538 169.243 81.0339 169.262C81.0141 169.281 80.9891 169.292 80.9634 169.292Z" fill="#0C0C0C"/>
<path d="M31.5547 203.998C31.5261 203.998 31.4985 203.985 31.4778 203.962C31.4571 203.939 31.4449 203.907 31.4438 203.874L30.0633 162.304C30.0627 162.287 30.065 162.27 30.0701 162.254C30.0751 162.238 30.0828 162.224 30.0927 162.211C30.1026 162.199 30.1145 162.189 30.1277 162.182C30.141 162.175 30.1553 162.171 30.1699 162.17C30.1989 162.17 30.2268 162.183 30.2481 162.206C30.2694 162.229 30.2826 162.26 30.285 162.294L31.6657 203.864C31.6663 203.881 31.664 203.898 31.6589 203.914C31.6538 203.93 31.6461 203.944 31.6362 203.957C31.6263 203.969 31.6144 203.979 31.6011 203.986C31.5879 203.993 31.5735 203.997 31.559 203.998H31.5547Z" fill="#0C0C0C"/>
<path d="M98.2611 164.367C98.2405 164.367 98.2203 164.36 98.2028 164.348C98.1852 164.335 98.1711 164.317 98.1619 164.296C98.1526 164.274 98.1487 164.25 98.1506 164.226C98.1524 164.203 98.16 164.18 98.1723 164.161L99.4323 162.179C99.4499 162.152 99.476 162.134 99.5048 162.129C99.5336 162.125 99.5628 162.133 99.5862 162.153C99.6097 162.173 99.6254 162.203 99.63 162.236C99.6346 162.27 99.6278 162.304 99.6109 162.331L98.3499 164.314C98.3396 164.331 98.3262 164.344 98.3108 164.353C98.2954 164.362 98.2784 164.367 98.2611 164.367Z" fill="#0C0C0C"/>
<path d="M288.493 150.856L287.879 150.934L295.457 231.265L296.071 231.187L288.493 150.856Z" fill="#292A2E"/>
<path d="M308.121 185.925L304.393 228.707L305.007 228.779L308.735 185.997L308.121 185.925Z" fill="#292A2E"/>
<path d="M314.532 223.536H286.868V233.95H314.532V223.536Z" fill="#292A2E"/>
<path opacity="0.2" d="M314.532 223.536H286.868V233.95H314.532V223.536Z" fill="white"/>
<path d="M331.208 204.361C336.449 196.282 333.951 183.844 325.628 176.581C317.306 169.318 306.311 169.979 301.071 178.058C295.83 186.137 298.328 198.575 306.651 205.838C314.973 213.102 325.968 212.44 331.208 204.361Z" fill="#0CBC8B"/>
<path opacity="0.2" d="M331.208 204.361C336.449 196.282 333.951 183.844 325.628 176.581C317.306 169.318 306.311 169.979 301.071 178.058C295.83 186.137 298.328 198.575 306.651 205.838C314.973 213.102 325.968 212.44 331.208 204.361Z" fill="white"/>
<path opacity="0.5" d="M331.208 204.363C330.856 204.908 330.472 205.424 330.058 205.907C324.29 210.183 315.775 209.509 309.02 203.613C300.698 196.351 298.201 183.913 303.442 175.834C303.794 175.291 304.177 174.775 304.588 174.289C310.361 170.011 318.872 170.688 325.63 176.581C333.951 183.846 336.448 196.284 331.208 204.363Z" fill="white"/>
<path d="M292.603 173.71C300.847 166.328 303.088 153.668 297.608 145.433C292.128 137.197 281.002 136.506 272.757 143.888C264.513 151.27 262.272 163.93 267.752 172.165C273.232 180.401 284.359 181.093 292.603 173.71Z" fill="#0CBC8B"/>
<path opacity="0.2" d="M289.99 171.591C283.605 177.312 275.491 178.184 269.609 174.46C268.928 173.764 268.307 172.995 267.753 172.162C262.271 163.929 264.511 151.267 272.756 143.887C279.14 138.169 287.255 137.295 293.134 141.015C293.816 141.711 294.439 142.482 294.993 143.316C300.474 151.549 298.234 164.211 289.99 171.591Z" fill="white"/>
</svg>
