<svg width="35" height="33" viewBox="0 0 35 33" fill="none" xmlns="http://www.w3.org/2000/svg">
<rect width="35" height="33" rx="16.5" fill="#F1F1F1"/>
<circle cx="17.5791" cy="11.278" r="4.77803" fill="#131313" stroke="#131313" stroke-width="1.5" stroke-linecap="round" stroke-linejoin="round"/>
<path fill-rule="evenodd" clip-rule="evenodd" d="M10 22.7035C9.99873 22.3676 10.0739 22.0358 10.2197 21.7333C10.6774 20.8179 11.968 20.3328 13.0389 20.1131C13.8113 19.9483 14.5943 19.8382 15.3822 19.7836C16.8408 19.6555 18.3079 19.6555 19.7666 19.7836C20.5544 19.8388 21.3374 19.9489 22.1099 20.1131C23.1808 20.3328 24.4714 20.7722 24.9291 21.7333C25.2224 22.3501 25.2224 23.0661 24.9291 23.6829C24.4714 24.644 23.1808 25.0834 22.1099 25.2939C21.3384 25.4655 20.5551 25.5788 19.7666 25.6326C18.5794 25.7332 17.3866 25.7516 16.1968 25.6875C15.9222 25.6875 15.6568 25.6875 15.3822 25.6326C14.5966 25.5794 13.8163 25.4662 13.0481 25.2939C11.968 25.0834 10.6865 24.644 10.2197 23.6829C10.0746 23.3768 9.99955 23.0422 10 22.7035Z" fill="#131313" stroke="#131313" stroke-width="1.5" stroke-linecap="round" stroke-linejoin="round"/>
</svg>
