<svg width="167" height="145" viewBox="0 0 167 145" fill="none" xmlns="http://www.w3.org/2000/svg">
<path d="M140.906 22.6562H26.0938C23.3256 22.6563 20.6707 23.611 18.7133 25.3106C16.7559 27.0101 15.6563 29.3152 15.6562 31.7188V113.281C15.6563 115.685 16.7559 117.99 18.7133 119.689C20.6707 121.389 23.3256 122.344 26.0938 122.344H140.906C143.674 122.344 146.329 121.389 148.287 119.689C150.244 117.99 151.344 115.685 151.344 113.281V31.7188C151.344 29.3152 150.244 27.0101 148.287 25.3106C146.329 23.611 143.674 22.6563 140.906 22.6562ZM101.766 49.8438C103.314 49.8438 104.827 50.2424 106.115 50.9892C107.402 51.7361 108.405 52.7976 108.998 54.0396C109.59 55.2815 109.745 56.6482 109.443 57.9666C109.141 59.2851 108.396 60.4962 107.301 61.4467C106.206 62.3973 104.811 63.0446 103.293 63.3069C101.774 63.5692 100.2 63.4346 98.7699 62.9201C97.3395 62.4057 96.1169 61.5345 95.2568 60.4168C94.3966 59.299 93.9375 57.9849 93.9375 56.6406C93.9375 54.838 94.7623 53.1092 96.2303 51.8345C97.6984 50.5598 99.6895 49.8438 101.766 49.8438ZM26.0938 113.281V97.4219L60.0156 67.9688L112.203 113.281H26.0938ZM140.906 113.281H126.966L103.481 92.8906L116.528 81.5625L140.906 102.735V113.281Z" fill="#828282"/>
</svg>
