<svg width="6" height="5" viewBox="0 0 82 68" fill="none" xmlns="http://www.w3.org/2000/svg">
<path d="M69.1875 10.625H12.8125C11.4533 10.625 10.1497 11.0728 9.18858 11.8698C8.22745 12.6668 7.6875 13.7478 7.6875 14.875V53.125C7.6875 54.2522 8.22745 55.3332 9.18858 56.1302C10.1497 56.9272 11.4533 57.375 12.8125 57.375H69.1875C70.5467 57.375 71.8503 56.9272 72.8114 56.1302C73.7725 55.3332 74.3125 54.2522 74.3125 53.125V14.875C74.3125 13.7478 73.7725 12.6668 72.8114 11.8698C71.8503 11.0728 70.5467 10.625 69.1875 10.625ZM49.9688 23.375C50.729 23.375 51.4721 23.5619 52.1042 23.9122C52.7363 24.2624 53.229 24.7603 53.5199 25.3427C53.8108 25.9251 53.887 26.566 53.7386 27.1844C53.5903 27.8027 53.2242 28.3706 52.6867 28.8164C52.1491 29.2622 51.4642 29.5658 50.7186 29.6888C49.973 29.8117 49.2002 29.7486 48.4978 29.5074C47.7955 29.2661 47.1951 28.8576 46.7728 28.3334C46.3504 27.8092 46.125 27.1929 46.125 26.5625C46.125 25.7171 46.53 24.9064 47.2508 24.3086C47.9717 23.7108 48.9493 23.375 49.9688 23.375ZM12.8125 53.125V45.6875L29.4688 31.875L55.0938 53.125H12.8125ZM69.1875 53.125H62.3424L50.8112 43.5625L57.2174 38.25L69.1875 48.1791V53.125Z" fill="#828282"/>
</svg>
