<svg width="85" height="100" viewBox="0 0 85 100" fill="none" xmlns="http://www.w3.org/2000/svg">
<path d="M32.5391 53.125C32.5391 52.5034 32.749 51.9073 33.1226 51.4677C33.4962 51.0282 34.0029 50.7812 34.5312 50.7812H55.7812C56.3096 50.7812 56.8163 51.0282 57.1899 51.4677C57.5635 51.9073 57.7734 52.5034 57.7734 53.125C57.7734 53.7466 57.5635 54.3427 57.1899 54.7823C56.8163 55.2218 56.3096 55.4688 55.7812 55.4688H34.5312C34.0029 55.4688 33.4962 55.2218 33.1226 54.7823C32.749 54.3427 32.5391 53.7466 32.5391 53.125ZM34.5312 42.9688H55.7812C56.3096 42.9688 56.8163 42.7218 57.1899 42.2823C57.5635 41.8427 57.7734 41.2466 57.7734 40.625C57.7734 40.0034 57.5635 39.4073 57.1899 38.9677C56.8163 38.5282 56.3096 38.2812 55.7812 38.2812H34.5312C34.0029 38.2812 33.4962 38.5282 33.1226 38.9677C32.749 39.4073 32.5391 40.0034 32.5391 40.625C32.5391 41.2466 32.749 41.8427 33.1226 42.2823C33.4962 42.7218 34.0029 42.9688 34.5312 42.9688ZM76.3672 75C76.3672 78.108 75.3177 81.0887 73.4497 83.2864C71.5817 85.4841 69.0481 86.7188 66.4062 86.7188H29.2188C26.5769 86.7188 24.0433 85.4841 22.1753 83.2864C20.3073 81.0887 19.2578 78.108 19.2578 75V25C19.2578 23.1352 18.6281 21.3468 17.5073 20.0282C16.3865 18.7095 14.8663 17.9688 13.2812 17.9688C11.6962 17.9688 10.176 18.7095 9.05518 20.0282C7.93436 21.3468 7.30469 23.1352 7.30469 25C7.30469 27.6406 9.15742 29.3711 9.17734 29.3867C9.38598 29.5724 9.56149 29.8046 9.69385 30.0701C9.8262 30.3356 9.91281 30.6292 9.94873 30.9341C9.98465 31.2389 9.96917 31.5492 9.90319 31.847C9.83721 32.1448 9.722 32.4245 9.56416 32.6699C9.40632 32.9154 9.20893 33.1219 8.98325 33.2776C8.75758 33.4333 8.50805 33.5352 8.24891 33.5774C7.98977 33.6197 7.72609 33.6015 7.47293 33.5239C7.21976 33.4462 6.98208 33.3107 6.77344 33.125C6.64062 33 3.32031 30.0195 3.32031 25C3.32031 21.892 4.36977 18.9113 6.2378 16.7136C8.10584 14.5159 10.6394 13.2813 13.2812 13.2812H58.4375C61.0793 13.2812 63.6129 14.5159 65.4809 16.7136C67.349 18.9113 68.3984 21.892 68.3984 25V66.4062H71.7188C72.1498 66.4062 72.5692 66.5707 72.9141 66.875C73.0469 67 76.3672 69.9805 76.3672 75ZM35.1953 75C35.1953 72.3594 33.3393 70.6289 33.3227 70.6133C32.9914 70.3159 32.7477 69.9037 32.6259 69.4349C32.5041 68.966 32.5104 68.464 32.6438 67.9996C32.7773 67.5351 33.0311 67.1316 33.3697 66.8458C33.7083 66.5599 34.1145 66.4062 34.5312 66.4062H64.4141V25C64.4141 23.1352 63.7844 21.3468 62.6636 20.0282C61.5427 18.7095 60.0226 17.9688 58.4375 17.9688H21.25C22.547 19.9948 23.2465 22.4636 23.2422 25V75C23.2422 76.8648 23.8719 78.6532 24.9927 79.9718C26.1135 81.2905 27.6337 82.0312 29.2188 82.0312C30.8038 82.0312 32.324 81.2905 33.4448 79.9718C34.5656 78.6532 35.1953 76.8648 35.1953 75ZM72.3828 75C72.3378 73.5309 71.8232 72.1358 70.9418 71.0938H38.4758C38.9382 72.3243 39.1779 73.6546 39.1797 75C39.1828 77.5362 38.4835 80.0045 37.1875 82.0312H66.4062C67.9913 82.0312 69.5115 81.2905 70.6323 79.9718C71.7531 78.6532 72.3828 76.8648 72.3828 75Z" fill="black"/>
</svg>
