<svg width="52" height="59" viewBox="0 0 52 59" fill="none" xmlns="http://www.w3.org/2000/svg">
<path d="M36.5075 57.2647C36.5075 57.7249 36.3326 58.1663 36.0213 58.4917C35.71 58.8172 35.2879 59 34.8477 59H17.1431C16.7029 59 16.2807 58.8172 15.9695 58.4917C15.6582 58.1663 15.4833 57.7249 15.4833 57.2647C15.4833 56.8045 15.6582 56.3631 15.9695 56.0377C16.2807 55.7122 16.7029 55.5294 17.1431 55.5294H34.8477C35.2879 55.5294 35.71 55.7122 36.0213 56.0377C36.3326 56.3631 36.5075 56.8045 36.5075 57.2647ZM51.4761 47.7206C51.1405 48.3385 50.6534 48.8517 50.0651 49.2075C49.4768 49.5634 48.8085 49.7489 48.1288 49.7451H3.86471C3.18394 49.7436 2.51558 49.5545 1.92698 49.1969C1.33839 48.8393 0.850345 48.3258 0.512046 47.7082C0.173748 47.0906 -0.00285531 46.3906 3.49133e-05 45.6789C0.00292513 44.9672 0.185206 44.2688 0.528508 43.6542C2.09149 40.8373 4.41798 32.8954 4.41798 22.5588C4.41798 16.5759 6.6913 10.8379 10.7379 6.60733C14.7844 2.37673 20.2727 0 25.9954 0C31.7181 0 37.2064 2.37673 41.2529 6.60733C45.2995 10.8379 47.5728 16.5759 47.5728 22.5588C47.5728 32.8925 49.9021 40.8373 51.4678 43.6542C51.8148 44.27 51.9985 44.9715 52 45.6862C52.0014 46.401 51.8206 47.1032 51.4761 47.7206ZM48.5963 45.4069C46.5022 41.6471 44.2532 32.878 44.2532 22.5588C44.2532 17.4963 42.3296 12.6411 38.9056 9.0614C35.4816 5.48166 30.8377 3.47059 25.9954 3.47059C21.1531 3.47059 16.5092 5.48166 13.0852 9.0614C9.66116 12.6411 7.73758 17.4963 7.73758 22.5588C7.73758 32.8809 5.48578 41.6471 3.39167 45.4069C3.34311 45.4948 3.31754 45.5945 3.31754 45.6961C3.31754 45.7976 3.34311 45.8974 3.39167 45.9853C3.43723 46.0739 3.50517 46.1477 3.5881 46.1987C3.67102 46.2497 3.76574 46.2759 3.86194 46.2745H48.1261C48.2223 46.2759 48.317 46.2497 48.3999 46.1987C48.4828 46.1477 48.5508 46.0739 48.5963 45.9853C48.6449 45.8974 48.6705 45.7976 48.6705 45.6961C48.6705 45.5945 48.6449 45.4948 48.5963 45.4069Z" fill="white"/>
</svg>
