<svg width="76" height="76" viewBox="0 0 76 76" fill="none" xmlns="http://www.w3.org/2000/svg">
<g filter="url(#filter0_d_914_7808)">
<path d="M38 0C31.2754 0 24.7019 1.99406 19.1106 5.73003C13.5194 9.466 9.16149 14.7761 6.58811 20.9888C4.01473 27.2014 3.34142 34.0377 4.65332 40.6331C5.96521 47.2284 9.2034 53.2866 13.9584 58.0416C18.7134 62.7966 24.7716 66.0348 31.3669 67.3467C37.9623 68.6586 44.7986 67.9853 51.0112 65.4119C57.2239 62.8385 62.534 58.4806 66.27 52.8894C70.0059 47.2981 72 40.7246 72 34C71.9894 24.9859 68.4039 16.344 62.0299 9.97006C55.656 3.59612 47.0141 0.0105862 38 0ZM38 64C32.0666 64 26.2664 62.2405 21.3329 58.9441C16.3994 55.6476 12.5543 50.9623 10.2836 45.4805C8.013 39.9987 7.4189 33.9667 8.57646 28.1473C9.73401 22.3279 12.5912 16.9824 16.7868 12.7868C20.9824 8.59122 26.3279 5.734 32.1473 4.57644C37.9667 3.41888 43.9987 4.01298 49.4805 6.28361C54.9623 8.55424 59.6476 12.3994 62.9441 17.3329C66.2405 22.2664 68 28.0666 68 34C67.9912 41.9538 64.8276 49.5793 59.2035 55.2034C53.5793 60.8276 45.9538 63.9912 38 64ZM50.6667 40.6667C50.6667 42.9652 49.7536 45.1696 48.1283 46.7949C46.5029 48.4202 44.2985 49.3333 42 49.3333H40V52.6667C40 53.1971 39.7893 53.7058 39.4142 54.0809C39.0392 54.4559 38.5304 54.6667 38 54.6667C37.4696 54.6667 36.9609 54.4559 36.5858 54.0809C36.2107 53.7058 36 53.1971 36 52.6667V49.3333H30C29.4696 49.3333 28.9609 49.1226 28.5858 48.7475C28.2107 48.3725 28 47.8638 28 47.3333C28 46.8029 28.2107 46.2942 28.5858 45.9191C28.9609 45.544 29.4696 45.3333 30 45.3333H42C43.2377 45.3333 44.4247 44.8417 45.2998 43.9665C46.175 43.0913 46.6667 41.9043 46.6667 40.6667C46.6667 39.429 46.175 38.242 45.2998 37.3668C44.4247 36.4917 43.2377 36 42 36H34C31.7015 36 29.4971 35.0869 27.8718 33.4616C26.2464 31.8363 25.3333 29.6319 25.3333 27.3333C25.3333 25.0348 26.2464 22.8304 27.8718 21.2051C29.4971 19.5798 31.7015 18.6667 34 18.6667H36V15.3333C36 14.8029 36.2107 14.2942 36.5858 13.9191C36.9609 13.544 37.4696 13.3333 38 13.3333C38.5304 13.3333 39.0392 13.544 39.4142 13.9191C39.7893 14.2942 40 14.8029 40 15.3333V18.6667H46C46.5304 18.6667 47.0391 18.8774 47.4142 19.2524C47.7893 19.6275 48 20.1362 48 20.6667C48 21.1971 47.7893 21.7058 47.4142 22.0809C47.0391 22.4559 46.5304 22.6667 46 22.6667H34C32.7623 22.6667 31.5753 23.1583 30.7002 24.0335C29.825 24.9087 29.3333 26.0956 29.3333 27.3333C29.3333 28.571 29.825 29.758 30.7002 30.6332C31.5753 31.5083 32.7623 32 34 32H42C44.2985 32 46.5029 32.9131 48.1283 34.5384C49.7536 36.1637 50.6667 38.3681 50.6667 40.6667Z" fill="white"/>
</g>
<defs>
<filter id="filter0_d_914_7808" x="0" y="0" width="76" height="76" filterUnits="userSpaceOnUse" color-interpolation-filters="sRGB">
<feFlood flood-opacity="0" result="BackgroundImageFix"/>
<feColorMatrix in="SourceAlpha" type="matrix" values="0 0 0 0 0 0 0 0 0 0 0 0 0 0 0 0 0 0 127 0" result="hardAlpha"/>
<feOffset dy="4"/>
<feGaussianBlur stdDeviation="2"/>
<feComposite in2="hardAlpha" operator="out"/>
<feColorMatrix type="matrix" values="0 0 0 0 0 0 0 0 0 0 0 0 0 0 0 0 0 0 0.25 0"/>
<feBlend mode="normal" in2="BackgroundImageFix" result="effect1_dropShadow_914_7808"/>
<feBlend mode="normal" in="SourceGraphic" in2="effect1_dropShadow_914_7808" result="shape"/>
</filter>
</defs>
</svg>
