<svg width="45" height="54" viewBox="0 0 45 54" fill="none" xmlns="http://www.w3.org/2000/svg">
<path d="M40.5817 0.54289L4.42021 1.36102C3.40705 1.38684 2.43884 1.79582 1.72783 2.49829C1.01681 3.20077 0.620999 4.13943 0.627153 5.10852L0.935102 49.9813C0.938226 50.4622 1.04037 50.9361 1.23569 51.376C1.43102 51.8158 1.7157 52.213 2.07348 52.5449C2.43126 52.8768 2.85512 53.1368 3.32086 53.3101C3.7866 53.4834 4.28509 53.5667 4.78785 53.555L40.9493 52.7369C41.1749 52.7329 41.3999 52.7093 41.6217 52.6665C42.5019 52.4907 43.2951 52.0261 43.8633 51.3536C44.4314 50.6811 44.7383 49.8434 44.7306 48.9863L44.4227 4.11354C44.4155 3.14489 44.0072 2.22523 43.2873 1.55597C42.5673 0.886715 41.5944 0.522426 40.5817 0.54289ZM41.1612 4.19115L41.4692 49.0639C41.4701 49.1329 41.4567 49.2016 41.4298 49.2661C41.403 49.3306 41.3631 49.3895 41.3126 49.4396C41.2109 49.5396 41.0726 49.5976 40.9281 49.6011L4.75634 50.4238C4.68287 50.4267 4.6098 50.4154 4.5415 50.3907C4.4732 50.3659 4.41106 50.3281 4.35881 50.2795C4.30656 50.231 4.26526 50.1727 4.23738 50.1081C4.20949 50.0435 4.1956 49.974 4.19654 49.9037L3.88859 5.0309C3.88769 4.96193 3.90107 4.89324 3.92795 4.82876C3.95483 4.76429 3.99468 4.70532 4.04521 4.65525C4.1497 4.55266 4.29157 4.49297 4.43999 4.48916L40.6014 3.67103C40.6749 3.66812 40.748 3.6794 40.8163 3.70419C40.8846 3.72898 40.9467 3.76678 40.999 3.81533C41.0512 3.86388 41.0925 3.92219 41.1204 3.98676C41.1483 4.05133 41.1622 4.12085 41.1612 4.19115ZM35.7268 10.5903C35.7319 10.9603 35.6002 11.3225 35.3548 11.6128C35.1094 11.9031 34.7662 12.1028 34.3858 12.1768C34.2911 12.1949 34.1952 12.2053 34.099 12.2079L11.0554 12.7283C10.8356 12.7401 10.6163 12.7095 10.4107 12.6384C10.205 12.5673 10.0171 12.4571 9.85814 12.3143C9.6992 12.1715 9.57246 11.9991 9.48547 11.8073C9.39848 11.6155 9.35301 11.4082 9.35176 11.1978C9.35052 10.9874 9.39353 10.7782 9.47823 10.5826C9.56292 10.387 9.68758 10.209 9.84479 10.0591C10.002 9.90931 10.1885 9.79074 10.3933 9.71048C10.5981 9.63022 10.817 9.5899 11.0369 9.59192L34.0799 9.06893C34.5125 9.06 34.9282 9.21485 35.2367 9.49978C35.5451 9.78472 35.7212 10.1767 35.7268 10.5903ZM35.7824 18.9519C35.7875 19.3219 35.6558 19.684 35.4104 19.9743C35.165 20.2646 34.8218 20.4644 34.4414 20.5383C34.351 20.555 34.2593 20.5636 34.1675 20.5643L11.1245 21.0872C10.6893 21.097 10.2709 20.941 9.96139 20.6536C9.65188 20.3661 9.47659 19.9708 9.47406 19.5546C9.47153 19.1383 9.64199 18.7352 9.94792 18.434C10.2539 18.1328 10.6702 17.9581 11.1054 17.9483L34.149 17.4279C34.5796 17.4224 34.9923 17.5791 35.2979 17.8642C35.6035 18.1494 35.7775 18.54 35.7824 18.9519ZM24.3311 27.5788C24.333 27.9474 24.1991 28.3072 23.953 28.595C23.7068 28.8829 23.3641 29.0804 22.985 29.1529C22.8903 29.1708 22.7944 29.1812 22.6982 29.184L11.1791 29.4437C10.9593 29.4555 10.74 29.4249 10.5343 29.3538C10.3286 29.2827 10.1407 29.1724 9.98179 29.0297C9.82285 28.8869 9.69611 28.7145 9.60912 28.5227C9.52213 28.3309 9.47666 28.1236 9.47542 27.9132C9.47417 27.7028 9.51718 27.4936 9.60187 27.298C9.68657 27.1024 9.81124 26.9243 9.96845 26.7745C10.1257 26.6247 10.3122 26.5061 10.517 26.4259C10.7218 26.3456 10.9406 26.3053 11.1605 26.3073L22.6791 26.0451C22.8951 26.0408 23.1091 26.0774 23.3088 26.1527C23.5085 26.228 23.6899 26.3405 23.8428 26.4839C23.9957 26.6273 24.1169 26.7986 24.1996 26.9881C24.2823 27.1775 24.3247 27.3814 24.3245 27.588L24.3311 27.5788Z" fill="white"/>
</svg>
