<svg width="91" height="88" viewBox="0 0 91 88" fill="none" xmlns="http://www.w3.org/2000/svg">
<path d="M40.0255 54.4622C43.9861 52.2913 47.0923 48.9138 48.8596 44.8566C50.6268 40.7993 50.9557 36.2905 49.7948 32.0335C48.634 27.7766 46.0488 24.0108 42.4425 21.3238C38.8363 18.6368 34.4117 17.1797 29.8591 17.1797C25.3066 17.1797 20.882 18.6368 17.2757 21.3238C13.6694 24.0108 11.0842 27.7766 9.92341 32.0335C8.76259 36.2905 9.09145 40.7993 10.8587 44.8566C12.6259 48.9138 15.7321 52.2913 19.6927 54.4622C12.3522 56.7253 6.04821 61.376 1.85174 67.6244C1.54251 68.0825 1.43415 68.6407 1.55047 69.1761C1.6668 69.7115 1.9983 70.1802 2.47203 70.4793C2.94577 70.7783 3.52295 70.8831 4.07658 70.7706C4.63022 70.6581 5.11498 70.3375 5.4242 69.8794C8.07105 65.944 11.6924 62.7101 15.9596 60.4715C20.2267 58.2329 25.0045 57.0603 29.8591 57.0603C34.7138 57.0603 39.4915 58.2329 43.7587 60.4715C48.0258 62.7101 51.6472 65.944 54.294 69.8794C54.6234 70.2876 55.0995 70.5611 55.6277 70.6455C56.156 70.73 56.6977 70.6192 57.1454 70.3352C57.5931 70.0512 57.9139 69.6148 58.0442 69.1126C58.1745 68.6104 58.1048 68.0791 57.8487 67.6244C53.6567 61.3792 47.3595 56.7288 40.0255 54.4622ZM13.5076 37.1269C13.5076 33.9995 14.4666 30.9423 16.2633 28.342C18.06 25.7416 20.6138 23.7149 23.6017 22.5181C26.5895 21.3213 29.8773 21.0081 33.0492 21.6182C36.221 22.2284 39.1346 23.7344 41.4214 25.9458C43.7082 28.1572 45.2656 30.9747 45.8965 34.042C46.5274 37.1094 46.2036 40.2887 44.966 43.1781C43.7284 46.0675 41.6326 48.537 38.9436 50.2745C36.2546 52.012 33.0932 52.9394 29.8591 52.9394C25.5242 52.934 21.3683 51.2663 18.3031 48.302C15.2378 45.3378 13.5132 41.319 13.5076 37.1269ZM88.5115 70.4707C88.0381 70.7694 87.4615 70.8742 86.9083 70.762C86.3551 70.6499 85.8705 70.3299 85.5611 69.8725C82.9189 65.9367 79.3003 62.7029 75.0348 60.4657C70.7694 58.2286 65.9928 57.0593 61.1404 57.0644C60.5747 57.0644 60.0322 56.8471 59.6322 56.4603C59.2323 56.0735 59.0076 55.5489 59.0076 55.0019C59.0076 54.4549 59.2323 53.9303 59.6322 53.5435C60.0322 53.1567 60.5747 52.9394 61.1404 52.9394C63.5483 52.9371 65.9259 52.4205 68.1034 51.4266C70.2809 50.4327 72.2046 48.986 73.737 47.1899C75.2693 45.3937 76.3726 43.2925 76.9678 41.0363C77.5632 38.78 77.6358 36.4245 77.1807 34.138C76.7255 31.8515 75.7538 29.6903 74.3349 27.8091C72.916 25.9278 71.0849 24.3728 68.9726 23.2551C66.8602 22.1374 64.5186 21.4847 62.1152 21.3435C59.7117 21.2023 57.3057 21.5762 55.069 22.4385C54.8085 22.5416 54.5294 22.5939 54.248 22.5922C53.9665 22.5906 53.6881 22.5351 53.4289 22.4289C53.1697 22.3228 52.9348 22.168 52.7378 21.9736C52.5407 21.7793 52.3854 21.5491 52.2808 21.2964C52.1761 21.0437 52.1243 20.7734 52.1282 20.5012C52.1321 20.2291 52.1917 19.9603 52.3035 19.7105C52.4153 19.4607 52.5771 19.2348 52.7797 19.0457C52.9822 18.8567 53.2214 18.7083 53.4836 18.6091C58.3351 16.7387 63.7399 16.7185 68.6062 18.5527C73.4724 20.3869 77.4375 23.9388 79.7004 28.4908C81.9633 33.0428 82.3553 38.2557 80.7973 43.0764C79.2393 47.8972 75.8474 51.9664 71.3068 54.4622C78.6473 56.7253 84.9513 61.376 89.1478 67.6244C89.4527 68.0837 89.557 68.6412 89.4378 69.1747C89.3185 69.7082 88.9854 70.1742 88.5115 70.4707Z" fill="black"/>
</svg>
