<svg width="21" height="19" viewBox="0 0 21 19" fill="none" xmlns="http://www.w3.org/2000/svg">
<path d="M18.375 3.5625H13.125C12.6156 3.5625 12.1132 3.66981 11.6576 3.87592C11.202 4.08203 10.8056 4.38129 10.5 4.75C10.1944 4.38129 9.79804 4.08203 9.34242 3.87592C8.8868 3.66981 8.3844 3.5625 7.875 3.5625H2.625C2.2769 3.5625 1.94306 3.68761 1.69692 3.91031C1.45078 4.13301 1.3125 4.43506 1.3125 4.75V14.25C1.3125 14.5649 1.45078 14.867 1.69692 15.0897C1.94306 15.3124 2.2769 15.4375 2.625 15.4375H7.875C8.39714 15.4375 8.8979 15.6252 9.26712 15.9592C9.63633 16.2933 9.84375 16.7463 9.84375 17.2188C9.84375 17.3762 9.91289 17.5272 10.036 17.6386C10.159 17.7499 10.326 17.8125 10.5 17.8125C10.674 17.8125 10.841 17.7499 10.964 17.6386C11.0871 17.5272 11.1562 17.3762 11.1562 17.2188C11.1562 16.7463 11.3637 16.2933 11.7329 15.9592C12.1021 15.6252 12.6029 15.4375 13.125 15.4375H18.375C18.7231 15.4375 19.0569 15.3124 19.3031 15.0897C19.5492 14.867 19.6875 14.5649 19.6875 14.25V4.75C19.6875 4.43506 19.5492 4.13301 19.3031 3.91031C19.0569 3.68761 18.7231 3.5625 18.375 3.5625ZM7.875 14.25H2.625V4.75H7.875C8.39714 4.75 8.8979 4.93767 9.26712 5.27172C9.63633 5.60577 9.84375 6.05883 9.84375 6.53125V14.8438C9.27631 14.4574 8.58515 14.249 7.875 14.25ZM18.375 14.25H13.125C12.4149 14.249 11.7237 14.4574 11.1562 14.8438V6.53125C11.1562 6.05883 11.3637 5.60577 11.7329 5.27172C12.1021 4.93767 12.6029 4.75 13.125 4.75H18.375V14.25ZM13.125 6.53125H16.4062C16.5803 6.53125 16.7472 6.59381 16.8703 6.70516C16.9934 6.81651 17.0625 6.96753 17.0625 7.125C17.0625 7.28247 16.9934 7.43349 16.8703 7.54484C16.7472 7.65619 16.5803 7.71875 16.4062 7.71875H13.125C12.951 7.71875 12.784 7.65619 12.661 7.54484C12.5379 7.43349 12.4688 7.28247 12.4688 7.125C12.4688 6.96753 12.5379 6.81651 12.661 6.70516C12.784 6.59381 12.951 6.53125 13.125 6.53125ZM17.0625 9.5C17.0625 9.65747 16.9934 9.8085 16.8703 9.91985C16.7472 10.0312 16.5803 10.0938 16.4062 10.0938H13.125C12.951 10.0938 12.784 10.0312 12.661 9.91985C12.5379 9.8085 12.4688 9.65747 12.4688 9.5C12.4688 9.34253 12.5379 9.1915 12.661 9.08016C12.784 8.96881 12.951 8.90625 13.125 8.90625H16.4062C16.5803 8.90625 16.7472 8.96881 16.8703 9.08016C16.9934 9.1915 17.0625 9.34253 17.0625 9.5ZM17.0625 11.875C17.0625 12.0325 16.9934 12.1835 16.8703 12.2948C16.7472 12.4062 16.5803 12.4688 16.4062 12.4688H13.125C12.951 12.4688 12.784 12.4062 12.661 12.2948C12.5379 12.1835 12.4688 12.0325 12.4688 11.875C12.4688 11.7175 12.5379 11.5665 12.661 11.4552C12.784 11.3438 12.951 11.2812 13.125 11.2812H16.4062C16.5803 11.2812 16.7472 11.3438 16.8703 11.4552C16.9934 11.5665 17.0625 11.7175 17.0625 11.875Z" fill="black"/>
</svg>
