<svg width="21" height="21" viewBox="0 0 21 21" fill="none" xmlns="http://www.w3.org/2000/svg">
<path d="M18.3348 3.9375H2.66684C2.30793 3.9375 1.9637 4.07996 1.70976 4.3336C1.45582 4.58723 1.31293 4.93129 1.3125 5.2902V15.7082C1.3125 16.0671 1.45496 16.4113 1.7086 16.6652C1.96223 16.9192 2.30629 17.0621 2.6652 17.0625H18.3332C18.6921 17.0625 19.0363 16.92 19.2902 16.6664C19.5442 16.4128 19.6871 16.0687 19.6875 15.7098V5.29184C19.6875 4.93293 19.545 4.5887 19.2914 4.33476C19.0378 4.08082 18.6937 3.93793 18.3348 3.9375ZM18.375 15.7098C18.375 15.7151 18.374 15.7203 18.3719 15.7252C18.3699 15.7301 18.367 15.7345 18.3632 15.7382C18.3595 15.742 18.3551 15.7449 18.3502 15.7469C18.3453 15.749 18.3401 15.75 18.3348 15.75H2.66684C2.66156 15.75 2.65633 15.749 2.65145 15.7469C2.64658 15.7449 2.64215 15.742 2.63841 15.7382C2.63468 15.7345 2.63172 15.7301 2.6297 15.7252C2.62768 15.7203 2.62664 15.7151 2.62664 15.7098V5.29184C2.62664 5.28118 2.63088 5.27095 2.63841 5.26341C2.64595 5.25588 2.65618 5.25164 2.66684 5.25164H18.3348C18.3455 5.25164 18.3557 5.25588 18.3632 5.26341C18.3708 5.27095 18.375 5.28118 18.375 5.29184V15.7098ZM17.0625 10.5C17.0625 10.674 16.9934 10.841 16.8703 10.964C16.7472 11.0871 16.5803 11.1562 16.4062 11.1562H4.59375C4.4197 11.1562 4.25278 11.0871 4.12971 10.964C4.00664 10.841 3.9375 10.674 3.9375 10.5C3.9375 10.326 4.00664 10.159 4.12971 10.036C4.25278 9.91289 4.4197 9.84375 4.59375 9.84375H16.4062C16.5803 9.84375 16.7472 9.91289 16.8703 10.036C16.9934 10.159 17.0625 10.326 17.0625 10.5ZM17.0625 7.875C17.0625 8.04905 16.9934 8.21597 16.8703 8.33904C16.7472 8.46211 16.5803 8.53125 16.4062 8.53125H4.59375C4.4197 8.53125 4.25278 8.46211 4.12971 8.33904C4.00664 8.21597 3.9375 8.04905 3.9375 7.875C3.9375 7.70095 4.00664 7.53403 4.12971 7.41096C4.25278 7.28789 4.4197 7.21875 4.59375 7.21875H16.4062C16.5803 7.21875 16.7472 7.28789 16.8703 7.41096C16.9934 7.53403 17.0625 7.70095 17.0625 7.875ZM5.90625 13.125C5.90625 13.299 5.83711 13.466 5.71404 13.589C5.59097 13.7121 5.42405 13.7812 5.25 13.7812H4.59375C4.4197 13.7812 4.25278 13.7121 4.12971 13.589C4.00664 13.466 3.9375 13.299 3.9375 13.125C3.9375 12.951 4.00664 12.784 4.12971 12.661C4.25278 12.5379 4.4197 12.4688 4.59375 12.4688H5.25C5.42405 12.4688 5.59097 12.5379 5.71404 12.661C5.83711 12.784 5.90625 12.951 5.90625 13.125ZM13.7812 13.125C13.7812 13.299 13.7121 13.466 13.589 13.589C13.466 13.7121 13.299 13.7812 13.125 13.7812H7.875C7.70095 13.7812 7.53403 13.7121 7.41096 13.589C7.28789 13.466 7.21875 13.299 7.21875 13.125C7.21875 12.951 7.28789 12.784 7.41096 12.661C7.53403 12.5379 7.70095 12.4688 7.875 12.4688H13.125C13.299 12.4688 13.466 12.5379 13.589 12.661C13.7121 12.784 13.7812 12.951 13.7812 13.125ZM17.0625 13.125C17.0625 13.299 16.9934 13.466 16.8703 13.589C16.7472 13.7121 16.5803 13.7812 16.4062 13.7812H15.75C15.576 13.7812 15.409 13.7121 15.286 13.589C15.1629 13.466 15.0938 13.299 15.0938 13.125C15.0938 12.951 15.1629 12.784 15.286 12.661C15.409 12.5379 15.576 12.4688 15.75 12.4688H16.4062C16.5803 12.4688 16.7472 12.5379 16.8703 12.661C16.9934 12.784 17.0625 12.951 17.0625 13.125Z" fill="black"/>
</svg>
