<svg width="21" height="20" viewBox="0 0 21 20" fill="none" xmlns="http://www.w3.org/2000/svg">
<path d="M17.0625 3.125H3.9375C3.41536 3.125 2.9146 3.32254 2.54538 3.67417C2.17617 4.02581 1.96875 4.50272 1.96875 5V13.75C1.96875 14.2473 2.17617 14.7242 2.54538 15.0758C2.9146 15.4275 3.41536 15.625 3.9375 15.625H17.0625C17.5846 15.625 18.0854 15.4275 18.4546 15.0758C18.8238 14.7242 19.0312 14.2473 19.0312 13.75V5C19.0312 4.50272 18.8238 4.02581 18.4546 3.67417C18.0854 3.32254 17.5846 3.125 17.0625 3.125ZM17.7188 13.75C17.7188 13.9158 17.6496 14.0747 17.5265 14.1919C17.4035 14.3092 17.2365 14.375 17.0625 14.375H3.9375C3.76345 14.375 3.59653 14.3092 3.47346 14.1919C3.35039 14.0747 3.28125 13.9158 3.28125 13.75V5C3.28125 4.83424 3.35039 4.67527 3.47346 4.55806C3.59653 4.44085 3.76345 4.375 3.9375 4.375H17.0625C17.2365 4.375 17.4035 4.44085 17.5265 4.55806C17.6496 4.67527 17.7188 4.83424 17.7188 5V13.75ZM13.7812 17.5C13.7812 17.6658 13.7121 17.8247 13.589 17.9419C13.466 18.0592 13.299 18.125 13.125 18.125H7.875C7.70095 18.125 7.53403 18.0592 7.41096 17.9419C7.28789 17.8247 7.21875 17.6658 7.21875 17.5C7.21875 17.3342 7.28789 17.1753 7.41096 17.0581C7.53403 16.9408 7.70095 16.875 7.875 16.875H13.125C13.299 16.875 13.466 16.9408 13.589 17.0581C13.7121 17.1753 13.7812 17.3342 13.7812 17.5Z" fill="black"/>
</svg>
