<svg width="19" height="19" viewBox="0 0 19 19" fill="none" xmlns="http://www.w3.org/2000/svg">
<path d="M9.3418 17.0986C4.8943 17.0986 1.2793 13.4836 1.2793 9.03613C1.2793 4.58863 4.8943 0.973633 9.3418 0.973633C13.7893 0.973633 17.4043 4.58863 17.4043 9.03613C17.4043 13.4836 13.7893 17.0986 9.3418 17.0986ZM9.3418 2.09863C5.5168 2.09863 2.4043 5.21113 2.4043 9.03613C2.4043 12.8611 5.5168 15.9736 9.3418 15.9736C13.1668 15.9736 16.2793 12.8611 16.2793 9.03613C16.2793 5.21113 13.1668 2.09863 9.3418 2.09863Z" fill="#292D32"/>
<path d="M7.09173 16.3486H6.34173C6.03423 16.3486 5.77923 16.0936 5.77923 15.7861C5.77923 15.4786 6.01923 15.2311 6.32673 15.2236C5.14923 11.2036 5.14923 6.86863 6.32673 2.84863C6.01923 2.84113 5.77923 2.59363 5.77923 2.28613C5.77923 1.97863 6.03423 1.72363 6.34173 1.72363H7.09173C7.27173 1.72363 7.44423 1.81363 7.54923 1.95613C7.65423 2.10613 7.68423 2.29363 7.62423 2.46613C6.21423 6.70363 6.21423 11.3686 7.62423 15.6136C7.68423 15.7861 7.65423 15.9736 7.54923 16.1236C7.44423 16.2586 7.27173 16.3486 7.09173 16.3486Z" fill="#292D32"/>
<path d="M11.5919 16.3486C11.5319 16.3486 11.4719 16.3411 11.4119 16.3186C11.1194 16.2211 10.9544 15.8986 11.0594 15.6061C12.4694 11.3686 12.4694 6.70365 11.0594 2.45865C10.9619 2.16615 11.1194 1.84365 11.4119 1.74615C11.7119 1.64865 12.0269 1.80615 12.1244 2.09865C13.6169 6.56865 13.6169 11.4886 12.1244 15.9511C12.0494 16.1986 11.8244 16.3486 11.5919 16.3486Z" fill="#292D32"/>
<path d="M9.3418 12.9361C7.2493 12.9361 5.1643 12.6436 3.1543 12.0511C3.1468 12.3511 2.8993 12.5986 2.5918 12.5986C2.2843 12.5986 2.0293 12.3436 2.0293 12.0361V11.2861C2.0293 11.1061 2.1193 10.9336 2.2618 10.8286C2.4118 10.7236 2.5993 10.6936 2.7718 10.7536C7.0093 12.1636 11.6818 12.1636 15.9193 10.7536C16.0918 10.6936 16.2793 10.7236 16.4293 10.8286C16.5793 10.9336 16.6618 11.1061 16.6618 11.2861V12.0361C16.6618 12.3436 16.4068 12.5986 16.0993 12.5986C15.7918 12.5986 15.5443 12.3586 15.5368 12.0511C13.5193 12.6436 11.4343 12.9361 9.3418 12.9361Z" fill="#292D32"/>
<path d="M16.0919 7.34865C16.0319 7.34865 15.9719 7.34115 15.9119 7.31865C11.6744 5.90865 7.00188 5.90865 2.76438 7.31865C2.46438 7.41615 2.14938 7.25865 2.05188 6.96615C1.96188 6.66615 2.11938 6.35115 2.41188 6.25365C6.88188 4.76115 11.8019 4.76115 16.2644 6.25365C16.5569 6.35115 16.7219 6.67365 16.6169 6.96615C16.5494 7.19865 16.3244 7.34865 16.0919 7.34865Z" fill="#292D32"/>
</svg>
