<svg width="22" height="21" viewBox="0 0 22 21" fill="none" xmlns="http://www.w3.org/2000/svg">
<path d="M10.9999 6.56236C10.1841 6.56236 9.38654 6.79329 8.70819 7.22594C8.02984 7.6586 7.50113 8.27355 7.18891 8.99304C6.8767 9.71252 6.79501 10.5042 6.95418 11.268C7.11334 12.0318 7.50621 12.7334 8.0831 13.2841C8.65999 13.8348 9.395 14.2098 10.1952 14.3617C10.9953 14.5136 11.8247 14.4357 12.5785 14.1376C13.3322 13.8396 13.9765 13.3349 14.4297 12.6874C14.883 12.0399 15.1249 11.2786 15.1249 10.4999C15.1238 9.4559 14.6888 8.45501 13.9155 7.71682C13.1421 6.97863 12.0936 6.56344 10.9999 6.56236ZM10.9999 13.1249C10.456 13.1249 9.92433 12.9709 9.4721 12.6825C9.01986 12.394 8.66739 11.9841 8.45925 11.5044C8.25111 11.0247 8.19665 10.4969 8.30276 9.98774C8.40887 9.47854 8.67078 9.01081 9.05537 8.6437C9.43997 8.27659 9.92997 8.02658 10.4634 7.92529C10.9969 7.82401 11.5498 7.87599 12.0523 8.07467C12.5548 8.27335 12.9843 8.6098 13.2865 9.04148C13.5886 9.47316 13.7499 9.98068 13.7499 10.4999C13.7499 11.196 13.4602 11.8637 12.9445 12.356C12.4287 12.8483 11.7293 13.1249 10.9999 13.1249ZM18.5624 10.677C18.5659 10.5589 18.5659 10.4408 18.5624 10.3227L19.8446 8.7936C19.9118 8.71332 19.9584 8.61909 19.9805 8.51849C20.0026 8.4179 19.9996 8.31376 19.9718 8.21446C19.7616 7.46027 19.4472 6.73614 19.0368 6.06114C18.9831 5.97281 18.9085 5.89767 18.819 5.8417C18.7294 5.78573 18.6275 5.75049 18.5212 5.73876L16.4827 5.5222C16.3979 5.43689 16.312 5.35485 16.2249 5.2761L15.9843 3.3254C15.9719 3.22386 15.9349 3.12648 15.8761 3.04102C15.8173 2.95557 15.7384 2.88441 15.6457 2.83321C14.9383 2.44221 14.1797 2.14237 13.3898 1.94153C13.2857 1.91512 13.1766 1.91242 13.0712 1.93365C12.9658 1.95488 12.8672 1.99945 12.7831 2.06376L11.1855 3.2811C11.0618 3.2811 10.938 3.2811 10.8143 3.2811L9.21242 2.05966C9.12831 1.99548 9.02959 1.95106 8.92421 1.92998C8.81882 1.90889 8.70972 1.91172 8.6057 1.93825C7.81572 2.13925 7.05715 2.43937 6.34984 2.83075C6.2573 2.88204 6.17858 2.95325 6.11995 3.03869C6.06132 3.12414 6.02439 3.22147 6.0121 3.32294L5.78523 5.272C5.69585 5.35349 5.60992 5.43552 5.52742 5.5181L3.48382 5.74204C3.37744 5.75386 3.27543 5.78923 3.1859 5.84534C3.09638 5.90146 3.02183 5.97676 2.9682 6.06525C2.55857 6.7405 2.24446 7.46457 2.03406 8.21857C2.00638 8.31793 2.00355 8.4221 2.02579 8.5227C2.04804 8.62329 2.09473 8.7175 2.1621 8.79771L3.43742 10.3227C3.43742 10.4408 3.43742 10.5589 3.43742 10.677L2.15781 12.2061C2.09058 12.2864 2.04404 12.3806 2.02195 12.4812C1.99986 12.5818 2.00283 12.6859 2.03062 12.7852C2.24081 13.5394 2.55524 14.2636 2.96562 14.9386C3.01935 15.0269 3.09395 15.102 3.18346 15.158C3.27298 15.214 3.37494 15.2492 3.48125 15.2609L5.51968 15.4775C5.60505 15.5628 5.69099 15.6449 5.7775 15.7236L6.01554 17.6743C6.02792 17.7759 6.06498 17.8732 6.12376 17.9587C6.18255 18.0441 6.26144 18.1153 6.35414 18.1665C7.06154 18.5575 7.82009 18.8573 8.61 19.0582C8.71409 19.0846 8.82322 19.0873 8.92861 19.0661C9.034 19.0448 9.13268 19.0003 9.21671 18.9359L10.8143 17.7186C10.938 17.7219 11.0618 17.7219 11.1855 17.7186L12.7874 18.9425C12.8715 19.0067 12.9702 19.0511 13.0756 19.0722C13.181 19.0933 13.2901 19.0904 13.3941 19.0639C14.1842 18.8633 14.9429 18.5631 15.65 18.1714C15.7425 18.1201 15.8213 18.0489 15.8799 17.9635C15.9385 17.878 15.9754 17.7807 15.9877 17.6792L16.2146 15.7334C16.304 15.6525 16.3899 15.5705 16.4724 15.4874L18.516 15.2577C18.6224 15.2459 18.7244 15.2105 18.8139 15.1544C18.9035 15.0983 18.978 15.023 19.0316 14.9345C19.4413 14.2592 19.7554 13.5351 19.9658 12.7811C19.9935 12.6818 19.9963 12.5776 19.974 12.477C19.9518 12.3764 19.9051 12.2822 19.8377 12.202L18.5624 10.677ZM17.1788 10.1438C17.1934 10.381 17.1934 10.6187 17.1788 10.8559C17.1686 11.0182 17.2219 11.1784 17.3284 11.3054L18.5478 12.7598C18.4079 13.1843 18.2287 13.5961 18.0124 13.9903L16.0702 14.2003C15.9011 14.2182 15.7449 14.2954 15.6319 14.4168C15.4665 14.5944 15.2903 14.7626 15.1043 14.9205C14.977 15.0284 14.8962 15.1774 14.8774 15.3389L14.6617 17.1911C14.2488 17.3977 13.8174 17.5687 13.3727 17.7022L11.8481 16.5382C11.7261 16.4451 11.5746 16.3945 11.4184 16.3946H11.3772C11.1288 16.4086 10.8797 16.4086 10.6312 16.3946C10.4612 16.3848 10.2933 16.4357 10.1603 16.5374L8.63234 17.7022C8.18764 17.5686 7.75626 17.3976 7.34328 17.1911L7.12328 15.3397C7.1045 15.1782 7.02366 15.0292 6.8964 14.9213C6.71035 14.7634 6.53417 14.5953 6.36875 14.4177C6.25577 14.2962 6.0996 14.219 5.93046 14.2011L3.99 13.9944C3.7736 13.6002 3.59443 13.1884 3.4546 12.7639L4.67406 11.3087C4.78054 11.1817 4.83383 11.0215 4.82359 10.8592C4.80898 10.622 4.80898 10.3843 4.82359 10.1471C4.83383 9.98477 4.78054 9.82457 4.67406 9.69759L3.4546 8.23989C3.59453 7.81541 3.7737 7.40363 3.99 7.00943L5.9296 6.79943C6.09874 6.7815 6.25491 6.70434 6.36789 6.58286C6.53331 6.40527 6.7095 6.23709 6.89554 6.07919C7.02331 5.97128 7.10448 5.82187 7.12328 5.66001L7.33898 3.80857C7.75191 3.602 8.18331 3.43098 8.62804 3.29751L10.1526 4.46153C10.2856 4.56318 10.4534 4.61404 10.6235 4.60427C10.8719 4.59032 11.121 4.59032 11.3694 4.60427C11.5395 4.61404 11.7074 4.56318 11.8404 4.46153L13.3675 3.29751C13.8122 3.43108 14.2436 3.6021 14.6566 3.80857L14.8766 5.66001C14.8953 5.82146 14.9762 5.97053 15.1034 6.07837C15.2895 6.23627 15.4657 6.40445 15.6311 6.58204C15.7441 6.70352 15.9002 6.78068 16.0694 6.7986L18.0098 7.0045C18.2262 7.39867 18.4054 7.81045 18.5452 8.23497L17.3258 9.69021C17.2183 9.81825 17.1649 9.9801 17.1762 10.1438H17.1788Z" fill="#57606A"/>
</svg>
