<svg width="129" height="116" viewBox="0 0 129 116" fill="none" xmlns="http://www.w3.org/2000/svg">
<path opacity="0.21" d="M0 48C0 21.4903 21.4903 0 48 0H81C107.51 0 129 21.4903 129 48V68C129 94.5097 107.51 116 81 116H48C21.4903 116 0 94.5097 0 68V48Z" fill="#FEC53D"/>
<path fill-rule="evenodd" clip-rule="evenodd" d="M33 46.3883L60.521 61.7822C60.8174 61.9479 61.1281 62.0677 61.4444 62.1436V91.9993L34.9628 76.816C33.7462 76.1185 33 74.8506 33 73.481V46.3883ZM96.9986 45.9766V73.4785C96.9986 74.8481 96.2524 76.116 95.0358 76.8135L68.5542 91.9968V61.8796C68.6187 61.8484 68.6826 61.815 68.7459 61.7796L96.9986 45.9766Z" fill="#FEC53D"/>
<path opacity="0.499209" fill-rule="evenodd" clip-rule="evenodd" d="M33.8633 38.9174C34.1994 38.5061 34.6237 38.1586 35.1184 37.9033L63.1184 23.4549C64.2938 22.8484 65.7038 22.8484 66.8792 23.4549L94.8792 37.9033C95.2605 38.1001 95.6 38.3517 95.8896 38.6451L65.1906 55.8165C64.9887 55.9294 64.8026 56.0586 64.633 56.2014C64.4634 56.0586 64.2773 55.9294 64.0754 55.8165L33.8633 38.9174Z" fill="#FEC53D"/>
</svg>
