<svg width="128" height="117" viewBox="0 0 128 117" fill="none" xmlns="http://www.w3.org/2000/svg">
<path opacity="0.21" fill-rule="evenodd" clip-rule="evenodd" d="M0 58.9199V69C0 95.5097 21.4903 117 48 117H63.7131H79.4262C105.936 117 127.426 95.5097 127.426 69V58.9199V48.8398C127.426 22.3302 105.936 0.839844 79.4262 0.839844H63.7131H48C21.4903 0.839844 0 22.3302 0 48.8398V58.9199Z" fill="#8280FF"/>
<path opacity="0.587821" fill-rule="evenodd" clip-rule="evenodd" d="M43.8906 46.0128C43.8906 51.7154 48.9618 56.3382 55.2174 56.3382C61.473 56.3382 66.5442 51.7154 66.5442 46.0128C66.5442 40.3103 61.473 35.6875 55.2174 35.6875C48.9618 35.6875 43.8906 40.3103 43.8906 46.0128ZM72.2095 56.3418C72.2095 60.6187 76.0129 64.0858 80.7046 64.0859C85.3963 64.0858 89.1997 60.6187 89.1997 56.3418C89.1997 52.0649 85.3963 48.5978 80.7046 48.5978C76.0129 48.5978 72.2095 52.0649 72.2095 56.3418Z" fill="#8280FF"/>
<path fill-rule="evenodd" clip-rule="evenodd" d="M55.1705 61.5039C41.8009 61.5039 30.8319 67.7676 29.7343 80.0875C29.6745 80.7586 31.0823 82.1546 31.7925 82.1546H78.5698C80.697 82.1546 80.7301 80.5941 80.697 80.0895C79.8672 67.4234 68.7283 61.5039 55.1705 61.5039ZM96.158 82.1558H85.2354V82.1541C85.2354 76.3444 83.13 70.983 79.5768 66.6693C89.224 66.7647 97.1016 71.2105 97.6944 80.607C97.7182 80.9854 97.6943 82.1558 96.158 82.1558Z" fill="#8280FF"/>
</svg>
