<svg width="16" height="16" viewBox="0 0 16 16" fill="none" xmlns="http://www.w3.org/2000/svg">
<path d="M8.533 0.132071L13.783 1.81207C14.1364 1.92506 14.4447 2.14743 14.6634 2.44706C14.8822 2.74669 15 3.10809 15 3.47907V6.99907C15 8.56507 14.68 10.1811 13.697 11.6811C12.714 13.1791 11.112 14.4941 8.665 15.5361C8.45473 15.6256 8.22854 15.6718 8 15.6718C7.77146 15.6718 7.54527 15.6256 7.335 15.5361C4.888 14.4941 3.286 13.1791 2.303 11.6811C1.32 10.1811 1 8.56507 1 6.99907V3.47907C0.99997 3.10809 1.11784 2.74669 1.33658 2.44706C1.55533 2.14743 1.86364 1.92506 2.217 1.81207L7.467 0.132071C7.81367 0.0210804 8.18633 0.0210804 8.533 0.132071ZM7.923 1.56107L7.924 1.56207L2.674 3.24207C2.62376 3.25826 2.5799 3.28988 2.54867 3.33243C2.51743 3.37498 2.5004 3.42629 2.5 3.47907V6.99907C2.5 8.35907 2.775 9.66507 3.557 10.8581C4.341 12.0521 5.678 13.2001 7.923 14.1561C7.94734 14.1665 7.97353 14.1718 8 14.1718C8.02647 14.1718 8.05266 14.1665 8.077 14.1561C10.322 13.1991 11.659 12.0531 12.443 10.8591C13.225 9.66507 13.5 8.35707 13.5 6.99907V3.47907C13.5 3.42608 13.4831 3.37447 13.4518 3.33169C13.4205 3.28891 13.3765 3.25718 13.326 3.24107L8.076 1.56107C8.02625 1.54508 7.97275 1.54508 7.923 1.56107ZM9.5 6.49907C9.5 7.03507 9.214 7.53107 8.75 7.79907V10.2491C8.75 10.448 8.67098 10.6387 8.53033 10.7794C8.38968 10.9201 8.19891 10.9991 8 10.9991C7.80109 10.9991 7.61032 10.9201 7.46967 10.7794C7.32902 10.6387 7.25 10.448 7.25 10.2491V7.79907C7.02201 7.66744 6.83267 7.47812 6.70102 7.25014C6.56937 7.02215 6.50004 6.76354 6.5 6.50027C6.49996 6.23701 6.5692 5.97837 6.70078 5.75035C6.83236 5.52232 7.02163 5.33294 7.24958 5.20124C7.47753 5.06953 7.73614 5.00014 7.9994 5.00003C8.26266 4.99993 8.52132 5.06911 8.74938 5.20063C8.97743 5.33216 9.16686 5.52139 9.29862 5.7493C9.43038 5.97722 9.49983 6.23581 9.5 6.49907Z" fill="#57606A"/>
</svg>
