<svg width="16" height="16" viewBox="0 0 16 16" fill="none" xmlns="http://www.w3.org/2000/svg">
<path d="M10.75 9C10.5511 9 10.3603 9.07902 10.2197 9.21967C10.079 9.36032 10 9.55109 10 9.75C10 9.94891 10.079 10.1397 10.2197 10.2803C10.3603 10.421 10.5511 10.5 10.75 10.5H12.25C12.4489 10.5 12.6397 10.421 12.7803 10.2803C12.921 10.1397 13 9.94891 13 9.75C13 9.55109 12.921 9.36032 12.7803 9.21967C12.6397 9.07902 12.4489 9 12.25 9H10.75Z" fill="#57606A"/>
<path d="M0 3.75C0 2.784 0.784 2 1.75 2H14.25C15.216 2 16 2.784 16 3.75V12.25C16 12.7141 15.8156 13.1592 15.4874 13.4874C15.1592 13.8156 14.7141 14 14.25 14H1.75C1.28587 14 0.840752 13.8156 0.512563 13.4874C0.184374 13.1592 0 12.7141 0 12.25L0 3.75ZM14.5 6.5H1.5V12.25C1.5 12.388 1.612 12.5 1.75 12.5H14.25C14.3163 12.5 14.3799 12.4737 14.4268 12.4268C14.4737 12.3799 14.5 12.3163 14.5 12.25V6.5ZM14.5 3.75C14.5 3.6837 14.4737 3.62011 14.4268 3.57322C14.3799 3.52634 14.3163 3.5 14.25 3.5H1.75C1.6837 3.5 1.62011 3.52634 1.57322 3.57322C1.52634 3.62011 1.5 3.6837 1.5 3.75V5H14.5V3.75Z" fill="#57606A"/>
</svg>
