<svg width="16" height="16" viewBox="0 0 16 16" fill="none" xmlns="http://www.w3.org/2000/svg">
<path d="M10.5611 8.07385C11.5456 8.53921 12.3851 9.26352 12.9896 10.1693C13.5941 11.075 13.941 12.1281 13.9931 13.2159C13.9999 13.3155 13.9868 13.4155 13.9545 13.51C13.9222 13.6045 13.8713 13.6916 13.8049 13.7662C13.7384 13.8408 13.6578 13.9014 13.5676 13.9444C13.4775 13.9874 13.3796 14.0119 13.2798 14.0166C13.1801 14.0212 13.0804 14.0059 12.9866 13.9715C12.8928 13.9371 12.8069 13.8844 12.7338 13.8163C12.6606 13.7482 12.6019 13.6662 12.5609 13.5752C12.5199 13.4841 12.4975 13.3857 12.4951 13.2859C12.4405 12.1304 11.9432 11.0403 11.1062 10.2418C10.2692 9.44338 9.15682 8.99793 8.00006 8.99793C6.8433 8.99793 5.73097 9.44338 4.89397 10.2418C4.05696 11.0403 3.55958 12.1304 3.50506 13.2859C3.49159 13.4814 3.40208 13.664 3.25568 13.7944C3.10929 13.9248 2.91766 13.9927 2.72183 13.9835C2.526 13.9743 2.34153 13.8889 2.20794 13.7454C2.07434 13.6019 2.00224 13.4118 2.00706 13.2159C2.05892 12.1282 2.4056 11.0751 3.00997 10.1694C3.61434 9.26361 4.45365 8.53926 5.43806 8.07385C4.80708 7.54754 4.35353 6.83964 4.13912 6.04643C3.9247 5.25322 3.95983 4.41322 4.23973 3.64069C4.51962 2.86815 5.0307 2.20059 5.70343 1.7288C6.37616 1.25701 7.17789 1.00391 7.99956 1.00391C8.82124 1.00391 9.62297 1.25701 10.2957 1.7288C10.9684 2.20059 11.4795 2.86815 11.7594 3.64069C12.0393 4.41322 12.0744 5.25322 11.86 6.04643C11.6456 6.83964 11.1921 7.54754 10.5611 8.07385ZM10.5001 5.00085C10.5001 4.33781 10.2367 3.70193 9.76783 3.23309C9.29899 2.76425 8.6631 2.50085 8.00006 2.50085C7.33702 2.50085 6.70114 2.76425 6.2323 3.23309C5.76346 3.70193 5.50006 4.33781 5.50006 5.00085C5.50006 5.6639 5.76346 6.29978 6.2323 6.76862C6.70114 7.23746 7.33702 7.50085 8.00006 7.50085C8.6631 7.50085 9.29899 7.23746 9.76783 6.76862C10.2367 6.29978 10.5001 5.6639 10.5001 5.00085Z" />
</svg>
