<svg width="18" height="18" viewBox="0 0 18 18" fill="none" xmlns="http://www.w3.org/2000/svg">
<path d="M7.03125 15.1875C7.03125 15.4656 6.94877 15.7375 6.79425 15.9688C6.63973 16.2 6.42011 16.3803 6.16315 16.4867C5.90619 16.5931 5.62344 16.621 5.35065 16.5667C5.07787 16.5125 4.8273 16.3785 4.63063 16.1819C4.43396 15.9852 4.30003 15.7346 4.24577 15.4618C4.19151 15.1891 4.21936 14.9063 4.32579 14.6494C4.43223 14.3924 4.61247 14.1728 4.84373 14.0182C5.07499 13.8637 5.34687 13.7813 5.625 13.7813C5.99796 13.7813 6.35565 13.9294 6.61937 14.1931C6.88309 14.4569 7.03125 14.8145 7.03125 15.1875ZM12.9375 13.7813C12.6594 13.7813 12.3875 13.8637 12.1562 14.0182C11.925 14.1728 11.7447 14.3924 11.6383 14.6494C11.5319 14.9063 11.504 15.1891 11.5583 15.4618C11.6125 15.7346 11.7465 15.9852 11.9431 16.1819C12.1398 16.3785 12.3904 16.5125 12.6632 16.5667C12.9359 16.621 13.2187 16.5931 13.4756 16.4867C13.7326 16.3803 13.9522 16.2 14.1068 15.9688C14.2613 15.7375 14.3438 15.4656 14.3438 15.1875C14.3438 14.8145 14.1956 14.4569 13.9319 14.1931C13.6681 13.9294 13.3105 13.7813 12.9375 13.7813ZM16.5565 5.3107L14.6377 11.5474C14.5151 11.9508 14.2659 12.3038 13.9268 12.5542C13.5877 12.8047 13.1769 12.9391 12.7554 12.9375H5.83102C5.40345 12.9361 4.98785 12.7962 4.64648 12.5388C4.30511 12.2813 4.05636 11.9202 3.9375 11.5095L1.53352 3.09375H0.84375C0.619974 3.09375 0.405362 3.00486 0.247129 2.84662C0.0888948 2.68839 0 2.47378 0 2.25C0 2.02622 0.0888948 1.81161 0.247129 1.65338C0.405362 1.49514 0.619974 1.40625 0.84375 1.40625H1.74516C2.05055 1.40719 2.34741 1.50714 2.5912 1.69108C2.83498 1.87503 3.01255 2.13307 3.09727 2.42648L3.60984 4.21875H15.75C15.882 4.21874 16.0123 4.24972 16.1301 4.30921C16.248 4.36869 16.3503 4.45501 16.4288 4.56123C16.5072 4.66745 16.5596 4.7906 16.5818 4.92077C16.604 5.05094 16.5953 5.1845 16.5565 5.3107ZM14.6074 5.90625H4.09148L5.56031 11.0461C5.57713 11.1049 5.61265 11.1566 5.6615 11.1934C5.71035 11.2302 5.76986 11.2501 5.83102 11.25H12.7554C12.8156 11.2501 12.8742 11.2309 12.9227 11.1952C12.9712 11.1595 13.0069 11.1092 13.0247 11.0517L14.6074 5.90625Z" fill="#57606A"/>
</svg>
