<svg width="20" height="18" viewBox="0 0 20 18" fill="none" xmlns="http://www.w3.org/2000/svg">
<path d="M9.0625 15.1875C9.0625 15.4113 8.96373 15.6259 8.78791 15.7841C8.6121 15.9424 8.37364 16.0312 8.125 16.0312H3.75C3.3356 16.0312 2.93817 15.8831 2.64515 15.6194C2.35212 15.3556 2.1875 14.998 2.1875 14.625V3.375C2.1875 3.00204 2.35212 2.64435 2.64515 2.38063C2.93817 2.11691 3.3356 1.96875 3.75 1.96875H8.125C8.37364 1.96875 8.6121 2.05764 8.78791 2.21588C8.96373 2.37411 9.0625 2.58872 9.0625 2.8125C9.0625 3.03628 8.96373 3.25089 8.78791 3.40912C8.6121 3.56736 8.37364 3.65625 8.125 3.65625H4.0625V14.3438H8.125C8.37364 14.3438 8.6121 14.4326 8.78791 14.5909C8.96373 14.7491 9.0625 14.9637 9.0625 15.1875ZM17.5383 8.40305L14.4133 5.59055C14.2372 5.43204 13.9983 5.34299 13.7492 5.34299C13.5001 5.34299 13.2613 5.43204 13.0852 5.59055C12.909 5.74906 12.8101 5.96404 12.8101 6.1882C12.8101 6.41237 12.909 6.62735 13.0852 6.78586L14.6094 8.15625H8.125C7.87636 8.15625 7.6379 8.24514 7.46209 8.40338C7.28627 8.56161 7.1875 8.77622 7.1875 9C7.1875 9.22378 7.28627 9.43839 7.46209 9.59662C7.6379 9.75485 7.87636 9.84375 8.125 9.84375H14.6094L13.0844 11.2155C12.9083 11.3741 12.8093 11.589 12.8093 11.8132C12.8093 12.0374 12.9083 12.2524 13.0844 12.4109C13.2605 12.5694 13.4994 12.6584 13.7484 12.6584C13.9975 12.6584 14.2364 12.5694 14.4125 12.4109L17.5375 9.59836C17.625 9.52002 17.6944 9.42691 17.7417 9.32438C17.7891 9.22184 17.8136 9.1119 17.8136 9.00085C17.8137 8.8898 17.7894 8.77983 17.7422 8.67725C17.6949 8.57466 17.6256 8.48148 17.5383 8.40305Z" fill="#57606A"/>
</svg>
