<svg width="22" height="28" viewBox="0 0 22 28" fill="none" xmlns="http://www.w3.org/2000/svg">
<path d="M17.875 3.71875H4.125C3.80591 3.71875 3.49989 3.88008 3.27426 4.16724C3.04863 4.45441 2.92188 4.84389 2.92188 5.25V22.75C2.92188 23.1561 3.04863 23.5456 3.27426 23.8328C3.49989 24.1199 3.80591 24.2812 4.125 24.2812H13.4655C13.6236 24.2816 13.7801 24.2422 13.9261 24.1652C14.0722 24.0883 14.2048 23.9753 14.3163 23.8328L18.7258 18.2208C18.8377 18.0788 18.9265 17.91 18.987 17.7242C19.0474 17.5383 19.0784 17.3391 19.0781 17.138V5.25C19.0781 4.84389 18.9514 4.45441 18.7257 4.16724C18.5001 3.88008 18.1941 3.71875 17.875 3.71875ZM3.95313 22.75V5.25C3.95313 5.19198 3.97123 5.13634 4.00347 5.09532C4.0357 5.0543 4.07942 5.03125 4.125 5.03125H17.875C17.9206 5.03125 17.9643 5.0543 17.9965 5.09532C18.0288 5.13634 18.0469 5.19198 18.0469 5.25V16.8438H13.75C13.6132 16.8438 13.4821 16.9129 13.3854 17.036C13.2887 17.159 13.2344 17.326 13.2344 17.5V22.9688H4.125C4.07942 22.9688 4.0357 22.9457 4.00347 22.9047C3.97123 22.8637 3.95313 22.808 3.95313 22.75ZM14.2656 22.0402V18.1562H17.3181L14.2656 22.0402Z" fill="black"/>
</svg>
