<svg width="19" height="18" viewBox="0 0 19 18" fill="none" xmlns="http://www.w3.org/2000/svg">
<path d="M18.7513 6.22396L9.81015 0.096592C9.71832 0.0336109 9.61039 0 9.5 0C9.38961 0 9.28168 0.0336109 9.18985 0.096592L0.248677 6.22396C0.17206 6.27651 0.109266 6.34771 0.0658805 6.43122C0.0224952 6.51474 -0.000135908 6.60798 6.14024e-07 6.70266V16.6596C6.14024e-07 17.0151 0.137378 17.356 0.38191 17.6074C0.626443 17.8588 0.958101 18 1.30392 18H17.6961C18.0419 18 18.3736 17.8588 18.6181 17.6074C18.8626 17.356 19 17.0151 19 16.6596V6.70266C19.0001 6.60798 18.9775 6.51474 18.9341 6.43122C18.8907 6.34771 18.8279 6.27651 18.7513 6.22396ZM9.5 1.26558L17.4567 6.72277L10.9464 11.4897H8.05358L1.54328 6.71894L9.5 1.26558ZM17.6961 16.8511H1.30392C1.25452 16.8511 1.20714 16.8309 1.17221 16.795C1.13727 16.7591 1.11765 16.7104 1.11765 16.6596V7.81803L7.54971 12.5323C7.6448 12.6013 7.75834 12.6384 7.87476 12.6386H11.1252C11.2417 12.6384 11.3552 12.6013 11.4503 12.5323L17.8824 7.81803V16.6596C17.8824 16.7104 17.8627 16.7591 17.8278 16.795C17.7929 16.8309 17.7455 16.8511 17.6961 16.8511Z" fill="black"/>
</svg>
