<svg width="341" height="245" viewBox="0 0 341 245" fill="none" xmlns="http://www.w3.org/2000/svg">
<path d="M138.555 13.7677H18.5376V133.796H138.555V13.7677Z" fill="#F4F4F4"/>
<path d="M18.537 13.7677H17.1616V133.796H18.537V13.7677Z" fill="#F4F4F4"/>
<path opacity="0.05" d="M18.537 13.7677H17.1616V133.796H18.537V13.7677Z" fill="#292A2E"/>
<path opacity="0.05" d="M47.6119 96.4773V65.074H73.3335V83.3187H113.177V115.623H130.11V133.796H113.177H109.914H24.3105V96.4773H47.6119Z" fill="#292A2E"/>
<path opacity="0.34" d="M70.0325 68.4834H51.3018V71.8932H70.0325V68.4834Z" fill="#FFFFFA"/>
<path opacity="0.34" d="M70.0325 75.5491H51.3018V78.9589H70.0325V75.5491Z" fill="#FFFFFA"/>
<path opacity="0.34" d="M70.0325 82.6147H51.3018V86.0245H70.0325V82.6147Z" fill="#FFFFFA"/>
<path opacity="0.34" d="M31.0848 99.787H27.6323V103.197H31.0848V99.787Z" fill="#FFFFFA"/>
<path opacity="0.34" d="M31.0848 106.853H27.6323V110.262H31.0848V106.853Z" fill="#FFFFFA"/>
<path opacity="0.34" d="M31.0848 113.918H27.6323V117.328H31.0848V113.918Z" fill="#FFFFFA"/>
<path opacity="0.34" d="M37.4715 99.787H34.019V103.197H37.4715V99.787Z" fill="#FFFFFA"/>
<path opacity="0.34" d="M37.4715 106.853H34.019V110.262H37.4715V106.853Z" fill="#FFFFFA"/>
<path opacity="0.34" d="M37.4715 113.918H34.019V117.328H37.4715V113.918Z" fill="#FFFFFA"/>
<path opacity="0.34" d="M43.6854 99.787H40.2329V103.197H43.6854V99.787Z" fill="#FFFFFA"/>
<path opacity="0.34" d="M43.6854 106.853H40.2329V110.262H43.6854V106.853Z" fill="#FFFFFA"/>
<path opacity="0.34" d="M43.6854 113.918H40.2329V117.328H43.6854V113.918Z" fill="#FFFFFA"/>
<path d="M18.5376 73.1087H42.6869V13.7677H44.6842V73.1087H109.915V13.7677H111.912V73.1087H138.555V75.1061H111.912V133.796H109.915V75.1061H44.6842V133.796H42.6869V75.1061H18.5376V73.1087Z" fill="white"/>
<path d="M143.336 133.651H13.7563V137.643H143.336V133.651Z" fill="#F4F4F4"/>
<path opacity="0.1" d="M143.336 133.651H13.7563V137.643H143.336V133.651Z" fill="#292A2E"/>
<path opacity="0.1" d="M13.756 133.651H11.8853V137.643H13.756V133.651Z" fill="#292A2E"/>
<path opacity="0.1" d="M13.756 133.651H11.8853V137.643H13.756V133.651Z" fill="#292A2E"/>
<path d="M17.1617 18.8783L138.555 18.8783V15.9105L17.1617 15.9105V18.8783Z" fill="white"/>
<path d="M17.1617 24.4216L138.555 24.4216V21.4538L17.1617 21.4538V24.4216Z" fill="white"/>
<path d="M17.1617 29.9644L138.555 29.9644V26.9965L17.1617 26.9965V29.9644Z" fill="white"/>
<path d="M17.1617 35.5077L138.555 35.5077V32.5399L17.1617 32.5399V35.5077Z" fill="white"/>
<path d="M17.1617 41.0514L138.555 41.0514V38.0836L17.1617 38.0836V41.0514Z" fill="white"/>
<path d="M30.0553 44.3984H31.8745L31.8745 13.7672H30.0553L30.0553 44.3984Z" fill="white"/>
<path d="M30.8107 48.7975C32.1909 48.7975 33.3099 47.6785 33.3099 46.2981C33.3099 44.9177 32.1909 43.7987 30.8107 43.7987C29.4304 43.7987 28.3115 44.9177 28.3115 46.2981C28.3115 47.6785 29.4304 48.7975 30.8107 48.7975Z" fill="white"/>
<path d="M293.012 13.0972H242.514V78.8328H293.012V13.0972Z" fill="#F4F4F4"/>
<path d="M293.011 78.8328H294.649V13.0972H293.011V78.8328Z" fill="#F4F4F4"/>
<path opacity="0.05" d="M293.011 78.8328H294.649V13.0972H293.011V78.8328Z" fill="#292A2E"/>
<path opacity="0.05" d="M283.813 25.0714H251.712V66.8581H283.813V25.0714Z" fill="#292A2E"/>
<path opacity="0.03" d="M283.813 25.0714H282.14V66.8581H283.813V25.0714Z" fill="#292A2E"/>
<path d="M334.311 94.9984H293.012V136.681H334.311V94.9984Z" fill="#F4F4F4"/>
<path opacity="0.05" d="M326.788 102.591H300.535V129.088H326.788V102.591Z" fill="#292A2E"/>
<path d="M334.311 136.681H335.949V94.9979H334.311V136.681Z" fill="#F4F4F4"/>
<path opacity="0.05" d="M334.311 136.681H335.949V94.9979H334.311V136.681Z" fill="#292A2E"/>
<path opacity="0.03" d="M326.788 102.591H325.115V129.088H326.788V102.591Z" fill="#292A2E"/>
<path d="M197.355 165.603C197.3 165.603 197.246 165.591 197.197 165.567L115.885 125.374C115.832 125.347 115.787 125.308 115.752 125.26C115.718 125.212 115.697 125.155 115.69 125.096C115.684 125.038 115.692 124.978 115.714 124.923C115.736 124.868 115.772 124.82 115.818 124.782L197.104 58.0816C197.168 58.0295 197.247 58.001 197.329 58.001C197.411 58.001 197.49 58.0295 197.553 58.0816L278.891 124.782C278.937 124.82 278.972 124.868 278.995 124.923C279.017 124.978 279.025 125.038 279.018 125.096C279.011 125.155 278.99 125.211 278.956 125.26C278.922 125.308 278.877 125.347 278.824 125.374L197.511 165.568C197.462 165.592 197.409 165.604 197.355 165.603ZM116.691 124.982L197.355 164.856L278.018 124.982L197.329 58.8121L116.691 124.982Z" fill="#292A2E"/>
<path d="M284.975 0.354126L268.79 22.0469V206.638C268.79 208.383 268.097 210.056 266.864 211.29C265.63 212.524 263.957 213.217 262.213 213.217H132.444C131.58 213.217 130.725 213.046 129.927 212.716C129.129 212.385 128.404 211.901 127.793 211.29C127.182 210.679 126.698 209.954 126.367 209.156C126.037 208.358 125.867 207.502 125.867 206.638V18.1271C125.867 13.4135 127.739 8.89294 131.072 5.55988C134.404 2.22681 138.924 0.354251 143.638 0.354126H284.975Z" fill="white"/>
<path d="M262.213 213.568H132.444C130.607 213.566 128.845 212.835 127.546 211.536C126.247 210.237 125.515 208.476 125.512 206.638V18.1271C125.518 13.3212 127.429 8.71369 130.827 5.31539C134.225 1.91708 138.832 0.00549906 143.638 0L284.975 0C285.041 0.0001745 285.105 0.018596 285.161 0.0532101C285.217 0.0878241 285.262 0.13727 285.291 0.196032C285.32 0.254795 285.333 0.320565 285.327 0.386006C285.321 0.451447 285.297 0.513986 285.258 0.56665L269.145 22.1645V206.638C269.142 208.476 268.41 210.237 267.111 211.536C265.812 212.835 264.05 213.566 262.213 213.568ZM143.638 0.708312C139.02 0.713561 134.593 2.55044 131.328 5.81596C128.062 9.08149 126.226 13.509 126.22 18.1271V206.638C126.223 208.288 126.879 209.87 128.046 211.037C129.213 212.204 130.794 212.86 132.444 212.862H262.213C263.863 212.86 265.444 212.204 266.611 211.037C267.778 209.87 268.434 208.288 268.436 206.638V22.0469C268.436 21.9705 268.461 21.8961 268.507 21.8349L284.269 0.708312H143.638Z" fill="#292A2E"/>
<path opacity="0.3" d="M242.355 23.9032H152.354C152.063 23.9032 151.827 24.1393 151.827 24.4307V25.2929C151.827 25.5842 152.063 25.8204 152.354 25.8204H242.355C242.647 25.8204 242.883 25.5842 242.883 25.2929V24.4307C242.883 24.1393 242.647 23.9032 242.355 23.9032Z" fill="#262626"/>
<path d="M268.791 16.54C268.791 12.2472 270.496 8.1303 273.531 5.09486C276.566 2.05942 280.683 0.354126 284.975 0.354126C289.268 0.354126 293.384 2.05942 296.419 5.09486C299.455 8.1303 301.16 12.2472 301.16 16.54V30.2052H268.791V16.54Z" fill="white"/>
<path d="M301.159 30.5594H268.791C268.697 30.5594 268.607 30.5221 268.54 30.4557C268.474 30.3893 268.437 30.2992 268.437 30.2053V16.54C268.425 14.3606 268.844 12.2003 269.67 10.1833C270.496 8.16642 271.712 6.33263 273.249 4.78737C274.786 3.24212 276.613 2.01587 278.626 1.17912C280.638 0.342376 282.796 -0.0883789 284.975 -0.0883789C287.154 -0.0883789 289.312 0.342376 291.324 1.17912C293.337 2.01587 295.164 3.24212 296.701 4.78737C298.238 6.33263 299.454 8.16642 300.28 10.1833C301.106 12.2003 301.525 14.3606 301.513 16.54V30.2053C301.513 30.2992 301.476 30.3893 301.41 30.4557C301.343 30.5221 301.253 30.5594 301.159 30.5594ZM269.146 29.8511H300.806V16.54C300.818 14.4537 300.417 12.3858 299.626 10.455C298.836 8.52422 297.672 6.76874 296.201 5.28946C294.73 3.81018 292.981 2.63628 291.054 1.83525C289.128 1.03422 287.063 0.621846 284.976 0.621846C282.89 0.621846 280.825 1.03422 278.898 1.83525C276.972 2.63628 275.223 3.81018 273.752 5.28946C272.281 6.76874 271.117 8.52422 270.327 10.455C269.536 12.3858 269.135 14.4537 269.146 16.54V29.8511Z" fill="#292A2E"/>
<path opacity="0.3" d="M256.759 64.1514H195.722C195.479 64.1514 195.282 64.3484 195.282 64.5915V64.5919C195.282 64.835 195.479 65.032 195.722 65.032H256.759C257.002 65.032 257.199 64.835 257.199 64.5919V64.5915C257.199 64.3484 257.002 64.1514 256.759 64.1514Z" fill="#262626"/>
<path opacity="0.3" d="M256.759 57.8984H195.722C195.479 57.8984 195.282 58.0954 195.282 58.3385V58.3389C195.282 58.582 195.479 58.779 195.722 58.779H256.759C257.002 58.779 257.199 58.582 257.199 58.3389V58.3385C257.199 58.0954 257.002 57.8984 256.759 57.8984Z" fill="#262626"/>
<path opacity="0.3" d="M256.759 51.645H195.722C195.479 51.645 195.282 51.842 195.282 52.0851V52.0855C195.282 52.3286 195.479 52.5256 195.722 52.5256H256.759C257.002 52.5256 257.199 52.3286 257.199 52.0855V52.0851C257.199 51.842 257.002 51.645 256.759 51.645Z" fill="#262626"/>
<path opacity="0.3" d="M256.759 45.392H195.722C195.479 45.392 195.282 45.589 195.282 45.8321V45.8325C195.282 46.0756 195.479 46.2726 195.722 46.2726H256.759C257.002 46.2726 257.199 46.0756 257.199 45.8325V45.8321C257.199 45.589 257.002 45.392 256.759 45.392Z" fill="#262626"/>
<path opacity="0.3" d="M256.759 39.1111H195.722C195.479 39.1111 195.282 39.3081 195.282 39.5512V39.5517C195.282 39.7947 195.479 39.9918 195.722 39.9918H256.759C257.002 39.9918 257.199 39.7947 257.199 39.5517V39.5512C257.199 39.3081 257.002 39.1111 256.759 39.1111Z" fill="#262626"/>
<path opacity="0.3" d="M231.523 70.4044H195.722C195.479 70.4044 195.282 70.6014 195.282 70.8445V70.8449C195.282 71.088 195.479 71.285 195.722 71.285H231.523C231.766 71.285 231.963 71.088 231.963 70.8449V70.8445C231.963 70.6014 231.766 70.4044 231.523 70.4044Z" fill="#262626"/>
<path opacity="0.9" d="M185.791 34.0854H138.955C138.157 34.0854 137.51 34.7322 137.51 35.5299V73.9261C137.51 74.7239 138.157 75.3706 138.955 75.3706H185.791C186.589 75.3706 187.236 74.7239 187.236 73.9261V35.5299C187.236 34.7322 186.589 34.0854 185.791 34.0854Z" fill="#0CBC8B"/>
<path opacity="0.8" d="M154.853 50.4725C156.84 50.4725 158.451 48.8615 158.451 46.8742C158.451 44.887 156.84 43.276 154.853 43.276C152.866 43.276 151.255 44.887 151.255 46.8742C151.255 48.8615 152.866 50.4725 154.853 50.4725Z" fill="white"/>
<path opacity="0.5" d="M159.807 63.6981L170.238 52.061C170.889 51.3347 171.8 50.8944 172.774 50.8355C173.748 50.7766 174.705 51.1039 175.44 51.7465L187.236 62.0756V75.3701H172.976" fill="white"/>
<path opacity="0.8" d="M172.977 75.3701L150.36 55.3249C149.692 54.7326 148.832 54.4017 147.939 54.3931C147.046 54.3844 146.18 54.6985 145.5 55.2776L137.511 62.0775V75.372" fill="white"/>
<path opacity="0.3" d="M256.717 105.466H137.993C137.75 105.466 137.553 105.663 137.553 105.906V105.907C137.553 106.15 137.75 106.347 137.993 106.347H256.717C256.96 106.347 257.157 106.15 257.157 105.907V105.906C257.157 105.663 256.96 105.466 256.717 105.466Z" fill="#262626"/>
<path opacity="0.3" d="M256.717 99.2133H137.993C137.75 99.2133 137.553 99.4103 137.553 99.6534V99.6538C137.553 99.8969 137.75 100.094 137.993 100.094H256.717C256.96 100.094 257.157 99.8969 257.157 99.6538V99.6534C257.157 99.4103 256.96 99.2133 256.717 99.2133Z" fill="#262626"/>
<path opacity="0.3" d="M256.717 92.9598H137.993C137.75 92.9598 137.553 93.1569 137.553 93.3999V93.4004C137.553 93.6435 137.75 93.8405 137.993 93.8405H256.717C256.96 93.8405 257.157 93.6435 257.157 93.4004V93.3999C257.157 93.1569 256.96 92.9598 256.717 92.9598Z" fill="#262626"/>
<path opacity="0.3" d="M256.717 86.7068H137.993C137.75 86.7068 137.553 86.9039 137.553 87.1469V87.1474C137.553 87.3905 137.75 87.5875 137.993 87.5875H256.717C256.96 87.5875 257.157 87.3905 257.157 87.1474V87.1469C257.157 86.9039 256.96 86.7068 256.717 86.7068Z" fill="#262626"/>
<path opacity="0.3" d="M173.794 111.72H137.993C137.75 111.72 137.553 111.917 137.553 112.16V112.16C137.553 112.403 137.75 112.6 137.993 112.6H173.794C174.037 112.6 174.234 112.403 174.234 112.16V112.16C174.234 111.917 174.037 111.72 173.794 111.72Z" fill="#262626"/>
<path opacity="0.3" d="M256.717 141.526H137.993C137.75 141.526 137.553 141.724 137.553 141.967V141.967C137.553 142.21 137.75 142.407 137.993 142.407H256.717C256.96 142.407 257.157 142.21 257.157 141.967V141.967C257.157 141.724 256.96 141.526 256.717 141.526Z" fill="#262626"/>
<path opacity="0.3" d="M256.717 135.273H137.993C137.75 135.273 137.553 135.47 137.553 135.714V135.714C137.553 135.957 137.75 136.154 137.993 136.154H256.717C256.96 136.154 257.157 135.957 257.157 135.714V135.714C257.157 135.47 256.96 135.273 256.717 135.273Z" fill="#262626"/>
<path opacity="0.3" d="M256.717 129.02H137.993C137.75 129.02 137.553 129.217 137.553 129.46V129.461C137.553 129.704 137.75 129.901 137.993 129.901H256.717C256.96 129.901 257.157 129.704 257.157 129.461V129.46C257.157 129.217 256.96 129.02 256.717 129.02Z" fill="#262626"/>
<path opacity="0.3" d="M256.717 122.767H137.993C137.75 122.767 137.553 122.964 137.553 123.207V123.208C137.553 123.451 137.75 123.648 137.993 123.648H256.717C256.96 123.648 257.157 123.451 257.157 123.208V123.207C257.157 122.964 256.96 122.767 256.717 122.767Z" fill="#262626"/>
<path opacity="0.3" d="M173.794 147.779H137.993C137.75 147.779 137.553 147.976 137.553 148.22V148.22C137.553 148.463 137.75 148.66 137.993 148.66H173.794C174.037 148.66 174.234 148.463 174.234 148.22V148.22C174.234 147.976 174.037 147.779 173.794 147.779Z" fill="#262626"/>
<path d="M270.727 219.089H123.981C121.876 219.089 119.856 218.253 118.367 216.764C116.878 215.275 116.042 213.255 116.042 211.149V125.056L197.354 165.251L278.666 125.056V211.149C278.666 212.192 278.461 213.224 278.062 214.188C277.663 215.151 277.078 216.027 276.341 216.764C275.604 217.501 274.728 218.086 273.765 218.485C272.802 218.884 271.769 219.089 270.727 219.089Z" fill="#367CFF"/>
<path opacity="0.78" d="M270.727 219.089H123.981C121.876 219.089 119.856 218.253 118.367 216.764C116.878 215.275 116.042 213.255 116.042 211.149V125.056L197.354 165.251L278.666 125.056V211.149C278.666 212.192 278.461 213.224 278.062 214.188C277.663 215.151 277.078 216.027 276.341 216.764C275.604 217.501 274.728 218.086 273.765 218.485C272.802 218.884 271.769 219.089 270.727 219.089Z" fill="white"/>
<path d="M270.727 219.444H123.982C121.783 219.441 119.675 218.566 118.12 217.011C116.565 215.457 115.69 213.348 115.688 211.149V125.056C115.688 124.996 115.703 124.937 115.733 124.884C115.762 124.831 115.804 124.787 115.855 124.755C115.907 124.724 115.965 124.705 116.025 124.703C116.085 124.7 116.145 124.712 116.199 124.739L197.354 164.856L278.51 124.739C278.564 124.712 278.624 124.7 278.684 124.702C278.744 124.705 278.802 124.724 278.853 124.755C278.905 124.787 278.947 124.831 278.976 124.884C279.005 124.937 279.021 124.996 279.021 125.056V211.149C279.018 213.348 278.143 215.457 276.589 217.011C275.034 218.566 272.926 219.441 270.727 219.444ZM116.396 125.627V211.149C116.399 213.16 117.199 215.089 118.621 216.511C120.043 217.933 121.971 218.733 123.982 218.735H270.727C272.738 218.733 274.666 217.933 276.088 216.511C277.51 215.089 278.31 213.161 278.312 211.149V125.627L197.511 165.568C197.462 165.592 197.409 165.605 197.354 165.605C197.3 165.605 197.246 165.592 197.197 165.568L116.396 125.627Z" fill="#292A2E"/>
<path d="M315.77 238.689C315.827 238.689 315.883 238.673 315.932 238.642C315.981 238.612 316.02 238.569 316.045 238.517L324.119 221.951C324.152 221.878 324.155 221.796 324.128 221.721C324.101 221.646 324.046 221.584 323.974 221.549C323.903 221.515 323.82 221.509 323.745 221.534C323.669 221.558 323.606 221.612 323.569 221.682L315.495 238.248C315.472 238.295 315.462 238.347 315.464 238.399C315.467 238.45 315.483 238.501 315.51 238.545C315.538 238.589 315.576 238.625 315.621 238.65C315.667 238.676 315.718 238.689 315.77 238.689Z" fill="#292A2E"/>
<path d="M302.118 237.728C302.186 237.727 302.251 237.705 302.305 237.664C302.359 237.622 302.397 237.564 302.414 237.499L311.759 201.817C311.769 201.778 311.772 201.737 311.766 201.697C311.761 201.658 311.748 201.619 311.727 201.584C311.707 201.55 311.68 201.519 311.648 201.495C311.616 201.471 311.58 201.453 311.541 201.443C311.502 201.433 311.461 201.43 311.422 201.436C311.382 201.441 311.343 201.454 311.309 201.475C311.274 201.495 311.244 201.522 311.219 201.554C311.195 201.586 311.177 201.622 311.167 201.661L301.821 237.344C301.801 237.422 301.812 237.506 301.853 237.576C301.894 237.646 301.962 237.697 302.04 237.718C302.066 237.724 302.092 237.727 302.118 237.728Z" fill="#292A2E"/>
<path d="M284.29 239.307C284.34 239.307 284.39 239.295 284.435 239.271C284.48 239.247 284.518 239.213 284.546 239.171C284.574 239.129 284.591 239.08 284.596 239.03C284.6 238.98 284.593 238.929 284.573 238.882L274.912 216.13C274.88 216.055 274.82 215.996 274.745 215.965C274.669 215.935 274.585 215.936 274.51 215.967C274.436 215.999 274.377 216.059 274.346 216.134C274.316 216.21 274.316 216.294 274.348 216.369L284.008 239.122C284.032 239.177 284.072 239.224 284.122 239.257C284.172 239.29 284.23 239.307 284.29 239.307Z" fill="#292A2E"/>
<path d="M301.771 244.579C301.796 244.579 301.821 244.576 301.846 244.57C301.924 244.55 301.992 244.5 302.034 244.43C302.076 244.36 302.088 244.277 302.069 244.198L290.843 199.287C290.833 199.247 290.816 199.211 290.792 199.178C290.768 199.146 290.738 199.119 290.703 199.098C290.669 199.078 290.631 199.064 290.591 199.058C290.551 199.052 290.511 199.054 290.472 199.064C290.433 199.074 290.396 199.091 290.364 199.115C290.331 199.139 290.304 199.169 290.283 199.203C290.263 199.238 290.249 199.276 290.243 199.316C290.237 199.356 290.239 199.396 290.249 199.435L301.474 244.347C301.491 244.413 301.529 244.472 301.583 244.514C301.637 244.556 301.703 244.579 301.771 244.579Z" fill="#292A2E"/>
<path d="M297.791 208.49C300.837 202.087 298.849 194.776 293.352 192.161C287.854 189.545 280.929 192.616 277.883 199.019C274.838 205.422 276.825 212.733 282.323 215.349C287.82 217.964 294.745 214.893 297.791 208.49Z" fill="#0CBC8B"/>
<path opacity="0.4" d="M297.791 208.49C300.837 202.087 298.849 194.776 293.352 192.161C287.854 189.545 280.929 192.616 277.883 199.019C274.838 205.422 276.825 212.733 282.323 215.349C287.82 217.964 294.745 214.893 297.791 208.49Z" fill="white"/>
<path d="M278.898 223.273C280.487 219.328 279.095 215.051 275.79 213.72C272.484 212.388 268.517 214.507 266.928 218.452C265.34 222.397 266.731 226.674 270.037 228.005C273.342 229.336 277.31 227.218 278.898 223.273Z" fill="#0CBC8B"/>
<path d="M317.847 218.211C322.757 216.722 325.255 210.629 323.428 204.602C321.6 198.576 316.138 194.898 311.228 196.387C306.318 197.876 303.819 203.969 305.647 209.996C307.475 216.022 312.937 219.7 317.847 218.211Z" fill="#0CBC8B"/>
<path d="M326.163 231.035C328.903 230.577 330.601 227.078 329.956 223.221C329.31 219.364 326.566 216.609 323.826 217.068C321.086 217.526 319.387 221.025 320.033 224.882C320.678 228.739 323.423 231.494 326.163 231.035Z" fill="#0CBC8B"/>
<path d="M275.28 245H322.964V233.116H275.28V245Z" fill="#292A2E"/>
<path opacity="0.3" d="M275.28 245H322.964V233.116H275.28V245Z" fill="white"/>
<path d="M297.882 230.13C299.82 225.318 298.107 220.094 294.056 218.462C290.006 216.831 285.151 219.409 283.213 224.221C281.275 229.034 282.988 234.258 287.038 235.889C291.089 237.521 295.944 234.942 297.882 230.13Z" fill="#0CBC8B"/>
<path d="M308.465 234.696C312.499 234.696 315.77 231.425 315.77 227.39C315.77 223.355 312.499 220.084 308.465 220.084C304.43 220.084 301.159 223.355 301.159 227.39C301.159 231.425 304.43 234.696 308.465 234.696Z" fill="#0CBC8B"/>
<path opacity="0.68" d="M278.898 223.273C280.487 219.328 279.095 215.051 275.79 213.72C272.484 212.388 268.517 214.507 266.928 218.452C265.34 222.397 266.731 226.674 270.037 228.005C273.342 229.336 277.31 227.218 278.898 223.273Z" fill="white"/>
<path opacity="0.68" d="M317.847 218.211C322.757 216.722 325.255 210.629 323.428 204.602C321.6 198.576 316.138 194.898 311.228 196.387C306.318 197.876 303.819 203.969 305.647 209.996C307.475 216.022 312.937 219.7 317.847 218.211Z" fill="white"/>
<path opacity="0.68" d="M326.163 231.035C328.903 230.577 330.601 227.078 329.956 223.221C329.31 219.364 326.566 216.609 323.826 217.068C321.086 217.526 319.387 221.025 320.033 224.882C320.678 228.739 323.423 231.494 326.163 231.035Z" fill="white"/>
<path opacity="0.68" d="M297.882 230.13C299.82 225.318 298.107 220.094 294.056 218.462C290.006 216.831 285.151 219.409 283.213 224.221C281.275 229.034 282.988 234.258 287.038 235.889C291.089 237.521 295.944 234.942 297.882 230.13Z" fill="white"/>
<path opacity="0.4" d="M308.465 234.696C312.499 234.696 315.77 231.425 315.77 227.39C315.77 223.355 312.499 220.084 308.465 220.084C304.43 220.084 301.159 223.355 301.159 227.39C301.159 231.425 304.43 234.696 308.465 234.696Z" fill="white"/>
<path d="M284.998 221.239C290.543 222.789 293.461 218.257 293.461 218.257L293.458 218.251C290.502 217.369 287.222 218.609 284.998 221.239Z" fill="#292A2E"/>
<path d="M320.024 223.095C322.754 222.05 325.015 220.056 326.395 217.479C325.648 217.08 324.79 216.935 323.952 217.066C321.643 217.452 320.076 219.996 320.024 223.095Z" fill="#292A2E"/>
<path d="M307.161 220.202C309.288 222.117 311.945 223.344 314.782 223.72C314.027 222.422 312.89 221.388 311.527 220.758C310.163 220.129 308.639 219.934 307.161 220.202Z" fill="#292A2E"/>
<path d="M340.527 244.89H12.8213C12.6961 244.89 12.576 244.841 12.4874 244.752C12.3989 244.664 12.3491 244.543 12.3491 244.418C12.3491 244.293 12.3989 244.173 12.4874 244.084C12.576 243.996 12.6961 243.946 12.8213 243.946H340.527C340.653 243.946 340.773 243.996 340.861 244.084C340.95 244.173 341 244.293 341 244.418C341 244.543 340.95 244.664 340.861 244.752C340.773 244.841 340.653 244.89 340.527 244.89Z" fill="#292A2E"/>
<path d="M187.732 94.8808L181.731 107.002L181.829 105.168C181.849 104.575 181.644 103.996 181.253 103.549C180.863 103.102 180.318 102.82 179.728 102.76C179.422 102.739 179.116 102.781 178.827 102.883C178.538 102.985 178.273 103.144 178.048 103.352C177.823 103.56 177.642 103.811 177.518 104.091C177.393 104.371 177.327 104.673 177.323 104.979L176.945 127.688L184.219 127.993C186.478 128.087 188.715 127.505 190.641 126.32C192.568 125.136 194.096 123.403 195.032 121.343L199.25 112.009C199.479 111.528 199.534 110.983 199.407 110.466C199.28 109.949 198.978 109.491 198.553 109.171C198.163 108.891 197.693 108.742 197.213 108.747C196.732 108.752 196.266 108.91 195.881 109.199C195.863 109.167 195.837 109.141 195.805 109.122C195.774 109.106 195.74 109.098 195.706 109.099C195.671 109.1 195.638 109.109 195.608 109.126L196.389 107.406C196.645 106.871 196.689 106.258 196.511 105.693C196.333 105.127 195.947 104.65 195.431 104.358C194.96 104.113 194.418 104.042 193.901 104.157C193.383 104.272 192.923 104.566 192.6 104.987C192.592 104.965 192.579 104.945 192.563 104.927L192.884 104.219C193.113 103.738 193.168 103.193 193.041 102.676C192.914 102.159 192.612 101.702 192.187 101.382C191.713 101.041 191.126 100.896 190.549 100.979C189.971 101.061 189.448 101.364 189.089 101.824C189.075 101.819 189.06 101.814 189.045 101.812L191.544 96.7635C191.794 96.258 191.834 95.6738 191.653 95.1392C191.473 94.6047 191.088 94.1637 190.582 93.9132C190.077 93.6628 189.493 93.6233 188.958 93.8036C188.424 93.9839 187.983 94.3692 187.732 94.8747V94.8808Z" fill="#E98862"/>
<path opacity="0.2" d="M189.224 102.049C189.221 102.074 189.214 102.098 189.203 102.12L186.719 106.995C186.706 107.02 186.689 107.042 186.667 107.06C186.646 107.078 186.622 107.092 186.595 107.1C186.569 107.109 186.541 107.112 186.513 107.11C186.486 107.108 186.458 107.1 186.434 107.088C186.409 107.075 186.387 107.058 186.369 107.036C186.351 107.015 186.337 106.991 186.328 106.964C186.32 106.938 186.316 106.91 186.319 106.882C186.321 106.855 186.328 106.827 186.341 106.803L188.825 101.927C188.848 101.883 188.885 101.848 188.931 101.829C188.977 101.809 189.028 101.807 189.076 101.821C189.123 101.836 189.164 101.867 189.191 101.908C189.218 101.95 189.23 102 189.224 102.049H189.224Z" fill="#0A0A0A"/>
<path opacity="0.2" d="M192.617 105.086C192.614 105.11 192.607 105.134 192.596 105.155L190.674 109.002C190.662 109.029 190.646 109.053 190.625 109.072C190.604 109.092 190.579 109.108 190.552 109.118C190.525 109.127 190.496 109.132 190.467 109.13C190.438 109.129 190.41 109.121 190.385 109.108C190.359 109.095 190.336 109.077 190.317 109.055C190.299 109.033 190.285 109.007 190.277 108.98C190.268 108.952 190.266 108.923 190.269 108.895C190.272 108.866 190.281 108.838 190.296 108.813L192.219 104.966C192.241 104.921 192.278 104.886 192.324 104.866C192.37 104.846 192.421 104.843 192.469 104.857C192.517 104.872 192.558 104.903 192.586 104.945C192.613 104.987 192.624 105.037 192.618 105.087L192.617 105.086Z" fill="#0A0A0A"/>
<path opacity="0.2" d="M195.916 109.338C195.912 109.364 195.904 109.388 195.892 109.411L194.942 111.206C194.93 111.231 194.912 111.254 194.891 111.273C194.869 111.292 194.844 111.306 194.817 111.315C194.79 111.324 194.761 111.327 194.733 111.325C194.705 111.322 194.677 111.314 194.652 111.301C194.627 111.287 194.604 111.269 194.586 111.247C194.568 111.225 194.555 111.199 194.547 111.172C194.539 111.145 194.537 111.116 194.541 111.088C194.544 111.059 194.553 111.032 194.568 111.007L195.518 109.213C195.541 109.169 195.579 109.135 195.625 109.116C195.671 109.098 195.722 109.095 195.769 109.11C195.816 109.125 195.857 109.156 195.883 109.198C195.91 109.239 195.922 109.289 195.916 109.338Z" fill="#0A0A0A"/>
<path d="M173.322 112.6L155.527 163.646L126.606 125.822L99.5449 148.434L149.54 201.827C151.318 203.859 153.602 205.383 156.16 206.245C158.718 207.107 161.459 207.276 164.104 206.735C166.749 206.194 169.203 204.962 171.217 203.165C173.231 201.367 174.734 199.068 175.571 196.501L199.939 121.336L173.322 112.6Z" fill="#367CFF"/>
<path d="M15.3924 222.184C12.9122 222.184 10.4686 221.585 8.26982 220.437C6.07101 219.289 4.18206 217.627 2.76381 215.592C1.34556 213.557 0.440014 211.21 0.124266 208.75C-0.191482 206.289 0.0919214 203.789 0.950348 201.462C1.82149 199.101 22.3276 143.482 26.2154 133.46L54.9197 144.598C52.734 150.232 44.8154 171.59 38.4506 188.796L49.0214 187.648L52.3492 218.259L17.0582 222.094C16.505 222.154 15.9489 222.184 15.3924 222.184Z" fill="#367CFF"/>
<path d="M33.8407 220.611L29.1465 243.98H120.322L115.071 220.167L33.8407 220.611Z" fill="#262626"/>
<path d="M53.5549 116.181C45.937 116.748 38.1694 119.222 32.4491 124.285C23.8222 131.923 24.59 136.696 28.8966 157.846C32.6021 176.044 31.1318 183.996 33.6107 217.576C33.6839 218.568 33.8401 220.611 33.8401 220.611L115.329 220.476C115.329 220.476 122.964 175.924 127.18 155.375C130.386 139.753 138.807 120.789 103.303 116.966C103.21 116.956 74.7348 114.609 53.5549 116.181Z" fill="#367CFF"/>
<path d="M103.303 116.966C103.208 116.954 100.622 126.688 80.4368 125.173C66.4607 124.127 63.0555 114.614 62.7354 114.614C64.242 114.293 66.6883 113.961 67.3578 113.604C69.5581 112.423 71.1611 110.982 71.9676 107.893C72.5989 105.477 72.9204 96.1775 72.9204 91.5116L94.4233 96.3437C94.1234 101.607 92.0256 113.809 99.3781 115.969C100.602 116.327 101.919 116.656 103.303 116.966Z" fill="#E98862"/>
<path d="M93.6773 106.693C85.2005 107.362 74.311 103.782 72.241 92.4716L70.3746 82.2658C68.3065 70.955 72.5697 60.6991 83.2175 58.7498C93.8662 56.8019 103.503 64.5155 105.571 75.8263L106.397 80.3448C107.195 84.6863 108.804 105.5 93.6773 106.693Z" fill="#E98862"/>
<path d="M101.539 96.3083C100.018 88.6623 99.3203 83.5587 99.401 78.1788C101.544 74.4191 100.981 70.104 100.494 68.2393C102.594 69.3853 103.473 69.5105 105.451 69.5105C105.451 69.5105 101.907 55.2843 89.8595 51.4561C87.6446 50.5938 81.9886 49.5049 74.4783 50.5348C68.0904 51.4112 52.3447 56.1876 50.0953 73.9162V73.9261C50.0207 74.514 48.5088 90.8486 45.495 98.6854C41.4428 109.221 35.7542 112.495 35.8987 124.65C36.0843 140.285 64.8263 142.367 82.1623 141.197C99.4983 140.028 109.176 134.327 109.301 123.058C109.439 110.433 104.584 111.606 101.539 96.3083Z" fill="#0A0A0A"/>
<path d="M101.544 89.899C98.3086 90.4907 95.0521 87.5082 94.4619 84.2717C93.8717 81.0352 96.1669 78.771 99.4031 78.1802L101.544 89.899Z" fill="#E98862"/>
<path d="M123.41 175.929C123.397 175.929 123.384 175.927 123.371 175.925C123.345 175.92 123.32 175.91 123.297 175.895C123.275 175.88 123.255 175.861 123.24 175.839C123.225 175.817 123.214 175.792 123.208 175.766C123.203 175.739 123.203 175.712 123.208 175.686L126.625 154.279C126.637 154.227 126.668 154.182 126.713 154.153C126.757 154.125 126.811 154.114 126.863 154.124C126.915 154.134 126.961 154.163 126.992 154.206C127.023 154.25 127.036 154.303 127.028 154.355L123.612 175.762C123.604 175.809 123.578 175.851 123.541 175.882C123.504 175.913 123.458 175.929 123.41 175.929Z" fill="#0C0C0C"/>
<path d="M33.8411 220.817C33.788 220.817 33.7371 220.797 33.6989 220.76C33.6607 220.723 33.6382 220.673 33.6361 220.62L31.0827 154.325C31.0805 154.271 31.1 154.218 31.1369 154.178C31.1739 154.138 31.2252 154.114 31.2796 154.112C31.3333 154.112 31.3849 154.133 31.4243 154.169C31.4637 154.206 31.488 154.256 31.4925 154.309L34.0465 220.604C34.0485 220.658 34.0289 220.711 33.9919 220.751C33.9549 220.791 33.9035 220.815 33.8491 220.817H33.8411Z" fill="#0C0C0C"/>
</svg>
