<svg width="20" height="17" viewBox="0 0 20 17" fill="none" xmlns="http://www.w3.org/2000/svg">
<path d="M18.6275 0H1.37255C1.00853 0 0.659413 0.145785 0.40201 0.405283C0.144608 0.664781 0 1.01674 0 1.38372V15.6163C0 15.9833 0.144608 16.3352 0.40201 16.5947C0.659413 16.8542 1.00853 17 1.37255 17H18.6275C18.9915 17 19.3406 16.8542 19.598 16.5947C19.8554 16.3352 20 15.9833 20 15.6163V1.38372C20 1.01674 19.8554 0.664781 19.598 0.405283C19.3406 0.145785 18.9915 0 18.6275 0ZM1.37255 1.18605H18.6275C18.6795 1.18605 18.7293 1.20687 18.7661 1.24394C18.8029 1.28101 18.8235 1.33129 18.8235 1.38372V5.53488H1.17647V1.38372C1.17647 1.33129 1.19713 1.28101 1.2339 1.24394C1.27067 1.20687 1.32055 1.18605 1.37255 1.18605ZM1.17647 15.6163V6.72093H7.05882V15.814H1.37255C1.32055 15.814 1.27067 15.7931 1.2339 15.7561C1.19713 15.719 1.17647 15.6687 1.17647 15.6163ZM18.6275 15.814H8.23529V6.72093H18.8235V15.6163C18.8235 15.6687 18.8029 15.719 18.7661 15.7561C18.7293 15.7931 18.6795 15.814 18.6275 15.814Z" fill="black"/>
</svg>
