<svg width="17" height="21" viewBox="0 0 17 21" fill="none" xmlns="http://www.w3.org/2000/svg">
<path d="M15.1564 0.485874L1.63975 0.748495C1.26105 0.756958 0.899669 0.911304 0.634827 1.1777C0.369984 1.4441 0.223287 1.80081 0.226894 2.16964L0.402505 19.2482C0.404321 19.4312 0.443142 19.6117 0.516752 19.7794C0.590361 19.9471 0.697316 20.0986 0.831507 20.2254C0.965698 20.3522 1.1245 20.4517 1.29883 20.5183C1.47317 20.5849 1.65962 20.6173 1.84755 20.6135L15.3642 20.3509C15.4485 20.3497 15.5326 20.341 15.6155 20.325C15.9443 20.2593 16.2402 20.0835 16.4516 19.8284C16.6631 19.5732 16.7767 19.2548 16.7727 18.9286L16.5971 1.85001C16.5931 1.48134 16.4392 1.13077 16.1692 0.87509C15.8992 0.619407 15.535 0.479451 15.1564 0.485874ZM15.378 1.87515L15.5536 18.9537C15.554 18.98 15.5491 19.0061 15.5392 19.0306C15.5292 19.0551 15.5144 19.0775 15.4956 19.0965C15.4577 19.1344 15.4061 19.1563 15.3521 19.1574L1.83155 19.4218C1.80409 19.4228 1.77676 19.4184 1.75119 19.4089C1.72562 19.3993 1.70235 19.3849 1.68275 19.3663C1.66315 19.3478 1.64763 19.3255 1.63712 19.3009C1.62661 19.2763 1.62133 19.2498 1.62158 19.2231L1.44597 2.1445C1.44554 2.11825 1.45045 2.09212 1.46041 2.06762C1.47037 2.04312 1.48519 2.02073 1.50401 2.00174C1.54293 1.96284 1.59589 1.94031 1.65136 1.93906L15.168 1.67644C15.1955 1.67543 15.2228 1.67982 15.2484 1.68935C15.274 1.69888 15.2972 1.71335 15.3168 1.7319C15.3364 1.75044 15.3519 1.77269 15.3625 1.7973C15.373 1.82192 15.3783 1.84839 15.378 1.87515ZM13.3551 4.30329C13.3576 4.44412 13.3088 4.58176 13.2175 4.69192C13.1261 4.80207 12.9981 4.87764 12.856 4.90527C12.8206 4.91203 12.7848 4.91586 12.7488 4.9167L4.13543 5.08371C4.05328 5.08791 3.97127 5.07598 3.89429 5.04864C3.81731 5.02129 3.74692 4.97908 3.68731 4.92453C3.6277 4.86997 3.58009 4.80418 3.54732 4.73107C3.51454 4.65795 3.49726 4.57901 3.49651 4.49894C3.49576 4.41886 3.51156 4.33929 3.54296 4.26495C3.57436 4.19062 3.62072 4.12304 3.67928 4.06623C3.73785 4.00942 3.80742 3.96454 3.88387 3.93427C3.96031 3.904 4.04206 3.88895 4.12426 3.89002L12.7375 3.72204C12.8991 3.71922 13.0548 3.77871 13.1704 3.88758C13.2861 3.99644 13.3525 4.14585 13.3551 4.30329ZM13.3872 7.48569C13.3896 7.62651 13.3409 7.76416 13.2495 7.87432C13.1582 7.98447 13.0301 8.06004 12.888 8.08767C12.8543 8.09388 12.82 8.09706 12.7857 8.09717L4.17251 8.26514C4.00984 8.26827 3.85324 8.20833 3.73715 8.09852C3.62106 7.98871 3.555 7.83801 3.5535 7.67959C3.55199 7.52117 3.61517 7.36799 3.72912 7.25376C3.84308 7.13953 3.99849 7.0736 4.16116 7.07048L12.7745 6.90347C12.9355 6.90196 13.09 6.96216 13.2046 7.07109C13.3192 7.18002 13.3848 7.32894 13.3872 7.48569ZM9.11813 10.7536C9.11933 10.8939 9.06978 11.0306 8.97815 11.1398C8.88653 11.249 8.75869 11.3238 8.61705 11.3508C8.58168 11.3575 8.54583 11.3614 8.50987 11.3623L4.20419 11.4456C4.12204 11.4498 4.04003 11.4379 3.96305 11.4105C3.88606 11.3832 3.81567 11.341 3.75607 11.2864C3.69646 11.2319 3.64885 11.1661 3.61607 11.0929C3.5833 11.0198 3.56602 10.9409 3.56527 10.8608C3.56452 10.7807 3.58032 10.7012 3.61171 10.6268C3.64311 10.5525 3.68947 10.4849 3.74804 10.4281C3.80661 10.3713 3.87618 10.3264 3.95262 10.2962C4.02907 10.2659 4.11082 10.2508 4.19302 10.2519L8.49852 10.1676C8.57925 10.1663 8.65928 10.1805 8.73404 10.2094C8.80879 10.2384 8.87679 10.2814 8.93413 10.3362C8.99147 10.391 9.03702 10.4563 9.06818 10.5286C9.09933 10.6008 9.11547 10.6784 9.11568 10.7571L9.11813 10.7536Z" fill="black"/>
</svg>
